<?xml version="1.0" encoding="utf-8"?>
<!-- Generator: Adobe Illustrator 24.1.1, SVG Export Plug-In . SVG Version: 6.00 Build 0)  -->
<svg version="1.1" id="teamwork_vlogging" xmlns="http://www.w3.org/2000/svg" xmlns:xlink="http://www.w3.org/1999/xlink" x="0px"
	 y="0px" viewBox="0 0 696.7 630.7" style="enable-background:new 0 0 696.7 630.7;" xml:space="preserve">
<style type="text/css">
	.st0{fill:#FFB400;}
	.st1{fill:#FF3A00;}
	.st2{fill:#FFFFFF;}
	.st3{fill:#00AEE0;}
	.st4{fill:#04294F;}
</style>
<g>
	<path class="st0" d="M477.2,338.3c-3.1,12.1-7,27.3-24.6,44.9s-32.7,21.5-44.9,24.6c-10.1,2.6-17.5,4.5-27.9,14.9
		c22.5-0.3,42.5-0.7,59.5-1.1c4.7-1.7,9.1-2.8,13.1-3.8c10.1-2.6,17.5-4.5,27.9-14.9s12.3-17.8,15-27.9c1.2-5.2,2.8-10.4,4.7-15.5
		c0.3-12.8,0.5-27.1,0.5-42.7c0-4.6,0-9.1-0.1-13.5c-3,2.1-5.9,4.5-8.5,7.2C481.6,320.8,479.7,328.1,477.2,338.3z"/>
	<path class="st1" d="M465.6,286.7c-10.5,10.5-12.3,17.8-14.9,27.9c-3.1,12.1-7,27.3-24.6,44.9s-32.7,21.5-44.9,24.6
		c-10.1,2.6-17.5,4.5-27.9,14.9c-9,9-11.6,15.7-13.9,23.8c14.2,0,27.7-0.1,40.4-0.3c10.4-10.4,17.8-12.3,27.9-14.9
		c12.1-3.1,27.3-7,44.9-24.6s21.5-32.7,24.6-44.9c2.6-10.1,4.5-17.5,14.9-27.9c2.6-2.6,5.4-5,8.5-7.2c-0.1-11.9-0.3-23-0.6-33.1
		c-2.2,0.6-4.4,1.2-6.5,1.7C483.4,274.4,476.1,276.3,465.6,286.7z"/>
	<g>
		<path class="st0" d="M236.1,399.8c10.5-10.5,12.3-17.8,14.9-27.9c3-11.8,6.7-26.3,22.9-43.2c-2.6-11.8-1.3-24.1,3.7-35l-1.4,0.4
			c-10.1,2.6-17.5,4.5-27.9,14.9s-12.3,17.8-14.9,27.9c-3.1,12.1-7,27.3-24.6,44.9s-32.7,21.5-44.9,24.6c-2.3,0.6-4.5,1.1-6.6,1.8
			c0.3,4.7,0.5,8.5,0.7,11.4c7,0.3,17.6,0.8,31.4,1.2c6-2.5,12.2-4.5,18.6-6C218.4,412.1,225.7,410.2,236.1,399.8z"/>
		<path class="st1" d="M208.9,381.7c17.6-17.6,21.5-32.7,24.6-44.9c2.6-10.1,4.5-17.5,14.9-27.9s17.8-12.3,27.9-14.9l1.4-0.4
			c9-19.6,28.6-32.1,50.1-32.1h0.6c11.6-14.3,14.8-26.7,17.4-37c1.3-5.1,2.5-9.6,4.6-14c-7.2,0-14.8,0-22.6,0h-11.1
			c-3.2,10.2-8.7,22.1-21.9,35.3c-17.6,17.6-32.7,21.5-44.9,24.6c-10.2,2.6-17.5,4.5-27.9,14.9s-12.3,17.8-14.9,27.9
			c-3.1,12.1-7,27.3-24.6,44.9c-9.6,9.6-18.4,15.1-26.4,18.6c0.4,12.8,1,23.4,1.4,31.4c2.1-0.6,4.3-1.2,6.6-1.8
			C176.2,403.2,191.3,399.3,208.9,381.7z"/>
		<path class="st2" d="M207,313.2c2.6-10.1,4.5-17.5,14.9-27.9s17.8-12.3,27.9-14.9c12.1-3.1,27.3-7,44.9-24.6
			c13.3-13.3,18.7-25.1,21.9-35.3c-13.3,0-25.8,0.1-37.3,0.2c-3.3,4.6-6.9,8.9-10.9,12.8c-17.6,17.6-32.7,21.5-44.9,24.6
			c-10.1,2.6-17.5,4.5-27.9,14.9s-12.3,17.8-14.9,27.9c-3.1,12.1-7,27.3-24.6,44.9c-0.4,0.4-0.7,0.7-1.1,1c0.2,15,0.5,28.4,0.9,39.9
			c8-3.5,16.9-9,26.4-18.6C200.1,340.5,203.9,325.4,207,313.2z"/>
		<path class="st3" d="M180.8,290.9c2.6-10.1,4.5-17.5,14.9-27.9s17.8-12.3,27.9-14.9c12.1-3.1,27.3-7,44.9-24.6
			c4-3.9,7.6-8.2,10.9-12.8c-19,0.1-35.6,0.4-50,0.7c-11.8,8.1-22.3,10.8-31.1,13c-10.1,2.6-17.5,4.5-27.9,14.9
			c-10,10-12.1,17.1-14.5,26.5c-0.4,14.7-0.7,31.8-0.7,50.9c0,7,0,13.7,0.1,20.1c0.4-0.3,0.7-0.7,1.1-1
			C173.8,318.1,177.7,303,180.8,290.9z"/>
		<path class="st2" d="M339.4,422.9c2.2-8.1,4.9-14.8,13.9-23.8c10.5-10.5,17.8-12.3,27.9-14.9c12.1-3.1,27.3-7,44.9-24.6
			s21.5-32.7,24.6-44.9c2.6-10.1,4.5-17.5,14.9-27.9s17.8-12.3,27.9-14.9c2.1-0.5,4.2-1.1,6.5-1.7c-0.4-14.6-0.9-27.1-1.4-37.1
			c-8.6,4.6-16.4,6.7-23.2,8.5c-10.5,2.8-18,4.9-29,15.9s-13,18.6-15.9,29c-3.3,12.3-7.4,27.6-25.4,45.5
			c-14.4,14.4-27,19.9-37.8,23.2c-9.3,9.6-21.8,15.5-35.2,16.5l-1.6,1.5c-11,11-13,18.6-15.8,29c-1.7,7.1-4.1,14-7.2,20.6
			c6.6,0,13.4,0,20.3,0L339.4,422.9z"/>
	</g>
	<g>
		<path class="st4" d="M506.3,418.9c0-0.4,0-0.7,0.1-1.1v-0.5c0-0.3,0-0.7,0.1-1.1c0-0.2,0-0.4,0-0.6s0-0.7,0.1-1s0-0.5,0-0.8
			l0.1-1.4c0-0.4,0-0.9,0.1-1.3c0-0.3,0-0.6,0-0.8s0-0.9,0.1-1.3c0-0.2,0-0.4,0-0.7c0-0.5,0-0.9,0.1-1.4v-0.6c0-0.5,0.1-1.1,0.1-1.6
			v-0.2c0.1-2.6,0.3-5.5,0.4-8.5v-0.2c0.6-13.2,1.2-30.1,1.6-49.9l0,0c0.1-4,0.1-8.1,0.2-12.3c0-0.5,0-0.9,0-1.4c0-0.7,0-1.5,0-2.2
			v-3.5v-1.4c0-1,0-1.9,0-2.9v-1.3c0-1.4,0-2.8,0-4.2c0-1.6,0-3.1,0-4.7c0-1.3,0-2.5,0-3.7v-0.9c0-4.3,0-8.5-0.1-12.5
			c0-0.2,0-0.4,0-0.6c0-1.1,0-2.3,0-3.4c0-0.3,0-0.5,0-0.8c0-1.1,0-2.2-0.1-3.3c0-0.3,0-0.5,0-0.8l-0.1-3.3c0-0.2,0-0.5,0-0.7
			c0-1.1,0-2.2-0.1-3.3c0-0.2,0-0.4,0-0.5c0-1.1,0-2.3-0.1-3.4v-0.3c0-1.2,0-2.3-0.1-3.5v-0.2c0-1.2-0.1-2.4-0.1-3.5l0,0
			c-0.2-8-0.5-15.3-0.8-21.9l0,0c0-0.7-0.1-1.4-0.1-2.1v-0.7c0-0.6,0-1.2-0.1-1.9c0-0.3,0-0.5,0-0.8c0-1.3-0.1-2.5-0.2-3.7
			c0-0.1,0-0.2,0-0.3c0-0.4,0-0.9-0.1-1.3l-0.1-1.2l-0.1-1.2c0-0.4,0-0.9-0.1-1.3s0-0.7,0-1l-0.1-1.6v-0.6l0,0v-0.5
			c0-0.6-0.1-1.2-0.1-1.8c0-0.1,0-0.2,0-0.3c0-0.7-0.1-1.3-0.1-1.9v-0.5c0-0.5-0.1-1.1-0.1-1.6v-0.1c0-0.6-0.1-1.3-0.1-1.8v-0.2
			c-0.1-1.5-0.2-2.9-0.3-4.1c-0.1-0.8-0.1-1.6-0.2-2.3c0-0.3,0-0.5-0.1-0.8c-0.1-0.7-0.3-1.5-0.7-2.1c-1.3-2.7-3.9-4.5-6.9-4.7
			l-1.2-0.1h-0.3l-1.4-0.1h-0.3l-1.5-0.1h-0.1l-1.7-0.1H492l-3.8-0.2h-0.2l-2.1-0.1h-0.1l-2.3-0.1l0,0l-1.5-0.1l0,0
			c-8.5-0.4-19.4-0.8-33-1.1h-0.2l-2.5-0.2l0,0l-8.1-0.2h-0.1l-2.8-0.1h-0.1l-8.9-0.2h-0.1l-3-0.1h-0.1l-13-0.2h-0.1h-3.3h-0.2h-3.3
			h-0.2l-10.8-0.3h-0.1c-3.7,0-7.4-0.1-11.3-0.1h-0.2l-12-0.1h0h-6.3h-0.1h-6.3h-54.9h-3.7H297h-3.8h-0.3h-3.7h-0.5H285h-0.3h-5.9
			h-0.3l-5.6,0h-0.1l-5.6,0h-0.4l-5.3,0.1h-0.1l-5.2,0.1h-0.6l-4.8,0.1h-0.1l-4.8,0.1h-0.8l-4.4,0.1h-0.3l-4,0.1H236l-3.5,0.1h-0.6
			l-3.5,0.1h-0.3l-3.8,0.1h-0.2l-3.3,0.1h-0.7l-3,0.1h-0.4l-6.6,0.2h-0.6l-2.9,0.1h-0.2l-6.1,0.2h-0.5l-2.4,0.1H197l-5.5,0.2h-0.3
			l-2.3,0.1h-0.4l-4.9,0.2h-0.3l-2,0.1h-0.4l-2.1,0.1l0,0l-2.1,0.1h-0.3l-1.7,0.1h-0.4l-1.7,0.1h-0.2l-1.8,0.1h-0.3l-1.4,0.1h-0.4
			l-1.4,0.1h-0.3l-1.5,0.1H165l-1.2,0.1h-0.4l-1,0H162l-1.3,0.1l0,0l-1.2,0.1h-0.3h-0.8h-0.3l-1,0.1c-0.3,0-0.5,0-0.8,0.1
			c-3.5,0.5-6.3,3.2-6.8,6.7c0,0.3-0.1,0.5-0.1,0.8c0,0.4-0.1,0.9-0.1,1.3c0,0.2,0,0.3,0,0.5l-0.1,0.9c0,0.2,0,0.4,0,0.6l-0.1,0.9
			c0,0.3,0,0.5-0.1,0.8s0,0.5,0,0.8l-0.1,0.9c0,0.2,0,0.4,0,0.7c-0.1,0.8-0.1,1.6-0.1,2.4v0.4c0,0.4-0.1,0.9-0.1,1.4
			c0,0.2,0,0.4,0,0.6c0,0.5,0,1-0.1,1.5v0.6c0,0.5-0.1,1-0.1,1.6v0.4c-0.1,2.6-0.3,5.4-0.4,8.4v0.1c0,0.8-0.1,1.5-0.1,2.3v0.1
			c-0.6,13.8-1.2,31.3-1.5,52.1l0,0l0,0c0,3.8-0.1,7.7-0.1,11.7v1c0,1.6,0,3.1,0,4.7v1.5c0,1.9,0,3.9,0,5.9v4.4c0,0.4,0,0.9,0,1.3
			c0,1.1,0,2.1,0,3.1c0,0.4,0,0.8,0,1.3c0,2.8,0,5.6,0.1,8.3c0,0.4,0,0.9,0,1.3c0,1,0,2,0,2.9c0,0.4,0,0.8,0,1.2
			c0,1.3,0,2.5,0.1,3.8c0,1.6,0,3.2,0.1,4.8v1.4c0,1,0,2.1,0.1,3.1v1.6c0,1,0,1.9,0.1,2.9c0,0.5,0,1,0,1.5c0,1,0.1,2,0.1,2.9
			c0,0.4,0,0.9,0,1.3c0,1.1,0,2.1,0.1,3.2v0.9c0.1,4.2,0.3,8.3,0.4,12.1l0,0l0,0c0,1.4,0.1,2.8,0.2,4.2v0.8c0,0.6,0.1,1.2,0.1,1.8
			v0.8c0.1,1.3,0.1,2.6,0.2,3.8v0.1c0,0.6,0.1,1.2,0.1,1.8v0.7c0,0.6,0.1,1.1,0.1,1.7v0.2c0.1,1.1,0.1,2.2,0.2,3.3v0.6
			c0,0.5,0.1,1,0.1,1.5v0.6c0.1,1.6,0.2,3.2,0.3,4.7v0.5c0.2,3.6,0.4,6.8,0.6,9.5c0,0.1,0,0.3,0,0.4l0.1,1.3l0.1,0.9v0.4
			c0,0.4,0.1,0.8,0.1,1.2l0,0c0.1,1,0.3,2,0.8,2.9c0.3,0.7,0.7,1.3,1.2,1.8c0.2,0.2,0.3,0.4,0.5,0.5c0.7,0.7,1.5,1.2,2.4,1.6
			c0.5,0.2,0.9,0.4,1.4,0.5c0.5,0.1,1,0.2,1.5,0.2h0.9h0.2h0.8h0.4h0.7h0.5h0.4h0.6h0.5h1.3h0.4h0.7h0.5h0.9h0.3h0.9h0.2l4.8,0.2
			h0.2h1.2h0.2l1.3,0h0.1l3.4,0.1h0.1l1.7,0.1h0.2l1.8,0.1h0.2l1.7,0.1h0.4l1.6,0.1h0.3l1.8,0.1h0.4l1.8,0.1h0.4l1.8,0.1h0.6h1.6
			h0.5l1.9,0.1h0.3l2,0.1h0.6h1.8h0.5l2,0h0.1l2.3,0.1h0.7l1.9,0h0.4l2.2,0.1h0.3c14.3,0.4,30.7,0.7,49.1,1h0.7l10.5,0.1h0.4
			l5.5,0.1h0.2l11.5,0.1h0.2l18.3,0.1l0,0h6.1h17.9h9h0.1h4.4h0.1c20.9-0.1,40.2-0.3,57.6-0.6h0.3l5.6-0.1h0.5l5.4-0.1h0.4l8.7-0.2
			h0.6l2.7-0.1h0.7l2.6-0.1h0.7l3-0.1h0.2l6.4-0.2h0.2l2.8-0.1h0.5l2.4-0.1h0.6l2.3-0.1h0.5l5.6-0.2h0.2l2.5-0.1h0.4l2.2-0.1h0.5
			l2.2-0.1h0.3l2.2-0.1h0.3l4.7-0.2h0.3l1.9-0.1h0.6l1.6-0.1h0.5l1.8-0.1h0.2l4-0.2h0.2l1.6-0.1h0.5h1.3h0.5l1.2,0h0.5l1.5-0.1h0.1
			l3-0.1h0.4l1,0h0.2h1.2h0.1h1.1h0.2h1.1c2-0.1,3.9-0.9,5.3-2.3c0.4-0.3,0.7-0.7,1-1.1c0.3-0.4,0.5-0.8,0.7-1.3
			c0.1-0.2,0.2-0.5,0.3-0.7c0.3-0.7,0.4-1.5,0.5-2.2c0-0.4,0-0.9,0.1-1.4L506.3,418.9z M158.2,419.5c-0.2-2.9-0.4-6.7-0.7-11.4
			c-0.5-8-1-18.6-1.4-31.4c-0.4-11.6-0.7-25-0.9-39.9c-0.1-6.4-0.1-13.1-0.1-20.1c0-19.1,0.3-36.2,0.7-50.9
			c2.4-9.4,4.6-16.5,14.5-26.5c10.5-10.5,17.8-12.3,27.9-14.9c8.9-2.3,19.3-4.9,31.1-13c14.4-0.3,31-0.5,50-0.7
			c11.5-0.1,24-0.2,37.3-0.2h11.1c7.8,0,15.3,0,22.6,0c15.1,0,28.9,0.2,41.6,0.3c-1.4,1.2-2.7,2.5-4.1,3.9
			c-17.6,17.6-21.5,32.7-24.6,44.9c-0.9,4.1-2.2,8.2-3.7,12.1c-9.1-6.5-20-10-31.2-10.1h-0.6c-30.4,0-55.1,24.6-55.2,55
			c0,4.1,0.4,8.1,1.3,12.1c-16.2,16.9-19.9,31.4-22.9,43.2c-2.6,10.1-4.5,17.5-14.9,27.9s-17.8,12.3-27.9,14.9
			c-6.4,1.5-12.6,3.5-18.6,6C175.8,420.3,165.2,419.8,158.2,419.5L158.2,419.5z M374.2,316.7c0,25.6-20.7,46.3-46.3,46.3
			s-46.3-20.7-46.3-46.3c0-25.6,20.7-46.3,46.3-46.3c0,0,0,0,0,0C353.4,270.4,374.1,291.1,374.2,316.7L374.2,316.7z M307.5,422.8
			c-14.9-0.1-29-0.2-42.1-0.4c14.9-16.2,18.4-30.1,21.3-41.5c1.9-7.4,3.4-13.3,8.1-20c9.5,7.1,21.1,10.9,32.9,10.9
			c1.4,0,2.9-0.1,4.3-0.2c30.4-2.4,53.1-28.9,50.7-59.3c-0.2-2.3-0.5-4.7-1-7c11.5-14.2,14.6-26.5,17.2-36.8s4.5-17.5,14.9-27.9
			s17.8-12.3,27.9-14.9c8.9-2.3,19.4-5,31.3-13.2c11.1,0.4,19,0.8,24.2,1.1c0.3,4.4,0.7,10.9,1.1,19.3c0.5,9.9,1,22.4,1.4,37.1
			c0.3,10.1,0.5,21.1,0.6,33.1c0,4.4,0.1,8.9,0.1,13.5c0,15.6-0.2,29.9-0.5,42.7c-1.9,5-3.4,10.2-4.7,15.5
			c-2.6,10.1-4.5,17.5-14.9,27.9s-17.8,12.3-27.9,14.9c-4.1,1-8.4,2.2-13.1,3.8c-17.1,0.4-37,0.8-59.5,1.1
			c-12.7,0.1-26.1,0.2-40.4,0.3h-11.6C320.9,422.9,314.1,422.9,307.5,422.8z"/>
	</g>
	<path class="st0" d="M328.4,261.5c11.2,0.1,22.1,3.6,31.2,10.1c1.5-3.9,2.8-8,3.7-12.1c3.1-12.1,7-27.3,24.6-44.9
		c1.4-1.4,2.7-2.7,4.1-3.9c-12.6-0.1-26.5-0.3-41.6-0.3c-2.2,4.5-3.3,8.9-4.6,14C343.2,234.9,340,247.3,328.4,261.5z"/>
	<path class="st3" d="M430.4,286.5c2.8-10.5,4.9-18,15.9-29s18.6-13,29-15.9c6.8-1.8,14.6-3.9,23.2-8.5c-0.4-8.4-0.8-14.9-1.1-19.3
		c-5.2-0.3-13.1-0.7-24.2-1.1c-11.9,8.2-22.4,10.9-31.3,13.2c-10.1,2.6-17.5,4.5-27.9,14.9s-12.3,17.8-14.9,27.9
		s-5.8,22.6-17.2,36.7c3.7,18-1.7,36.6-14.5,49.8c10.8-3.3,23.4-8.8,37.8-23.2C423,314,427.1,298.7,430.4,286.5z"/>
	<path class="st3" d="M330.5,373.2l1.6-1.5c-1.4,0.1-2.8,0.2-4.3,0.2c-11.9,0-23.4-3.8-32.9-10.9c-4.8,6.7-6.3,12.6-8.1,20
		c-2.9,11.4-6.5,25.3-21.3,41.5c13.1,0.2,27.2,0.3,42.1,0.4c3.1-6.6,5.5-13.5,7.2-20.6C317.5,391.7,319.5,384.2,330.5,373.2z"/>
	<path class="st0" d="M167.4,428.7L167.4,428.7z"/>
	<path class="st0" d="M166.2,428.7h-0.3H166.2z"/>
	<path class="st0" d="M163.8,428.6h-0.4H163.8z"/>
	<path class="st0" d="M165,428.6h-0.5H165z"/>
	<path class="st0" d="M173.9,429L173.9,429z"/>
	<path class="st0" d="M368.8,201.8L368.8,201.8z"/>
	<path class="st0" d="M392.3,201.9L392.3,201.9z"/>
	<path class="st0" d="M362.5,201.7L362.5,201.7z"/>
	<path class="st0" d="M172.4,428.9L172.4,428.9z"/>
	<path class="st0" d="M149.4,420.7c0-0.4-0.1-0.8-0.1-1.2C149.3,419.9,149.4,420.3,149.4,420.7z"/>
	<path class="st0" d="M155.7,428.1c-0.5-0.1-1-0.3-1.4-0.5C154.7,427.8,155.2,428,155.7,428.1z"/>
	<path class="st0" d="M151.8,425.9c-0.2-0.2-0.3-0.3-0.5-0.5C151.5,425.6,151.7,425.8,151.8,425.9z"/>
	<path class="st0" d="M149.3,419l-0.1-0.9L149.3,419z"/>
	<path class="st0" d="M162.1,428.5h-0.5H162.1z"/>
	<path class="st0" d="M158.1,428.3h-0.9H158.1z"/>
	<path class="st0" d="M160.1,428.4h-0.7H160.1z"/>
	<path class="st0" d="M161,428.5h-0.4H161z"/>
	<path class="st0" d="M159.1,428.4h-0.8H159.1z"/>
	<path class="st0" d="M380.8,201.9L380.8,201.9z"/>
	<path class="st0" d="M175.1,429L175.1,429z"/>
	<path class="st0" d="M149.1,416.9c0-0.1,0-0.3,0-0.4V416.9z"/>
	<path class="st0" d="M403.2,202.1L403.2,202.1z"/>
	<path class="st0" d="M356.2,201.7L356.2,201.7z"/>
	<path class="st1" d="M148.3,401.9v-0.6V401.9z"/>
	<path class="st1" d="M147.3,379.9L147.3,379.9z"/>
	<path class="st1" d="M148.2,399.8v-0.6V399.8z"/>
	<path class="st1" d="M332.1,201.6L332.1,201.6z"/>
	<path class="st1" d="M320,201.6L320,201.6z"/>
	<path class="st1" d="M147.8,391.5L147.8,391.5z"/>
	<path class="st1" d="M147.6,387.6v-0.8V387.6z"/>
	<path class="st1" d="M147.5,385v-0.8V385z"/>
	<path class="st1" d="M148.5,407v-0.5V407z"/>
	<path class="st1" d="M356.1,201.7L356.1,201.7z"/>
	<path class="st1" d="M147.9,393.9v-0.7V393.9z"/>
	<path class="st1" d="M148,395.8L148,395.8z"/>
	<path class="st1" d="M352.2,201.7L352.2,201.7z"/>
	<path class="st1" d="M342.2,201.6L342.2,201.6z"/>
	<path class="st1" d="M333.4,201.6L333.4,201.6z"/>
	<path class="st1" d="M338,201.6L338,201.6z"/>
	<path class="st1" d="M348.4,201.7L348.4,201.7z"/>
	<polygon class="st2" points="147.3,380 147.3,380 147.3,380 	"/>
	<path class="st2" d="M292.9,201.7L292.9,201.7z"/>
	<path class="st2" d="M297,201.7L297,201.7z"/>
	<path class="st2" d="M305.6,201.7L305.6,201.7z"/>
	<path class="st2" d="M301.3,201.7L301.3,201.7z"/>
	<path class="st2" d="M314.5,201.6L314.5,201.6z"/>
	<path class="st2" d="M310,201.7L310,201.7z"/>
	<path class="st2" d="M288.7,201.8L288.7,201.8z"/>
	<path class="st2" d="M146.5,350.5v-1.4V350.5z"/>
	<path class="st2" d="M285,201.8L285,201.8z"/>
	<path class="st2" d="M146.6,355.2v-1.6V355.2z"/>
	<path class="st2" d="M319.1,201.6L319.1,201.6z"/>
	<path class="st2" d="M146.7,359.6c0-0.5,0-1,0-1.5C146.7,358.6,146.7,359.1,146.7,359.6z"/>
	<path class="st2" d="M146.9,367.9V367V367.9z"/>
	<path class="st2" d="M146.8,363.8c0-0.4,0-0.9,0-1.3C146.8,362.9,146.8,363.4,146.8,363.8z"/>
	<path class="st3" d="M250.6,202.1L250.6,202.1z"/>
	<path class="st3" d="M245.1,202.2L245.1,202.2z"/>
	<path class="st3" d="M146.2,321L146.2,321z"/>
	<path class="st3" d="M146.2,304.6L146.2,304.6z"/>
	<path class="st3" d="M146.2,310.8L146.2,310.8z"/>
	<path class="st3" d="M146.2,325.5c0-1,0-2.1,0-3.1C146.2,323.4,146.2,324.5,146.2,325.5z"/>
	<path class="st3" d="M146.4,344.2c0-1.2,0-2.5-0.1-3.8C146.4,341.7,146.4,342.9,146.4,344.2z"/>
	<path class="st3" d="M146.3,339.3c0-1,0-1.9,0-2.9C146.3,337.3,146.3,338.3,146.3,339.3z"/>
	<path class="st3" d="M146.3,335.1c0-2.7,0-5.5-0.1-8.3C146.2,329.5,146.3,332.3,146.3,335.1z"/>
	<path class="st3" d="M284.8,201.8L284.8,201.8z"/>
	<path class="st3" d="M266.8,201.9L266.8,201.9z"/>
	<path class="st3" d="M261.4,202L261.4,202z"/>
	<path class="st3" d="M272.8,201.9L272.8,201.9z"/>
	<path class="st3" d="M278.5,201.8L278.5,201.8z"/>
	<path class="st3" d="M240.7,202.3L240.7,202.3z"/>
	<polygon class="st3" points="146.3,291.9 146.3,291.9 146.3,291.9 	"/>
	<path class="st3" d="M255.6,202.1L255.6,202.1z"/>
	<path class="st0" d="M404.2,431.1L404.2,431.1z"/>
	<path class="st0" d="M415.9,430.9L415.9,430.9z"/>
	<path class="st0" d="M410.2,430.9L410.2,430.9z"/>
	<path class="st0" d="M509.4,312c0,1.5,0,3.1,0,4.7C509.4,315.1,509.4,313.5,509.4,312z"/>
	<path class="st0" d="M509.4,332.3c0,0.5,0,0.9,0,1.4C509.4,333.2,509.4,332.8,509.4,332.3z"/>
	<path class="st0" d="M509.4,326.5v3.5V326.5z"/>
	<path class="st0" d="M509.4,322.2c0,1,0,2,0,2.9C509.4,324.2,509.4,323.2,509.4,322.2z"/>
	<path class="st0" d="M509.4,316.7c0,1.4,0,2.8,0,4.2C509.4,319.5,509.4,318.1,509.4,316.7z"/>
	<path class="st0" d="M509.4,307.4L509.4,307.4z"/>
	<path class="st1" d="M509.2,290.1c0,0.3,0,0.5,0,0.8C509.2,290.6,509.2,290.3,509.2,290.1z"/>
	<path class="st1" d="M346.3,431.7L346.3,431.7z"/>
	<path class="st1" d="M508.9,274.4L508.9,274.4z"/>
	<path class="st1" d="M508.8,270.7L508.8,270.7z"/>
	<path class="st1" d="M509.2,286c0,0.3,0,0.5,0,0.8C509.2,286.5,509.2,286.2,509.2,286z"/>
	<path class="st1" d="M509.1,282c0,0.2,0,0.5,0,0.7C509.1,282.5,509.1,282.2,509.1,282z"/>
	<path class="st1" d="M341.8,431.7L341.8,431.7z"/>
	<path class="st1" d="M509.3,294.3c0,0.2,0,0.4,0,0.6C509.3,294.7,509.3,294.5,509.3,294.3z"/>
	<path class="st1" d="M509,278.1c0,0.2,0,0.4,0,0.5C509,278.5,509,278.3,509,278.1z"/>
	<polygon class="st1" points="508.8,267.2 508.8,267.2 508.8,267.2 	"/>
	<path class="st2" d="M507.6,235.9c0,0.1,0,0.2,0,0.3C507.6,236.2,507.6,236.1,507.6,235.9z"/>
	<path class="st2" d="M508,245.3L508,245.3z"/>
	<path class="st2" d="M507.1,227.8L507.1,227.8L507.1,227.8z"/>
	<path class="st2" d="M508.8,267.2L508.8,267.2z"/>
	<path class="st2" d="M507.7,239.9c0,0.3,0,0.5,0,0.8C507.8,240.4,507.8,240.2,507.7,239.9z"/>
	<path class="st2" d="M507.9,242.6v0.7V242.6z"/>
	<path class="st2" d="M507.3,231c0,0.4,0,0.9,0.1,1.3C507.4,231.9,507.3,231.5,507.3,231z"/>
	<path class="st2" d="M308.7,431.7L308.7,431.7z"/>
	<path class="st2" d="M315,431.7L315,431.7z"/>
	<path class="st2" d="M322,431.7L322,431.7z"/>
	<path class="st2" d="M332.7,431.7L332.7,431.7z"/>
	<path class="st2" d="M507.4,233.5l0.1,1.2L507.4,233.5z"/>
	<path class="st2" d="M507.2,228.5l0.1,1.6L507.2,228.5z"/>
	<path class="st3" d="M507.1,227.8v-0.5V227.8z"/>
	<polygon class="st3" points="483.7,204.2 483.7,204.2 483.7,204.2 	"/>
	<path class="st3" d="M506.2,212.6c0,0.7,0.1,1.5,0.2,2.3C506.3,214.1,506.3,213.3,506.2,212.6z"/>
	<path class="st3" d="M262.1,431.3L262.1,431.3z"/>
	<path class="st3" d="M492.1,204.6L492.1,204.6z"/>
	<path class="st3" d="M488.1,204.4L488.1,204.4z"/>
	<path class="st3" d="M507,225.2c0,0.1,0,0.2,0,0.3C507,225.4,507,225.3,507,225.2z"/>
	<path class="st3" d="M273,431.4L273,431.4z"/>
	<path class="st3" d="M290.4,431.6L290.4,431.6z"/>
	<path class="st3" d="M278.7,431.5L278.7,431.5z"/>
	<path class="st3" d="M485.9,204.3L485.9,204.3z"/>
	<path class="st3" d="M493.9,204.7L493.9,204.7z"/>
	<path class="st3" d="M506.8,221L506.8,221z"/>
	<path class="st3" d="M506.9,222.7v0.5V222.7z"/>
	<path class="st3" d="M506.6,219L506.6,219z"/>
	<path class="st3" d="M495.4,204.8L495.4,204.8z"/>
	<path class="st3" d="M497,204.9h0.3H497z"/>
	<path class="st3" d="M505.4,209.7c0.3,0.7,0.5,1.4,0.7,2.1C506,211.1,505.7,210.3,505.4,209.7z"/>
	<g>
		<path class="st1" d="M164.1,190.5l-4.4,0.2l0,0l-0.3-4.7c-0.1-0.9-0.8-1.6-1.7-1.5c-0.3,0-0.6,0.1-0.8,0.3l-9.9,6.6
			c-0.7,0.5-0.9,1.5-0.5,2.2c0.2,0.2,0.4,0.4,0.6,0.6l10.7,5.2c0.8,0.4,1.8,0.1,2.2-0.7c0.1-0.3,0.2-0.5,0.2-0.8l-0.3-4.2l4.4-0.2
			c0.8,0,1.4-0.7,1.4-1.5S164.9,190.4,164.1,190.5L164.1,190.5z"/>
		<path class="st1" d="M342.3,186.9h-8.9l0,0c-0.8,0-1.5,0.7-1.5,1.5s0.7,1.5,1.5,1.5h8.9l0,0c0.8,0,1.5-0.7,1.5-1.5
			S343.1,186.9,342.3,186.9L342.3,186.9z"/>
		<path class="st1" d="M360.1,187.1l-8.9-0.1l0,0c-0.8,0-1.5,0.7-1.5,1.5s0.7,1.5,1.5,1.5l8.9,0.1l0,0c0.8-0.1,1.4-0.8,1.4-1.6
			C361.4,187.7,360.8,187.1,360.1,187.1L360.1,187.1z"/>
		<path class="st1" d="M324.4,186.9H324h-8.5c-0.8,0-1.5,0.7-1.5,1.5s0.7,1.5,1.5,1.5h8.9c0.8,0.1,1.5-0.5,1.6-1.4
			c0.1-0.8-0.5-1.5-1.4-1.6C324.6,186.9,324.5,186.9,324.4,186.9L324.4,186.9z"/>
		<path class="st1" d="M395.7,187.6l-8.9-0.1c-0.8,0-1.5,0.6-1.5,1.5c0,0.8,0.6,1.5,1.4,1.5c0,0,0,0,0,0l8.9,0.1l0,0
			c0.8,0,1.5-0.7,1.5-1.5S396.5,187.6,395.7,187.6L395.7,187.6L395.7,187.6z"/>
		<path class="st1" d="M377.9,187.3l-8.9-0.1c-0.8,0-1.5,0.6-1.5,1.4c0,0,0,0,0,0c0,0.8,0.6,1.5,1.4,1.5c0,0,0,0,0,0l8.9,0.1l0,0
			c0.8,0,1.5-0.7,1.5-1.5S378.7,187.2,377.9,187.3L377.9,187.3z"/>
		<path class="st1" d="M413.6,187.9l-8.9-0.2l0,0c-0.8,0-1.5,0.7-1.5,1.5s0.7,1.5,1.5,1.5l8.9,0.2l0,0c0.8-0.1,1.4-0.8,1.4-1.6
			C414.9,188.5,414.3,187.9,413.6,187.9z"/>
		<path class="st1" d="M288.8,187.1L288.8,187.1l-8.9,0.1c-0.8,0.1-1.4,0.8-1.4,1.6c0.1,0.7,0.6,1.3,1.4,1.4l0,0l8.9-0.1
			c0.8-0.1,1.4-0.8,1.4-1.6C290.1,187.7,289.5,187.1,288.8,187.1L288.8,187.1z"/>
		<path class="st1" d="M306.6,186.9L306.6,186.9l-8.9,0.1c-0.8,0-1.5,0.7-1.5,1.5s0.7,1.5,1.5,1.5l0,0l8.9-0.1
			c0.8,0.1,1.5-0.5,1.6-1.4c0.1-0.8-0.5-1.5-1.4-1.6C306.8,186.9,306.7,186.9,306.6,186.9L306.6,186.9z"/>
		<path class="st1" d="M217.5,188.5l-8.9,0.3c-0.8,0.1-1.4,0.8-1.4,1.6c0.1,0.7,0.6,1.3,1.4,1.4l0,0l8.9-0.3c0.8,0,1.5-0.7,1.5-1.5
			C218.9,189.1,218.3,188.5,217.5,188.5L217.5,188.5z"/>
		<path class="st1" d="M235.3,188.1l-8.9,0.2c-0.8,0-1.5,0.7-1.5,1.5s0.7,1.5,1.5,1.5l0,0l8.9-0.2c0.8,0,1.5-0.7,1.4-1.5
			S236.1,188.1,235.3,188.1L235.3,188.1L235.3,188.1z"/>
		<path class="st1" d="M181.9,189.7l-8.9,0.4c-0.8,0.1-1.4,0.8-1.3,1.6c0.1,0.7,0.7,1.3,1.4,1.3h0.1l8.9-0.4c0.8,0,1.4-0.7,1.4-1.5
			C183.4,190.3,182.7,189.7,181.9,189.7L181.9,189.7z"/>
		<path class="st1" d="M199.7,189.1l-8.9,0.3c-0.8,0-1.5,0.7-1.5,1.5s0.7,1.5,1.5,1.5h0.1l8.9-0.3c0.8,0,1.4-0.7,1.4-1.5
			c0,0,0,0,0,0C201.1,189.7,200.5,189.1,199.7,189.1z"/>
		<path class="st1" d="M253.2,187.6l-8.9,0.2c-0.8,0-1.5,0.7-1.5,1.5s0.7,1.5,1.5,1.5l0,0l8.9-0.2c0.8-0.1,1.4-0.8,1.3-1.6
			C254.4,188.3,253.8,187.7,253.2,187.6L253.2,187.6z"/>
		<path class="st1" d="M271,187.3l-8.9,0.1c-0.8,0-1.5,0.7-1.5,1.5s0.7,1.5,1.5,1.5l0,0c2.9-0.1,5.9-0.1,8.9-0.1
			c0.8,0,1.5-0.7,1.5-1.5C272.4,188,271.8,187.3,271,187.3C271,187.3,271,187.3,271,187.3z"/>
		<path class="st1" d="M426.8,188.1l-4.4-0.1l0,0c-0.8,0-1.5,0.7-1.5,1.5s0.7,1.5,1.5,1.5l4.4,0.1l0,0c0.8-0.1,1.4-0.8,1.4-1.6
			C428.1,188.8,427.6,188.2,426.8,188.1L426.8,188.1z"/>
		<path class="st1" d="M523.9,246.2L523.9,246.2c0.8,0,1.4-0.7,1.4-1.5l-0.2-4.4c0-0.8-0.7-1.5-1.6-1.4s-1.5,0.7-1.4,1.6l0.2,4.4
			C522.3,245.6,523,246.2,523.9,246.2C523.8,246.2,523.8,246.2,523.9,246.2z"/>
		<path class="st1" d="M525,287.4L525,287.4c-0.8,0-1.5,0.7-1.5,1.5c0,2.9,0.1,5.9,0.1,8.8c0,0.8,0.7,1.5,1.5,1.5l0,0
			c0.8,0,1.5-0.7,1.5-1.5c0,0,0,0,0,0c0-3,0-5.9-0.1-8.9C526.4,288.1,525.8,287.4,525,287.4z"/>
		<path class="st1" d="M524.1,252.1c-0.8,0-1.5,0.7-1.4,1.5c0,0,0,0,0,0c0.1,2.9,0.2,5.8,0.3,8.8c0,0.8,0.7,1.4,1.5,1.4l0,0
			c0.8,0,1.4-0.7,1.4-1.5c0,0,0,0,0,0c-0.1-3-0.2-6-0.3-8.9C525.5,252.7,524.9,252.1,524.1,252.1z"/>
		<path class="st1" d="M524.6,269.8c-0.8,0-1.5,0.7-1.4,1.5c0.1,2.9,0.1,5.8,0.2,8.8c0,0.8,0.7,1.5,1.5,1.5l0,0
			c0.8,0,1.5-0.7,1.4-1.5c0,0,0,0,0,0c0-3-0.1-6-0.2-8.9C526,270.4,525.4,269.8,524.6,269.8z"/>
		<path class="st1" d="M526.7,324.3c0-0.8-0.7-1.5-1.5-1.5l0,0c-0.8,0-1.5,0.6-1.5,1.5c0,0,0,0,0,0c0,3,0,6,0,8.8
			c0,0.8,0.6,1.5,1.5,1.5c0,0,0,0,0,0l0,0c0.8,0,1.5-0.6,1.5-1.4c0,0,0,0,0,0C526.7,330.3,526.7,327.3,526.7,324.3z"/>
		<path class="st1" d="M522.5,405.3h0.1c0.8,0,1.4-0.6,1.5-1.3c0.2-2.8,0.4-5.7,0.6-8.8c0-0.8-0.6-1.5-1.4-1.6s-1.5,0.6-1.6,1.4l0,0
			c-0.2,3.1-0.4,6-0.6,8.8C521.2,404.5,521.8,405.2,522.5,405.3z"/>
		<path class="st1" d="M526.2,359.7c0-0.8-0.6-1.5-1.4-1.5c0,0,0,0,0,0c-0.8,0-1.5,0.6-1.5,1.4c0,0,0,0,0,0c-0.1,3.1-0.2,6-0.3,8.8
			c0,0.8,0.6,1.5,1.4,1.5c0,0,0,0,0,0l0,0c0.8,0,1.4-0.6,1.5-1.4C526,365.7,526.1,362.8,526.2,359.7z"/>
		<path class="st1" d="M524.2,375.8c-0.8,0-1.5,0.6-1.5,1.4c-0.1,3.1-0.3,6.1-0.4,8.8c0,0.8,0.6,1.5,1.4,1.5h0.1
			c0.8,0,1.4-0.6,1.5-1.4c0.1-2.8,0.3-5.7,0.4-8.9C525.6,376.6,525,375.9,524.2,375.8z"/>
		<path class="st1" d="M525.2,305.1L525.2,305.1c-0.8,0-1.5,0.7-1.5,1.5c0,0,0,0,0,0c0,2.9,0,5.9,0,8.8c0,0.8,0.7,1.5,1.5,1.5l0,0
			c0.8,0,1.5-0.7,1.5-1.5c0-3,0-5.9,0-8.9C526.6,305.8,526,305.1,525.2,305.1C525.2,305.1,525.2,305.1,525.2,305.1z"/>
		<path class="st1" d="M526.5,341.9c0-0.8-0.6-1.5-1.4-1.5c0,0,0,0,0,0l0,0c-0.8,0-1.5,0.6-1.5,1.5c0,3-0.1,6-0.1,8.8
			c0,0.8,0.6,1.5,1.4,1.5c0,0,0,0,0,0l0,0c0.8,0,1.5-0.6,1.5-1.5C526.4,348,526.5,345,526.5,341.9z"/>
		<path class="st1" d="M527,417.6l-4.1-0.4c0-0.1,0.2-1.5,0.5-4.4c0.1-0.8-0.5-1.5-1.3-1.6c-0.8-0.1-1.5,0.5-1.6,1.3
			c-0.3,2.9-0.5,4.3-0.5,4.4s0,0.1,0,0.1l-4.8-0.4c-0.9-0.1-1.7,0.6-1.8,1.5c0,0.3,0,0.6,0.1,0.8l5,10.8c0.4,0.8,1.3,1.2,2.2,0.8
			c0.3-0.1,0.5-0.3,0.6-0.5l6.8-9.8c0.5-0.7,0.3-1.7-0.4-2.2C527.6,417.7,527.3,417.6,527,417.6z"/>
		<path class="st1" d="M379.1,444.8l-8.6,0.1c-0.8,0-1.5,0.7-1.5,1.5s0.7,1.5,1.5,1.5l0,0l8.6-0.1c0.8,0,1.5-0.7,1.5-1.5
			c0,0,0,0,0,0C380.6,445.5,379.9,444.9,379.1,444.8z"/>
		<path class="st1" d="M396.4,444.6l-8.6,0.2c-0.8,0-1.5,0.7-1.5,1.5s0.7,1.5,1.5,1.5l0,0l8.6-0.2c0.8,0,1.5-0.7,1.4-1.5
			c0,0,0,0,0,0C397.9,445.2,397.2,444.6,396.4,444.6z"/>
		<path class="st1" d="M361.9,445L361.9,445l-8.6,0.1c-0.8,0-1.5,0.7-1.5,1.5s0.7,1.5,1.5,1.5l0,0l8.6-0.1c0.8-0.1,1.4-0.8,1.4-1.6
			C363.2,445.7,362.6,445.2,361.9,445L361.9,445z"/>
		<path class="st1" d="M344.6,445.2L344.6,445.2h-8.6c-0.8,0-1.5,0.7-1.5,1.5c0,0.8,0.7,1.5,1.5,1.5l0,0h8.6
			c0.8-0.1,1.4-0.8,1.4-1.6C345.9,445.8,345.3,445.2,344.6,445.2L344.6,445.2z"/>
		<path class="st1" d="M465.5,442.7l-8.6,0.3c-0.8,0-1.5,0.7-1.5,1.5c0,0.8,0.7,1.5,1.5,1.5h0l8.6-0.3c0.8,0,1.4-0.7,1.4-1.5
			C467,443.3,466.3,442.7,465.5,442.7L465.5,442.7z"/>
		<path class="st1" d="M327.3,445.2h-8.6l0,0c-0.8,0.1-1.4,0.8-1.4,1.6c0.1,0.7,0.6,1.3,1.4,1.4h8.6l0,0c0.8,0,1.5-0.7,1.5-1.5
			C328.8,445.9,328.1,445.2,327.3,445.2L327.3,445.2z"/>
		<path class="st1" d="M431,443.7l-8.6,0.2c-0.8,0-1.5,0.7-1.5,1.5s0.7,1.5,1.5,1.5l0,0l0,0l8.6-0.2c0.8,0,1.5-0.7,1.4-1.5
			c0,0,0,0,0,0C432.4,444.4,431.8,443.8,431,443.7C431,443.7,431,443.7,431,443.7z"/>
		<path class="st1" d="M482.8,442l-8.6,0.3c-0.8,0-1.5,0.7-1.4,1.5s0.7,1.5,1.5,1.4l0,0h0.1l8.6-0.3c0.8,0,1.4-0.7,1.4-1.5
			c0,0,0,0,0,0C484.3,442.6,483.6,442,482.8,442C482.8,442,482.8,442,482.8,442z"/>
		<path class="st1" d="M448.2,443.2l-8.6,0.3c-0.8,0-1.5,0.7-1.5,1.5c0,0.8,0.7,1.5,1.5,1.5l0,0l8.6-0.3c0.8,0,1.5-0.7,1.4-1.5
			C449.7,443.8,449,443.2,448.2,443.2L448.2,443.2L448.2,443.2z"/>
		<path class="st1" d="M413.7,444.2l-8.6,0.2c-0.8,0-1.5,0.7-1.5,1.5c0,0.8,0.7,1.5,1.5,1.5l0,0l8.6-0.2c0.8,0,1.5-0.7,1.5-1.5
			C415.1,444.8,414.5,444.1,413.7,444.2L413.7,444.2L413.7,444.2z"/>
		<path class="st1" d="M240.9,444.2l-8.6-0.2c-0.8,0-1.5,0.6-1.5,1.4s0.6,1.5,1.4,1.5l8.6,0.2l0,0c0.8,0,1.5-0.7,1.5-1.5
			C242.3,444.9,241.6,444.2,240.9,444.2L240.9,444.2L240.9,444.2z"/>
		<path class="st1" d="M223.6,443.8l-8.6-0.2c-0.8,0-1.5,0.6-1.5,1.4c0,0,0,0,0,0c0,0.8,0.6,1.5,1.4,1.5c0,0,0,0,0,0l8.6,0.2l0,0
			c0.8,0,1.5-0.7,1.5-1.5S224.4,443.8,223.6,443.8L223.6,443.8z"/>
		<path class="st1" d="M310,445.1l-8.6-0.1l0,0c-0.8,0.1-1.4,0.8-1.4,1.6c0.1,0.7,0.6,1.3,1.4,1.4l8.6,0.1l0,0
			c0.8,0,1.5-0.7,1.5-1.5S310.9,445.1,310,445.1L310,445.1z"/>
		<path class="st1" d="M206.3,443.4l-8.6-0.2c-0.8,0-1.5,0.6-1.5,1.5c0,0.8,0.6,1.5,1.5,1.5l0,0l8.6,0.2l0,0c0.8,0,1.5-0.7,1.5-1.5
			S207.1,443.4,206.3,443.4L206.3,443.4z"/>
		<path class="st1" d="M258.2,444.5l-8.6-0.2c-0.8,0-1.5,0.6-1.5,1.4c0,0,0,0,0,0c0,0.8,0.6,1.5,1.5,1.5l8.6,0.2l0,0
			c0.8,0,1.5-0.7,1.5-1.5S258.9,444.5,258.2,444.5L258.2,444.5z"/>
		<path class="st1" d="M275.4,444.8l-8.6-0.1c-0.8,0-1.5,0.6-1.5,1.4c0,0,0,0,0,0c0,0.8,0.6,1.5,1.4,1.5c0,0,0,0,0,0l8.6,0.1l0,0
			c0.8-0.1,1.4-0.8,1.4-1.6C276.7,445.4,276.1,444.8,275.4,444.8L275.4,444.8z"/>
		<path class="st1" d="M292.7,444.9l-8.6-0.1c-0.8,0-1.5,0.7-1.5,1.5c0,0.8,0.7,1.5,1.5,1.5l8.6,0.1l0,0c0.8,0,1.5-0.7,1.5-1.5
			S293.6,444.9,292.7,444.9L292.7,444.9z"/>
		<path class="st1" d="M189.1,443l-4.4-0.1c-0.8,0-1.5,0.6-1.5,1.4c0,0,0,0,0,0c0,0.8,0.6,1.5,1.4,1.5l4.4,0.1l0,0
			c0.8,0,1.5-0.7,1.5-1.5C190.5,443.7,189.9,443.1,189.1,443L189.1,443L189.1,443z"/>
		<path class="st1" d="M508.5,440.9l-10.7-5.2c-0.8-0.4-1.8-0.1-2.2,0.7c-0.1,0.3-0.2,0.5-0.2,0.8l0.3,4.2l-4.4,0.2
			c-0.8,0-1.5,0.7-1.4,1.5s0.7,1.5,1.5,1.4h0.1l4.4-0.2l0,0l0.3,4.7c0.1,0.9,0.8,1.6,1.7,1.5c0.3,0,0.5-0.1,0.8-0.3l9.9-6.6
			c0.7-0.5,1-1.5,0.5-2.2C509,441.3,508.8,441.1,508.5,440.9z"/>
		<g>
			<path class="st1" d="M130.6,343.4L130.6,343.4c-0.8,0-1.5,0.7-1.5,1.5c0,0,0,0,0,0c0,1.5,0,3,0.1,4.4c0,0.8,0.7,1.5,1.5,1.5l0,0
				c0.8,0,1.5-0.7,1.4-1.5c0,0,0,0,0,0c0-1.5,0-2.9-0.1-4.4C132.1,344,131.4,343.4,130.6,343.4z"/>
			<path class="st1" d="M128.9,315.6v1c0,0.8,0.6,1.5,1.5,1.5c0,0,0,0,0,0l0,0c0.8,0,1.5-0.6,1.5-1.5c0,0,0,0,0,0v-1
				c0-2.9,0-5.7,0-8.4c0-0.8-0.6-1.5-1.5-1.5c0,0,0,0,0,0l0,0c-0.8,0-1.5,0.7-1.5,1.5l0,0C128.9,309.9,128.9,312.7,128.9,315.6z"/>
			<path class="st1" d="M131.1,267.9c-0.8,0-1.5,0.6-1.5,1.4c-0.1,3-0.2,6.1-0.3,9.4c0,0.8,0.6,1.5,1.4,1.5l0,0
				c0.8,0,1.5-0.6,1.5-1.4c0.1-3.3,0.1-6.4,0.3-9.4C132.5,268.7,131.9,268,131.1,267.9z"/>
			<path class="st1" d="M131.9,249.2c-0.8,0-1.5,0.6-1.6,1.4c-0.1,2.9-0.3,6.1-0.4,9.4c0,0.8,0.6,1.5,1.4,1.5c0,0,0,0,0,0h0.1
				c0.8,0,1.4-0.6,1.5-1.4c0.1-3.3,0.3-6.5,0.4-9.4C133.3,249.9,132.7,249.2,131.9,249.2C131.9,249.2,131.9,249.2,131.9,249.2z"/>
			<path class="st1" d="M133,230.3c-0.8-0.1-1.5,0.5-1.6,1.4c-0.2,3-0.4,6.2-0.6,9.4c0,0.8,0.6,1.5,1.4,1.5h0.1
				c0.8,0,1.4-0.6,1.5-1.4c0.2-3.3,0.4-6.4,0.6-9.4C134.4,231.1,133.8,230.4,133,230.3z"/>
			<path class="st1" d="M130.5,299.2L130.5,299.2c0.8,0,1.5-0.6,1.5-1.5c0-3.2,0-6.4,0.1-9.4c0.1-0.8-0.5-1.5-1.3-1.6
				s-1.5,0.5-1.6,1.3c0,0.1,0,0.2,0,0.2c-0.1,3-0.1,6.2-0.1,9.4C129,298.5,129.7,299.2,130.5,299.2
				C130.5,299.2,130.5,299.2,130.5,299.2z"/>
			<path class="st1" d="M130.5,336.9L130.5,336.9c0.8,0,1.5-0.7,1.5-1.5c0-3.1,0-6.2-0.1-9.4c0-0.8-0.7-1.5-1.5-1.5c0,0,0,0,0,0l0,0
				c-0.8,0-1.5,0.7-1.5,1.5c0,0,0,0,0,0c0,3.2,0,6.3,0.1,9.4C129,336.3,129.7,336.9,130.5,336.9z"/>
			<path class="st1" d="M142,216.2l-5-10.8c-0.4-0.8-1.3-1.2-2.2-0.8c-0.3,0.1-0.5,0.3-0.6,0.5l-6.8,9.8c-0.5,0.7-0.3,1.7,0.4,2.2
				c0.2,0.2,0.5,0.3,0.8,0.3l4.1,0.4c0,0.1-0.2,1.5-0.5,4.4c-0.1,0.8,0.5,1.5,1.3,1.6c0,0,0,0,0,0h0.1c0.8,0,1.4-0.6,1.5-1.3
				c0.3-2.9,0.5-4.3,0.5-4.4v-0.1l4.8,0.4c0.9,0.1,1.7-0.6,1.7-1.5C142.2,216.8,142.1,216.5,142,216.2z"/>
		</g>
	</g>
</g>
<g>
	<path class="st2" d="M327.8,270.4c-25.6,0-46.3,20.7-46.3,46.3c0,25.6,20.7,46.3,46.3,46.3c25.6,0,46.3-20.7,46.3-46.3c0,0,0,0,0,0
		C374.1,291.1,353.4,270.4,327.8,270.4z M351.2,317.8c-2.3,3.7-8.5,8.8-17.5,13.9c-6.5,3.7-12.3,6.5-16.1,7.2
		c-0.4,0.1-0.7,0.1-1.1,0.1c-2.5-0.1-4.7-1.9-5.2-4.4c-2.9-11.9-2.8-24.4,0.1-36.3h0c0.5-2.3,2.4-3.9,4.5-4.2c0,0,0,0,0,0
		c0.2,0,0.3,0,0.5-0.1c0.1,0,0.2,0,0.2,0c0.1,0,0.2,0,0.3,0c0.1,0,0.3,0,0.4,0c0,0,0.1,0,0.1,0c0.2,0,0.4,0.1,0.6,0.1
		c3.3,0.8,8.5,2.9,16.7,7.5c10.2,5.8,14.5,9.7,16.2,12.1C351.9,315,351.9,316.6,351.2,317.8z"/>
	<path class="st3" d="M334.8,301.7c-8.1-4.6-13.4-6.7-16.7-7.5c-0.2-0.1-0.4-0.1-0.6-0.1c0,0-0.1,0-0.1,0c-0.1,0-0.3,0-0.4,0
		c-0.1,0-0.2,0-0.3,0c-0.1,0-0.2,0-0.2,0c-0.2,0-0.3,0-0.5,0.1c0,0,0,0,0,0c-2.1,0.3-3.9,1.9-4.5,4.1c0,0,0,0,0,0.1
		c-3,11.9-3,24.4-0.1,36.3h0c0.5,2.5,2.7,4.3,5.2,4.4c0.4,0,0.7,0,1.1-0.1c3.8-0.7,9.6-3.5,16.1-7.2c9-5.1,15.2-10.2,17.5-13.9
		c0.7-1.3,0.7-2.9-0.2-4.1C349.3,311.4,345,307.5,334.8,301.7z"/>
</g>
<g>
	<path class="st3" d="M552,243.4h120.1c1.9,0,3.4,1.5,3.4,3.4v2.5c0,1.9-1.5,3.4-3.4,3.4H552c-1.9,0-3.4-1.5-3.4-3.4v-2.5
		C548.6,244.9,550.1,243.4,552,243.4z"/>
	<path class="st3" d="M644.3,227.5v4.2c0.1,1.5,1.5,2.6,3,2.5c0,0,0,0,0,0h25.2c1.5,0.1,2.8-1,2.9-2.5v-4.2
		c-0.1-1.5-1.4-2.6-2.9-2.5h-25.3C645.8,224.9,644.5,226,644.3,227.5z"/>
	<path class="st3" d="M633.8,225h-82.2c-1.5-0.1-2.8,1-2.9,2.5v4.2c0.1,1.5,1.4,2.6,2.9,2.5h82.2c1.5,0.1,2.8-1,2.9-2.5v-4.2
		C636.6,226,635.3,224.9,633.8,225z"/>
	<path class="st3" d="M552,280.1h120.1c1.9,0,3.4,1.5,3.4,3.4v2.5c0,1.9-1.5,3.4-3.4,3.4H552c-1.9,0-3.4-1.5-3.4-3.4v-2.5
		C548.6,281.7,550.1,280.1,552,280.1z"/>
	<path class="st3" d="M571.8,305.2V301c-0.1-1.5-1.4-2.6-3-2.5h-17.3c-1.5-0.1-2.8,1-2.9,2.5v4.2c0.1,1.5,1.4,2.6,2.9,2.5h17.3
		C570.4,307.8,571.7,306.7,571.8,305.2z"/>
	<path class="st3" d="M582.4,307.7H655c1.5,0.1,2.9-1,3-2.5c0,0,0,0,0,0V301c-0.1-1.5-1.5-2.6-3-2.5c0,0,0,0,0,0h-72.5
		c-1.5-0.1-2.9,1-3,2.5c0,0,0,0,0,0v4.2C579.6,306.7,580.9,307.8,582.4,307.7C582.4,307.7,582.4,307.7,582.4,307.7z"/>
	<path class="st3" d="M591.1,261.8h-39.5c-1.5-0.1-2.8,1-2.9,2.5v4.2c0.1,1.5,1.4,2.6,2.9,2.5h39.5c1.5,0.1,2.9-1,3-2.5c0,0,0,0,0,0
		v-4.2C593.9,262.8,592.6,261.6,591.1,261.8C591.1,261.8,591.1,261.8,591.1,261.8z"/>
	<path class="st3" d="M601.7,264.3v4.2c0.1,1.5,1.4,2.6,3,2.5h29.2c1.5,0.1,2.8-1,2.9-2.5v-4.2c-0.1-1.5-1.4-2.6-2.9-2.5h-29.2
		C603.1,261.7,601.8,262.8,601.7,264.3z"/>
</g>
<g>
	<circle class="st3" cx="106.8" cy="151.1" r="33.9"/>
	<path class="st2" d="M131.2,162.7c-1.8-9.1-8.3-10.5-16.9-9.7c-0.2,0-0.4-0.1-0.4-0.3c0-0.1,0-0.3,0.1-0.4
		c2.6-2.5,3.2-6.2,2.6-10.1c-1-6.2-3.9-10.9-12.8-9.4s-10.1,6.9-9,13.1c0.7,3.9,2.5,7.2,5.7,8.7c0.2,0.1,0.3,0.3,0.2,0.5
		c-0.1,0.1-0.1,0.2-0.3,0.2c-8.3,2-14,5.6-12.8,14.7c0.1,0.4,0.3,0.8,0.6,1c12.2,10.1,30.3,8.4,40.4-3.8c0.9-1.1,1.7-2.2,2.5-3.4
		C131.2,163.5,131.3,163.1,131.2,162.7z"/>
	<path class="st1" d="M118.7,103.4c-4.4-2.1-9-3.7-13.7-4.8c0.1-0.3,0.1-0.6,0.2-0.9c0.4-4.5-2.8-8.4-7.3-8.9c0,0,0,0,0,0
		c-4.6-0.4-9.2-0.4-13.8,0.1c-1.4-3.4-5.1-5.3-8.7-4.5c-8,1.8-15.6,5.1-22.3,9.9l-1.3,0.9c-0.4,0.3-0.8,0.7-1.3,1L48,98.2
		c-1.6,1.5-3.1,3.1-4.6,4.8c-2.9,3.4-5.4,7.2-7.3,11.3c-2.6,5.7-4.2,11.8-4.7,18l0,0c-1,9.1-0.3,14.2-2.1,18.5
		c-1,1.7-2.1,3.4-3.5,4.9c-0.4,0.4-0.7,0.7-1,1.1c-1.9,1.9-4.2,3.5-6.7,4.6l-17.4,8.3c-2.4,1.1,0.6,12.4,6.7,25.1
		s14.1,24.8,16.4,23.7l17.3-8.6c6.3-3,12.2-7.5,29.3-5.3l0.9,0.2c0.7,0.1,1.4,0.2,2.1,0.3h0.1l0,0c1.3,0.1,2.5,0.2,3.7,0.3h2.9
		c0.5,0,1,0,1.4,0l1.4-0.1c7.3-0.7,14.3-3,20.6-6.6c4.1-2.4,5.5-7.6,3.1-11.7c-1.7-2.9-4.9-4.5-8.3-4.2h-0.4
		c-5.2,0.7-10.4,0.8-15.6,0.5l-0.9-0.1l-0.9-0.1l-1.7-0.2c-1.1-0.3-2.2-0.4-3.2-0.7s-2-0.6-3.1-1l-1.5-0.6c-0.5-0.2-0.9-0.5-1.4-0.7
		c-15.9-8.4-18.8-42,5.5-56.1c0.7-0.3,1.3-0.7,2-1l2-0.9c1.4-0.5,2.8-1.1,4.3-1.5s3-0.8,4.5-1.1l2.4-0.4l1.2-0.2l1.2-0.1
		c6.9-0.5,13.9-0.3,20.8,0.6h0.2c4.7,0.5,8.9-2.8,9.4-7.4C123.9,108.3,122,104.8,118.7,103.4L118.7,103.4z"/>
	<ellipse transform="matrix(0.9029 -0.4299 0.4299 0.9029 -81.0953 25.0748)" class="st4" cx="14.9" cy="192" rx="4.2" ry="21.2"/>
	<path class="st4" d="M82.7,197.2c-0.2-0.8-0.4-1.6-0.6-2.4c-0.2-0.8-0.6-1.6-0.9-2.3l0,0c-0.1-0.2-0.3-0.3-0.5-0.4
		c-0.4-0.1-0.8,0.2-0.9,0.6c0,0,0,0,0,0c-0.2,0.9-0.2,1.7-0.2,2.6c0,0.8,0.2,1.7,0.3,2.5c0.2,0.8,0.4,1.6,0.7,2.4
		c0.3,0.8,0.7,1.6,1.1,2.3c0.1,0.2,0.3,0.3,0.6,0.4c0.4,0,0.8-0.3,0.9-0.7c0,0,0,0,0,0l0,0c0.1-0.8,0.1-1.7,0-2.5
		C83,198.9,82.8,198.1,82.7,197.2z"/>
	<path class="st4" d="M76.3,199.9l-0.4-1.6c-0.1-0.5-0.3-1.1-0.4-1.6c-0.1-0.6-0.3-1.2-0.6-1.7v-0.1c-0.1-0.2-0.2-0.3-0.4-0.4
		c-0.4-0.2-0.9-0.1-1.1,0.3c-0.6,1.3-0.8,2.7-0.4,4.1c0.2,0.7,0.4,1.4,0.8,2c0.4,0.6,0.9,1.2,1.5,1.6c0.1,0.1,0.3,0.1,0.5,0.1
		c0.4,0,0.8-0.4,0.7-0.8c0,0,0,0,0,0v-0.2C76.6,201,76.5,200.5,76.3,199.9z"/>
	<path class="st4" d="M96,194c-1.6-4.9,6.6-7.3,8.6-2.1C106.2,196.1,98.3,200.9,96,194z"/>
	<path class="st4" d="M118.7,103.4c2.4,4.2-4,5.9-8.2-3.2C113.4,100.9,116.1,102,118.7,103.4z"/>
	<path class="st4" d="M101.6,97.1c-2.6-0.6-5.3-1-8-1.3c-1.4-0.1-2.7-0.3-4.1-0.2l-4,0.1h-0.1c-1.8,0.2-3.7,0.3-5.7,0.7
		c-0.5,0.1-1,0.2-1.4,0.3l-1.4,0.3c-0.9,0.2-1.9,0.4-2.8,0.7c-3.7,1-7.3,2.5-10.7,4.4c-6.8,3.6-12.7,8.7-17.3,14.8
		c-0.3,0.3-0.2,0.8,0.1,1.1c0.3,0.3,0.8,0.2,1.1-0.1l0,0c1.3-1.3,2.6-2.6,4-3.9s2.8-2.4,4.3-3.5c2.9-2.2,6-4.2,9.3-5.9
		c3.2-1.7,6.6-3,10.1-4l0.8,1.6c0.4,0.7,0.7,1.5,1,2.2s0.6,1.5,0.9,2.3s0.6,1.6,1,2.4v0.1c0.1,0.2,0.3,0.4,0.6,0.4
		c0.4,0.1,0.8-0.2,0.9-0.6c0.3-1.9,0.1-3.9-0.8-5.7c-0.4-0.9-0.9-1.7-1.5-2.5c-0.2-0.3-0.4-0.5-0.7-0.7l0.5-0.1l1.4-0.3
		c0.4-0.1,0.9-0.2,1.3-0.3l1.7-0.3c0.1,0.3,0.2,0.6,0.4,0.9l0.6,1.5c0.2,0.5,0.5,1,0.7,1.5c0.3,0.6,0.5,1.1,0.9,1.6v0.1
		c0.1,0.2,0.3,0.3,0.4,0.3c0.4,0.1,0.9-0.1,1-0.5c0.4-1.4,0.3-2.8-0.4-4.1c-0.3-0.6-0.6-1.1-1-1.6l1.1-0.2l3.9-0.2
		c1.3-0.1,2.6-0.1,3.9,0c2.6,0,5.3,0.2,7.9,0.6c0.4,0.1,0.8-0.2,0.9-0.6s-0.2-0.8-0.6-0.9L101.6,97.1z"/>
	<path class="st4" d="M47.2,108.3L47.2,108.3c1.2-1.1,2.4-2.3,3.6-3.4s2.5-2.1,3.8-3.1c2.6-2,5.3-3.8,8.1-5.5c2.8-1.6,5.7-3,8.8-4.2
		c0.8-0.3,1.5-0.6,2.3-0.9c0.8-0.3,1.5-0.6,2.3-0.8c1.6-0.5,3.2-0.9,4.8-1.4c0.4-0.1,0.6-0.6,0.5-0.9c-0.1-0.3-0.4-0.5-0.8-0.5
		c-1.7,0.2-3.3,0.4-5,0.7c-0.8,0.2-1.7,0.4-2.5,0.6s-1.6,0.4-2.4,0.7c-3.3,1-6.4,2.4-9.4,4.1c-1.5,0.9-2.9,1.8-4.3,2.8
		c-2.8,2-5.3,4.3-7.6,6.8c-1.1,1.3-2.2,2.6-3.2,4c-0.2,0.3-0.2,0.8,0.1,1.1C46.5,108.6,46.9,108.6,47.2,108.3L47.2,108.3z"/>
	<path class="st3" d="M102.5,147.7c0.6,0.2,1.2,0.3,1.8,0.3c0.6,0,1.3,0,1.9-0.1c0.6-0.1,1.3-0.3,1.9-0.5c0.6-0.2,1.1-0.5,1.6-0.9
		l0.2-0.1c0.3-0.3,0.8-0.2,1.1,0.1c0,0,0,0,0,0c0.1,0.2,0.2,0.4,0.2,0.6c-0.2,1.1-0.8,2-1.7,2.6c-0.8,0.6-1.7,1-2.7,1.1
		c-1,0.2-2,0.1-3-0.2c-1-0.3-1.9-1-2.4-1.9c-0.2-0.4,0-0.8,0.4-1c0.2-0.1,0.4-0.1,0.6,0L102.5,147.7z"/>
	<circle class="st3" cx="110" cy="141.5" r="1.5"/>
	<circle class="st3" cx="100.4" cy="143.1" r="1.5"/>
</g>
<g>
	<path class="st0" d="M520.6,232.2c-4.8-2.3-4.8-9.9-4.5-13.2v-0.6c0-0.4,0.1-0.8,0.1-1.3c0.1-0.9,0.2-1.8,0.2-2.7
		c0.1-1.8,0.2-3.7,0.2-5.5c0-0.3,0-0.7,0-1.1c-0.2-6.3-5.4-11.3-11.7-11.1c-0.2,0-0.4,0-0.5,0c-2,0.1-4,0.2-6,0.3
		c-6.2,0.3-12.4,0.3-18.6,0.2c-6.2-0.1-12.4-0.4-18.6-0.9c-6.3-0.5-12.5-1.3-18.6-2.6c-3.6-0.8-6.4-3.8-6.8-7.5
		c-0.4-4.4,2.6-8.5,7-9.3c6.1-1.2,12.2-2.1,18.4-2.5c6.2-0.5,12.4-0.8,18.6-0.9h1.1c-1.2-1.2-2.1-2.8-2.5-4.5
		c-0.9-4.4,1.4-8.9,5.6-10.6c0.5-0.2,1-0.4,1.5-0.6c-2.3-1.6-3.8-4.1-4-6.9c-0.2-4.1,2.1-8,5.8-9.7c1-0.5,1.9-0.9,3-1.2
		c-2.3-1.6-3.8-4.2-4-7c-0.2-4.2,2.2-8.1,6-9.8c0.9-0.4,1.7-0.8,2.7-1.1c22.9-9.1,47-1.1,68.4,12.1h15.5c2.6,0,4.7,11.5,4.7,25.6
		c0,14.2-2.1,28.5-4.7,28.5l-15.5-0.3c-6.2,3.8-11.1,7.1-16.4,9.6c-3.5,1.7-5.9,5.2-6,9.1l0,0c-0.2,2.7-0.5,2.6-1,5.3
		c-0.5,2.7-1.3,5.3-2.3,7.9c-0.5,1.3-1,2.6-1.7,3.8c-0.3,0.6-0.7,1.3-1,1.9l-0.6,1l-0.8,1.2c-2.3,4.8-8,6.8-12.8,4.5
		C520.6,232.3,520.6,232.2,520.6,232.2z"/>
	<path class="st1" d="M450.7,185.7c0.1,6.1-10,5.3-10-0.3C440.7,179.3,450.6,178.4,450.7,185.7z"/>
	<path class="st1" d="M530.2,224.8c0.1,6.1-10,5.3-10-0.3C520.2,218.4,530.1,217.5,530.2,224.8z"/>
	
		<ellipse transform="matrix(1 -4.363309e-03 4.363309e-03 1 -0.6989 2.5133)" class="st1" cx="575.7" cy="161.4" rx="4.2" ry="21.2"/>
	<ellipse class="st2" cx="574.5" cy="164.2" rx="1.7" ry="4.7"/>
	<path class="st1" d="M471.2,179.9c0.1,0.9,0.1,1.8,0,2.7v2.6v2.7c0,0.9,0,1.7,0,2.7v0.1c0,0.4-0.4,0.8-0.8,0.7
		c-0.3,0-0.5-0.1-0.6-0.4c-0.6-0.8-1-1.8-1.2-2.8c-0.2-1-0.3-2-0.3-3c0-1,0.1-2,0.4-2.9c0.2-1,0.6-1.9,1.1-2.8
		c0.2-0.4,0.7-0.5,1.1-0.3C471.1,179.4,471.2,179.7,471.2,179.9L471.2,179.9z"/>
	<path class="st1" d="M530.8,211.5c-0.5,0.1-0.9,0.1-1.4,0.1c-0.4,0-0.8-0.1-1.2-0.2c-0.4-0.1-0.8-0.2-1.2-0.3
		c-0.4-0.1-0.8-0.3-1.2-0.5l-0.1-0.1c-0.4-0.2-0.5-0.8-0.3-1.2c0.1-0.1,0.1-0.2,0.2-0.3c0.5-0.3,1-0.5,1.6-0.6
		c0.5-0.1,1.1-0.1,1.6,0c0.5,0.1,1,0.3,1.5,0.5c0.5,0.3,0.9,0.6,1.2,1.1c0.3,0.4,0.2,0.9-0.2,1.2c-0.1,0.1-0.2,0.1-0.3,0.1
		L530.8,211.5z"/>
	<path class="st1" d="M464,182.8c0.2,0.4,0.3,0.8,0.4,1.3c0.1,0.4,0.1,0.8,0.1,1.2c0,0.4,0,0.8-0.1,1.2c-0.1,0.4-0.2,0.9-0.4,1.3
		v0.1c-0.2,0.4-0.7,0.6-1.1,0.4c0,0,0,0,0,0c-0.1,0-0.2-0.1-0.3-0.2c-0.4-0.4-0.7-0.8-0.8-1.4c-0.2-0.5-0.2-1-0.2-1.5
		c0-0.5,0.1-1,0.3-1.5c0.2-0.5,0.4-1,0.8-1.3c0.3-0.3,0.9-0.4,1.2-0.1c0,0,0,0,0,0c0.1,0.1,0.1,0.2,0.2,0.3L464,182.8z"/>
	<path class="st1" d="M490.1,146.4c0.2,0.4,0.3,0.8,0.4,1.3c0.1,0.4,0.1,0.8,0.1,1.2c0,0.4,0,0.8-0.1,1.2c-0.1,0.4-0.2,0.9-0.4,1.3
		v0.1c-0.2,0.4-0.7,0.6-1.2,0.4c-0.1,0-0.2-0.1-0.3-0.2c-0.4-0.4-0.7-0.8-0.8-1.4c-0.2-0.5-0.2-1-0.2-1.5c0-0.5,0.1-1,0.2-1.4
		c0.2-0.5,0.4-1,0.8-1.4c0.3-0.3,0.9-0.3,1.2,0C490,146.1,490.1,146.2,490.1,146.4L490.1,146.4z"/>
	<path class="st1" d="M486.4,163.5c0.2,0.6,0.3,1.1,0.4,1.7c0.1,0.6,0.1,1.1,0.1,1.7c0,0.6,0,1.1-0.1,1.6c-0.1,0.6-0.2,1.1-0.4,1.7
		l0,0c-0.2,0.4-0.6,0.6-1.1,0.5c0,0,0,0,0,0c-0.2-0.1-0.3-0.2-0.4-0.3c-0.4-0.5-0.6-1.1-0.7-1.8c-0.1-0.6-0.2-1.2-0.2-1.8
		c0-0.6,0.1-1.2,0.2-1.8c0.1-0.6,0.4-1.2,0.7-1.7c0.2-0.4,0.7-0.5,1.1-0.3C486.2,163.1,486.3,163.2,486.4,163.5L486.4,163.5z"/>
	<path class="st1" d="M495.5,128.1c0.2,0.5,0.3,1.1,0.4,1.7c0.1,0.6,0.1,1.1,0.1,1.7c0,0.5,0,1.1-0.1,1.6c-0.1,0.6-0.2,1.2-0.4,1.7
		l0,0c-0.2,0.4-0.6,0.6-1.1,0.5c0,0,0,0,0,0c-0.2-0.1-0.3-0.2-0.4-0.3c-0.4-0.5-0.6-1.1-0.7-1.8c-0.1-0.6-0.2-1.2-0.2-1.8
		c0-0.6,0.1-1.2,0.2-1.8c0.1-0.6,0.4-1.2,0.7-1.7c0.2-0.4,0.8-0.5,1.1-0.3c0,0,0,0,0,0c0.1,0.1,0.2,0.2,0.3,0.4L495.5,128.1z"/>
</g>
<g>
	<path class="st3" d="M175.3,439.7c-2.3-4.8-9.9-4.8-13.2-4.5h-0.6l-1.3,0.1c-0.9,0.1-1.8,0.2-2.7,0.2c-1.8,0.1-3.7,0.2-5.5,0.2
		h-1.1c-6.3-0.2-11.3-5.4-11.1-11.7c0-0.2,0-0.4,0-0.5c0.1-2,0.2-4,0.3-6c0.3-6.2,0.3-12.4,0.2-18.6c-0.1-6.2-0.4-12.4-0.9-18.6
		c-0.5-6.3-1.3-12.5-2.6-18.6c-0.8-3.6-3.8-6.4-7.5-6.8c-4.4-0.4-8.5,2.6-9.3,7c-1.2,6.1-2,12.2-2.5,18.4
		c-0.5,6.2-0.8,12.4-0.9,18.6c0,0.4,0,0.7,0,1.1c-1.2-1.2-2.8-2.1-4.5-2.5c-4.4-0.9-8.9,1.4-10.6,5.6c-0.2,0.5-0.4,1-0.6,1.5
		c-1.6-2.3-4.1-3.8-6.9-4c-4.1-0.2-8,2.1-9.7,5.8c-0.5,1-0.9,2-1.2,3c-1.6-2.3-4.2-3.8-7-4c-4.2-0.2-8.1,2.2-9.8,6
		c-0.4,0.9-0.8,1.7-1.1,2.6c-9.1,22.9-1.1,47,12.1,68.4v19.3c0,2.6,11.5,4.7,25.6,4.7s28.5-2.1,28.5-4.7l-0.3-19.3
		c3.8-6.2,7.1-11.1,9.6-16.4s11.8-6.4,14.4-7c2.7-0.5,5.3-1.3,7.9-2.3c1.3-0.5,2.6-1,3.8-1.7c0.6-0.3,1.3-0.6,1.9-1l1-0.6l1.2-0.7
		c4.8-2.3,6.8-8.1,4.5-12.8C175.4,439.8,175.4,439.8,175.3,439.7z"/>
	<path class="st4" d="M128.8,369.6c6.1,0.1,5.3-10-0.3-10C122.3,359.6,121.4,369.5,128.8,369.6z"/>
	<path class="st4" d="M167.9,449.1c6.1,0.1,5.3-10-0.3-10C161.5,439.1,160.6,449,167.9,449.1z"/>
	<path class="st4" d="M122.7,388.7c0.9-0.5,1.8-0.9,2.8-1.1c1-0.2,1.9-0.4,2.9-0.4c1,0,2,0.1,3,0.3c1,0.2,1.9,0.6,2.8,1.2
		c0.4,0.2,0.4,0.7,0.2,1.1c0,0,0,0,0,0c-0.1,0.2-0.4,0.3-0.6,0.4h-0.1c-0.9,0-1.8,0-2.7,0h-2.6h-2.6c-0.9,0-1.8,0-2.7,0H123
		c-0.4,0-0.7-0.4-0.7-0.8c0,0,0,0,0,0C122.3,389,122.5,388.8,122.7,388.7z"/>
	<path class="st4" d="M148.7,451.5c-0.4-0.3-0.8-0.7-1.1-1.2c-0.5-0.9-0.7-2-0.6-3.1c0.1-0.6,0.3-1.1,0.6-1.5
		c0.3-0.4,0.8-0.5,1.2-0.2c0,0,0,0,0,0c0.1,0.1,0.2,0.2,0.2,0.3l0.1,0.1c0.2,0.4,0.4,0.8,0.5,1.2c0.1,0.4,0.2,0.8,0.3,1.2
		c0.1,0.4,0.1,0.8,0.2,1.2c0,0.5,0,0.9-0.1,1.4v0.2c-0.1,0.4-0.6,0.7-1,0.6C148.9,451.6,148.8,451.5,148.7,451.5z"/>
	<path class="st4" d="M155,452.2c-0.6-0.6-1.1-1.3-1.4-2c-0.3-0.7-0.6-1.5-0.8-2.3c-0.2-0.8-0.2-1.6-0.2-2.4c0-0.8,0.3-1.7,0.6-2.4
		c0.2-0.4,0.7-0.5,1.1-0.3c0.2,0.1,0.3,0.3,0.4,0.4v0.1c0.2,0.7,0.4,1.4,0.5,2.1l0.4,2c0.1,0.7,0.3,1.3,0.4,2
		c0.1,0.7,0.2,1.4,0.2,2.2v0.1c0,0.4-0.3,0.8-0.8,0.8c0,0,0,0,0,0C155.4,452.3,155.2,452.3,155,452.2z"/>
	<path class="st4" d="M125.6,381.4c0.4-0.4,0.8-0.6,1.3-0.8c1-0.3,2-0.3,2.9,0c0.5,0.2,1,0.4,1.4,0.8c0.3,0.4,0.3,0.9,0,1.2
		c-0.1,0.1-0.2,0.1-0.2,0.2h-0.1c-0.4,0.2-0.8,0.3-1.3,0.4c-0.4,0.1-0.8,0.1-1.2,0.1c-0.4,0-0.8,0-1.2-0.1c-0.4-0.1-0.9-0.2-1.3-0.4
		l-0.1-0.1c-0.4-0.2-0.6-0.7-0.4-1.1C125.4,381.5,125.5,381.4,125.6,381.4z"/>
	<path class="st4" d="M89.1,407.6c0.4-0.4,0.8-0.6,1.3-0.8c0.5-0.2,1-0.2,1.4-0.2c0.5,0,1,0.1,1.5,0.2c0.5,0.2,1,0.4,1.4,0.8
		c0.3,0.3,0.3,0.9,0,1.2c0,0,0,0,0,0c-0.1,0.1-0.2,0.1-0.3,0.2h-0.1c-0.4,0.2-0.8,0.3-1.3,0.4c-0.4,0.1-0.8,0.1-1.2,0.1
		c-0.4,0-0.8,0-1.2-0.1c-0.4-0.1-0.9-0.2-1.3-0.4l-0.1-0.1c-0.4-0.2-0.6-0.7-0.4-1.1c0,0,0,0,0,0C89,407.7,89.1,407.6,89.1,407.6z"
		/>
	<path class="st4" d="M106.4,403.8c0.5-0.3,1.1-0.6,1.7-0.7c0.6-0.1,1.2-0.2,1.8-0.2c0.6,0,1.2,0.1,1.8,0.2c0.6,0.1,1.2,0.4,1.8,0.7
		c0.4,0.3,0.5,0.8,0.2,1.2c-0.1,0.1-0.2,0.2-0.4,0.3l0,0c-0.5,0.2-1.1,0.3-1.7,0.4c-0.5,0.1-1.1,0.1-1.6,0.1c-0.6,0-1.1,0-1.7-0.1
		c-0.6-0.1-1.2-0.2-1.7-0.4h-0.1c-0.4-0.2-0.6-0.7-0.4-1.1C106.1,404,106.2,403.9,106.4,403.8z"/>
	<path class="st4" d="M71,412.9c0.5-0.3,1.1-0.6,1.7-0.7c0.6-0.1,1.2-0.2,1.8-0.2c0.6,0,1.2,0.1,1.8,0.2c0.6,0.1,1.2,0.4,1.8,0.7
		c0.4,0.3,0.5,0.8,0.2,1.2c-0.1,0.1-0.2,0.2-0.4,0.3l0,0c-0.5,0.2-1.1,0.3-1.7,0.4c-0.5,0.1-1.1,0.1-1.6,0.1c-0.6,0-1.1,0-1.7-0.1
		c-0.6-0.1-1.2-0.2-1.7-0.4h-0.1c-0.4-0.2-0.6-0.7-0.4-1.1c0,0,0,0,0,0C70.8,413.2,70.9,413,71,412.9z"/>
	<ellipse class="st4" cx="101.5" cy="499.7" rx="21.2" ry="4.2"/>
	<ellipse transform="matrix(1 -4.363309e-03 4.363309e-03 1 -2.1762 0.4588)" class="st2" cx="104.1" cy="499" rx="4.7" ry="1.7"/>
</g>
<g>
	<g id="_Groupe_">
		<path class="st3" d="M373.1,119.8c0.5,2.9-1.4,5.7-4.3,6.2c-0.1,0-0.2,0-0.3,0c-17.2,2.2-34.5,4.4-51.8,6.5l-1.5-12.7
			c17.2-2.1,34.4-4.2,51.6-6.3c2.8-0.3,5.4,1.6,5.9,4.4C372.9,118.8,373,119.2,373.1,119.8z"/>
	</g>
	<path class="st4" d="M369,5.5c-13.3-4.9-24.8-6.9-25.7-4.5l-6.7,18.1c-0.9,2.5-2.3,4.9-4,7c-0.4,0.4-0.7,0.7-1,1.1
		c-1.4,1.4-2.9,2.8-4.6,3.9c-4.2,2.2-9.3,2-18.3,3.8l0,0c-6.2,1.1-12.1,3.2-17.5,6.3c-3.9,2.2-7.5,5-10.6,8.2c-1.5,1.6-3,3.2-4.4,5
		l-1.9,2.7c-0.3,0.4-0.6,0.9-0.9,1.3l-0.8,1.4c-4.1,7.1-6.8,15-7.8,23.1c-0.5,3.7,1.8,7.2,5.3,8.3c-0.1,4.6,0.2,9.2,1.1,13.8
		c0.8,4.4,5.1,7.3,9.5,6.5c0.3-0.1,0.6-0.2,0.9-0.3c1.3,3.9,3,7.8,5,11.4c0.1,0.3,0.2,0.5,0.4,0.8c4.5,8,15.5,4.6,16.3-2.1
		c0.1-1,0.1-2-0.1-2.9v-0.2c-1.6-6.8-2.4-13.7-2.5-20.7v-1.2l0.1-1.2l0.1-2.4c0.2-1.5,0.3-3.1,0.7-4.6s0.7-2.9,1.1-4.4l0.7-2.1
		c0.3-0.7,0.6-1.4,0.8-2.1c5.2-11.3,16.1-19.1,28.5-20.4c10.6-1,27.5,13.7,22.1,30.9c0,0,0,0.1,0,0.1l-0.8,2.1
		c-0.3,0.7-0.6,1.4-0.9,2.1c-0.1,0.3-0.3,0.7-0.4,1l-0.5,1l-0.5,1c-0.2,0.3-0.3,0.7-0.5,1c-1.3,2.5-2.8,4.9-4.4,7.3
		c-4.1,5.9-7.1,6.6-8.7,11.2v0.1l0,0l0,0c-0.8,2.2-0.6,4.6,0.6,6.6c1.7,2.9,5.4,3.9,8.9,3.2l0,0c1-0.2,2-0.5,2.9-0.9l0.9-0.4
		c0.5-0.3,1-0.5,1.5-0.8s0.8-0.5,1.2-0.8c16.2-9.3,33-33.4,29.8-50.4l0,0c-1-7.8-4.2-14.8-1.7-23.2c0.2-0.5,0.3-1.1,0.5-1.6
		c0.1-0.3,0.2-0.5,0.3-0.8c1.5-4.6,3.3-8.4,3.9-10.2l7-18C395,17.3,382.3,10.4,369,5.5z"/>
	<path class="st1" d="M294.5,50.9c-2.8,2.6-5.4,5.4-7.6,8.6c-2.2,3.1-4.1,6.5-5.6,10c-1.5,3.5-2.7,7.2-3.3,11
		c-0.2,0.9-0.3,1.9-0.5,2.9l-0.2,1.4c-0.1,0.5-0.1,1-0.1,1.5c-0.1,2-0.1,3.9-0.1,5.7V92l0.3,4c0.1,1.3,0.3,2.7,0.6,4
		c0.5,2.7,1.2,5.3,2,7.9c0.1,0.4,0.5,0.6,0.9,0.5c0.4-0.1,0.7-0.5,0.6-0.9c0,0,0,0,0,0c-0.5-2.6-1-5.2-1.3-7.8
		c-0.2-1.3-0.3-2.6-0.3-3.9l-0.1-3.9c0-0.4,0-0.8,0-1.1c0.5,0.4,1.1,0.7,1.7,0.9c1.3,0.5,2.8,0.5,4.2,0c0.4-0.2,0.6-0.7,0.4-1.1
		c-0.1-0.2-0.2-0.3-0.4-0.4h-0.1c-0.5-0.3-1.1-0.5-1.7-0.7c-0.5-0.2-1-0.4-1.6-0.6l-1.6-0.5c-0.3-0.1-0.6-0.2-1-0.3
		c0-0.6,0.1-1.1,0.1-1.7s0.1-0.9,0.2-1.3l0.2-1.4c0-0.2,0-0.3,0.1-0.5c0.3,0.2,0.5,0.4,0.8,0.6c0.8,0.6,1.7,1,2.6,1.3
		c1.8,0.7,3.8,0.7,5.7,0.2c0.4-0.1,0.6-0.6,0.5-1c-0.1-0.2-0.2-0.4-0.5-0.5h0c-0.9-0.3-1.7-0.5-2.5-0.8s-1.6-0.5-2.3-0.7
		s-1.5-0.5-2.3-0.8c-0.5-0.2-1.1-0.4-1.6-0.6c0.7-3.6,1.7-7,3.1-10.4c1.4-3.4,3-6.7,5-9.8c1-1.6,2-3.1,3.1-4.6s2.3-2.9,3.5-4.3l0,0
		c0.2-0.4,0-0.8-0.3-1C295,50.8,294.7,50.8,294.5,50.9z"/>
	<path class="st1" d="M283.2,56.7c1-1.3,2-2.6,3-3.9l0,0c0.2-0.3,0.1-0.8-0.2-1c-0.3-0.2-0.7-0.2-0.9,0c-1.3,1.1-2.5,2.3-3.7,3.5
		s-2.3,2.6-3.3,3.9c-1,1.4-2,2.8-2.8,4.3c-0.9,1.5-1.7,3-2.4,4.5c-1.4,3.1-2.5,6.4-3.3,9.7c-0.2,0.8-0.4,1.7-0.5,2.5
		s-0.3,1.7-0.4,2.5c-0.2,1.7-0.2,3.4-0.3,5c0,0.4,0.3,0.8,0.7,0.8c0.4,0,0.7-0.2,0.7-0.6c0.4-1.6,0.6-3.3,1-4.9
		c0.2-0.8,0.4-1.6,0.6-2.4s0.4-1.6,0.6-2.4c0.9-3.1,2-6.2,3.4-9.1c1.4-3,3-5.8,4.7-8.5C281.2,59.4,282.2,58,283.2,56.7z"/>
	<path class="st1" d="M368.1,101c-0.3-0.6-0.7-1.2-1.3-1.7c-1-1-2.3-1.7-3.7-1.8c-0.2,0-0.4,0-0.5,0.1c-0.4,0.3-0.5,0.8-0.2,1.1
		c0,0,0,0,0,0v0.1c0.4,0.5,0.7,0.9,1.2,1.4c0.4,0.4,0.8,0.8,1.2,1.2l1.2,1.1c0.4,0.4,0.9,0.8,1.3,1.1l0.2,0.1
		c0.1,0.1,0.3,0.1,0.5,0.1c0.4,0,0.8-0.4,0.8-0.8c0,0,0,0,0,0C368.6,102.4,368.4,101.7,368.1,101z"/>
	<path class="st1" d="M364.1,106.3c-0.5-0.7-1.1-1.3-1.7-1.9c-0.6-0.6-1.3-1.1-2-1.6c-0.7-0.5-1.5-0.9-2.3-1.2
		c-0.2-0.1-0.5-0.1-0.7,0.1c-0.4,0.2-0.5,0.7-0.3,1.1c0,0,0,0,0,0l0,0c0.4,0.7,0.9,1.4,1.5,2.1c0.5,0.6,1.1,1.2,1.7,1.8
		c0.6,0.6,1.2,1.1,1.9,1.6c0.7,0.5,1.4,1,2.1,1.4l0,0c0.2,0.1,0.5,0.1,0.7,0c0.4-0.2,0.6-0.6,0.4-1
		C365.1,107.7,364.6,106.9,364.1,106.3z"/>
	<path class="st1" d="M350.6,116.1c-3.3-3.9-9.7,1.8-6.3,6.2C346.9,125.8,355.3,121.7,350.6,116.1z"/>
	<path class="st1" d="M283.8,116.7c4.4,0,8.4,5.8,6.9,10.4C290.7,127.1,287.4,126.6,283.8,116.7z"/>
	<path class="st3" d="M233.2,130.7c-7.4,1-14.7,2.1-22.1,3.1c-2.9,0.4-5,3.1-4.5,6c0,0.1,0,0.2,0.1,0.4l0,0c0.6,2.7,3.1,4.5,5.8,4.2
		c7.4-0.8,14.8-1.6,22.2-2.4c2.9-0.3,5.1-3,4.7-5.9c0-0.2,0-0.3-0.1-0.5l-0.1-0.7C238.7,132.2,236.1,130.3,233.2,130.7z"/>
	<path class="st3" d="M435,111.8c0,0,0,0.1,0,0.1c0.6,2.8,3.2,4.7,6,4.3l3.5-0.5c2.9-0.4,5-3.1,4.5-6.1c0-0.1,0-0.2-0.1-0.3l0,0
		c-0.6-2.7-3.1-4.5-5.8-4.2l-3.5,0.4c-2.9,0.3-5.1,2.9-4.8,5.9C434.9,111.5,435,111.7,435,111.8z"/>
	<path class="st3" d="M418.3,107.8c-9.3,1-18.5,2-27.8,3.1c-2.9,0.3-5,3-4.7,5.9c0,0.1,0,0.3,0.1,0.4c0.1,0.5,0.2,0.8,0.3,1.4
		c0.5,2.8,3.1,4.8,6,4.4c9.2-1.2,18.4-2.5,27.6-3.8c2.9-0.4,5-3.1,4.6-6.1c0-0.1,0-0.2-0.1-0.3c0-0.2-0.1-0.4-0.1-0.7
		C423.6,109.3,421.1,107.4,418.3,107.8z"/>
	<g id="_Groupe_2">
		<path class="st3" d="M315.2,119.8l1.5,12.7c-19.2,2.3-38.4,4.6-57.6,6.8c-2.8,0.3-5.4-1.6-5.9-4.4c-0.1-0.5-0.2-0.9-0.3-1.3
			c-0.6-2.9,1.3-5.7,4.2-6.3c0.1,0,0.2,0,0.3,0C276.8,124.8,296,122.3,315.2,119.8z"/>
	</g>
	
		<ellipse transform="matrix(0.3471 -0.9378 0.9378 0.3471 227.0919 352.5333)" class="st1" cx="366.7" cy="13.2" rx="4.2" ry="21.2"/>
	
		<ellipse transform="matrix(0.3471 -0.9378 0.9378 0.3471 227.0919 352.5333)" class="st2" cx="366.7" cy="13.2" rx="1.7" ry="4.7"/>
	<path class="st4" d="M351.6,125.5L351.6,125.5C351.6,125.5,354.3,124.2,351.6,125.5z"/>
</g>
<g>
	<path class="st4" d="M499.7,464.5c-20.1-0.8-72.6-2.4-171.8-2.4s-151.7,1.6-171.8,2.4c-5.5,0.2-9.8,4.7-9.8,10.2v13.5
		c0,5.5,4.4,10.1,9.9,10.2c26.2,0.7,100.1,2.5,171.7,2.5s145.5-1.8,171.7-2.5c5.5-0.2,9.9-4.7,9.9-10.2v-13.5
		C509.5,469.3,505.1,464.8,499.7,464.5z M500,488.2c0,0.4-0.3,0.8-0.8,0.8c-28.3,0.8-101.9,2.5-173.7,2.5c-15.1,0-30.3-0.1-45.1-0.2
		v0c-53.8-0.5-101.5-1.7-123.2-2.3c-0.4,0-0.8-0.4-0.8-0.8c-1.2-4.3-1.2-9,0-13.3v-0.2c0-0.4,0.3-0.8,0.8-0.8
		c15-0.6,52.9-1.8,123.2-2.3v0c13.8-0.1,28.9-0.1,45.1-0.1c101.9,0,155.5,1.7,173.7,2.4c0.4,0,0.8,0.4,0.8,0.8v0.2
		C501.3,479.2,501.3,483.8,500,488.2z"/>
	<g>
		<path class="st1" d="M280.5,471.7c-70.3,0.4-108.2,1.7-123.2,2.3c-0.4,0-0.8,0.4-0.8,0.8v0.2c-1.2,4.3-1.2,9,0,13.3l0,0
			c0,0.4,0.3,0.8,0.8,0.8c21.7,0.6,69.4,1.8,123.2,2.3V471.7z"/>
		<path class="st3" d="M499.3,474c-18.2-0.7-71.8-2.4-173.7-2.4c-16.2,0-31.2,0-45.1,0.1v19.6c14.8,0.1,30,0.2,45.1,0.2
			c71.8,0,145.4-1.8,173.7-2.5c0.4,0,0.8-0.4,0.8-0.8l0,0c1.2-4.3,1.2-9,0-13.3v-0.2C500,474.3,499.7,474,499.3,474z"/>
	</g>
	<circle class="st2" cx="279.3" cy="482.2" r="14.2"/>
</g>
<g>
	<path class="st0" d="M391.6,602.7l-8.2-13.2c-4.1-7.3-0.9-14.1-7.2-34.2c0-0.1-0.1-0.2-0.1-0.3c-0.6-2-1.3-4-2-6l0,0
		c-0.2-0.5-0.4-1-0.6-1.4c-0.6-1.4-1.2-2.8-1.9-4.2c-1.8-3.8-4-7.3-6.6-10.7c-2.5-3.4-5.5-6.4-8.9-9c-3.7-2.8-8.9-2.2-11.9,1.2
		c-0.7-0.6-1.3-1.1-2-1.7c-2.1-1.6-4.9-2.2-7.5-1.5c-2.3,0.6-4.2,2.1-5.4,4.2c-0.5-0.5-1.1-0.9-1.7-1.4c-2.1-1.6-4.9-2.2-7.5-1.5
		c-1,0.3-2,0.7-2.9,1.4c-1.3-3.2-2.6-6.3-4.1-9.4l-1.1-2.2l-1.2-2.2c-0.8-1.5-1.6-2.9-2.4-4.3c-1.7-2.8-3.4-5.7-5.4-8.4
		c-3.8-5.5-8.1-10.6-12.9-15.2c-3.4-3.2-8.8-3.1-12,0.3c-2.3,2.5-3,6.1-1.7,9.2l0.2,0.4c2.4,5.6,5.1,10.9,7.5,16.3
		c1.3,2.7,2.5,5.4,3.7,8l1.8,4l0.9,2l0.9,2c2.4,5.4,4.7,10.8,6.9,16.3l1,2.4c-0.7,0.5-1.4,1-2,1.7c-3.3,3.7-5.9,7.9-7.7,12.5
		c-1,2.6-1.8,5.3-2.2,8c-0.5,3.3-0.4,6.6,0.1,9.9c0.7,3.9,2.5,7.6,5,10.7c2.5,3,5.6,5.4,9.2,6.9c0.6,0.3,1.2,0.5,1.8,0.7l0,0
		c30.1,11.2,29.3,15.3,33.5,22.5l7.9,13.4c1.3,2.2,12.3-1.8,24.5-9S392.9,604.9,391.6,602.7z"/>
	
		<ellipse transform="matrix(0.8718 -0.4898 0.4898 0.8718 -253.4142 258.14)" class="st1" cx="366.5" cy="613.3" rx="21.2" ry="4.2"/>
	
		<ellipse transform="matrix(0.8718 -0.4898 0.4898 0.8718 -253.4142 258.14)" class="st2" cx="366.5" cy="613.3" rx="4.7" ry="1.7"/>
	<path class="st1" d="M289.7,494.8c6.2-3.3,0.2-11.3-4.7-8.8C279.5,488.7,283.3,498.3,289.7,494.8z"/>
	<path class="st1" d="M300,545.6c1.1,1.6,2,3.3,2.9,5.1c0.9,1.7,1.7,3.5,2.4,5.3s1.4,3.6,2,5.5c0.6,1.9,1,3.8,1.3,5.8
		c0,0.4-0.2,0.8-0.7,0.8c-0.3,0-0.6-0.1-0.8-0.4l0,0c-0.8-1.8-1.6-3.5-2.3-5.3s-1.5-3.5-2.3-5.3s-1.4-3.6-2.1-5.4s-1.3-3.6-1.8-5.5
		l0,0c-0.1-0.4,0.1-0.8,0.6-0.9C299.5,545.2,299.8,545.3,300,545.6L300,545.6z"/>
	<path class="st1" d="M320.1,525.8c0.4,0.3,0.8,0.7,1.1,1.2c0.3,0.4,0.5,0.9,0.7,1.3c0.2,0.5,0.3,1,0.4,1.5c0.1,0.6,0.1,1.1,0,1.7
		c-0.1,0.4-0.6,0.7-1,0.6c-0.1,0-0.3-0.1-0.4-0.2h0c-0.4-0.3-0.7-0.7-1-1.2c-0.3-0.4-0.5-0.9-0.7-1.3c-0.2-0.5-0.3-0.9-0.4-1.4
		c-0.1-0.5-0.1-1.1-0.1-1.6l0,0c0.1-0.5,0.5-0.8,1-0.8c0,0,0,0,0,0C319.9,525.7,320,525.7,320.1,525.8z"/>
	<path class="st1" d="M298.1,514.3c0.6-0.6,1.2-1.2,1.9-1.7c0.7-0.5,1.4-0.9,2.1-1.3c0.7-0.4,1.5-0.7,2.3-1c0.8-0.3,1.7-0.4,2.6-0.5
		c0.4,0,0.8,0.3,0.8,0.8c0,0.2-0.1,0.5-0.3,0.6l0,0c-1.3,1-2.6,1.9-4.1,2.7c-0.7,0.4-1.5,0.7-2.2,1c-0.8,0.3-1.6,0.5-2.4,0.7l0,0
		c-0.4,0.1-0.8-0.2-0.9-0.7C297.9,514.7,298,514.4,298.1,514.3z"/>
	<path class="st1" d="M297.2,507.3c0.2-0.4,0.4-0.8,0.7-1c0.6-0.5,1.3-0.9,2.1-1c0.4-0.1,0.9-0.1,1.3,0.1c0.5,0.1,0.8,0.6,0.6,1.1
		c0,0,0,0,0,0c0,0.1,0,0.1-0.1,0.2l0,0.1c-0.2,0.4-0.4,0.7-0.7,0.9c-0.3,0.2-0.6,0.4-0.9,0.6c-0.3,0.2-0.7,0.3-1,0.4
		c-0.4,0.1-0.8,0.1-1.2,0l0,0c-0.5-0.1-0.8-0.6-0.8-1.1C297.2,507.4,297.1,507.3,297.2,507.3z"/>
	<path class="st1" d="M332.6,525.9c0.5,0.3,0.9,0.6,1.3,1c0.4,0.4,0.7,0.8,0.9,1.2c0.3,0.4,0.5,0.9,0.6,1.4c0.2,0.5,0.3,1.1,0.2,1.7
		c0,0.5-0.5,0.8-0.9,0.8c-0.1,0-0.3-0.1-0.4-0.1h-0.1c-0.4-0.3-0.8-0.6-1.2-1c-0.3-0.4-0.6-0.8-0.9-1.2c-0.3-0.4-0.5-0.9-0.6-1.3
		c-0.2-0.5-0.3-1-0.3-1.6l0,0c0-0.5,0.4-0.9,0.8-0.9C332.3,525.8,332.4,525.8,332.6,525.9z"/>
	<path class="st1" d="M290.9,574.2c0.3-0.5,0.6-0.9,1-1.3c0.8-0.7,1.7-1.2,2.7-1.5c0.5-0.2,1.1-0.2,1.7-0.2c0.5,0.1,0.8,0.5,0.8,1
		c0,0.1-0.1,0.3-0.1,0.4l0,0c-0.3,0.4-0.6,0.8-1,1.1c-0.4,0.3-0.8,0.6-1.2,0.8c-0.4,0.2-0.9,0.4-1.4,0.6c-0.5,0.2-1,0.3-1.6,0.3l0,0
		c-0.5,0-0.9-0.4-0.9-0.9C290.8,574.5,290.8,574.4,290.9,574.2z"/>
	<path class="st1" d="M346.7,525.3c0.5,0.2,1,0.5,1.4,0.8c0.4,0.3,0.8,0.7,1.1,1.1c0.3,0.4,0.6,0.9,0.8,1.3c0.2,0.5,0.4,1.1,0.4,1.6
		c0,0.5-0.3,0.9-0.8,0.9c-0.1,0-0.3,0-0.4-0.1h-0.1c-0.5-0.2-0.9-0.5-1.3-0.9c-0.4-0.3-0.7-0.7-1-1.1c-0.3-0.4-0.6-0.8-0.8-1.3
		c-0.3-0.5-0.4-1-0.5-1.5l0,0c-0.1-0.5,0.2-0.9,0.7-1c0,0,0,0,0,0C346.4,525.2,346.6,525.2,346.7,525.3z"/>
</g>
<g>
	<path class="st1" d="M600.7,409.5c0.4-4,1.3-7.9,2.5-11.8l1-2.9c0.3-1,0.8-1.9,1.2-2.9s0.9-1.9,1.4-2.8c0.2-0.5,0.5-1,0.7-1.4
		l0.8-1.4c8.8-15.5,25.1-25.2,42.9-25.7c8.6-0.3,17.1,1.7,24.7,5.8c4.3,2.5,5.7,8,3.2,12.3c-2,3.4-6.1,5.1-10,4.2l-0.5-0.1
		c-5.3-1.5-10.8-2-16.3-1.5c-5.3,0.6-10.4,2.3-14.9,5.1c-4.5,2.8-8.4,6.6-11.5,11l-0.6,0.9c-0.2,0.3-0.4,0.6-0.5,0.9
		c-0.4,0.6-0.8,1.2-1.1,1.8s-0.7,1.2-1,1.9l-1,2c-1.3,2.7-2.3,5.5-3.4,8.4l-0.2,0.4c-1.7,4.7-6.9,7-11.6,5.3
		C602.7,417.5,600.3,413.6,600.7,409.5L600.7,409.5z"/>
	<path class="st1" d="M608.8,420.7c0.4-4,1.3-7.9,2.4-11.8l1-2.9c0.4-1,0.8-1.9,1.2-2.9s0.9-1.9,1.3-2.8c0.2-0.5,0.5-0.9,0.7-1.4
		l0.8-1.4c8.8-15.5,25.1-25.2,42.9-25.7c8.6-0.3,17.1,1.7,24.8,5.8c4.3,2.5,5.8,8,3.3,12.3c-2,3.5-6.1,5.2-10,4.2l-0.5-0.1
		c-5.3-1.5-10.8-2-16.3-1.5c-5.3,0.6-10.4,2.3-14.9,5c-4.5,2.8-8.5,6.6-11.5,11l-0.6,0.9c-0.2,0.3-0.4,0.6-0.6,0.9
		c-0.4,0.6-0.8,1.2-1.1,1.8s-0.7,1.2-1,1.9l-1,2c-1.3,2.6-2.3,5.5-3.4,8.4l-0.2,0.4c-1.7,4.7-6.9,7-11.6,5.3
		C610.8,428.7,608.4,424.9,608.8,420.7L608.8,420.7z"/>
	<path class="st1" d="M589.4,397.4c0.4-4,1.2-8,2.4-11.8l1-2.9c0.3-1,0.8-1.9,1.2-2.9s0.9-1.9,1.3-2.8c0.2-0.5,0.5-0.9,0.7-1.4
		l0.8-1.4c8.7-15.5,25-25.3,42.8-25.9c8.6-0.3,17.2,1.7,24.8,5.7c4.3,2.5,5.8,8,3.3,12.3c-2,3.5-6.1,5.2-10,4.2l-0.5-0.1
		c-5.3-1.5-10.8-2-16.3-1.4c-5.3,0.6-10.4,2.4-14.9,5.1c-4.5,2.8-8.4,6.6-11.4,11.1L614,386c-0.2,0.3-0.4,0.6-0.5,0.9
		c-0.4,0.6-0.8,1.2-1.1,1.8s-0.7,1.2-1,1.9l-1,2c-1.3,2.7-2.3,5.5-3.4,8.4l-0.2,0.4c-1.7,4.7-6.9,7.1-11.5,5.4
		C591.4,405.4,589,401.6,589.4,397.4L589.4,397.4z"/>
	<path class="st4" d="M615.9,365c0,0-3.6,51.4,24.7,48.5s31.9-37.2,31.9-37.2s-20.1-30.3-38.8-23.6S615.9,365,615.9,365z"/>
	<path class="st1" d="M662.9,470.3c13.6-3.8,24.1-9,23.4-11.5l-4.2-14.9c-4.5-17.7-6.3-25.9,1.9-42.1l0.3-0.5
		c0.5-0.8,0.9-1.7,1.3-2.6v-0.1c0.7-1.3,1.3-2.7,1.7-4.2c0.1-0.2,0.2-0.4,0.2-0.6c1.8-5.7,2.2-11.7,1.1-17.5
		c-1.1-5.5-3.4-10.6-6.7-15.2c-2.8-3.9-6.2-7.4-9.9-10.5c-3.4-2.8-7-5.4-10.7-7.7c-3.6-2.2-7.3-4.2-11.1-6c-7.3-3.5-15-6.4-22.8-8.7
		c-3.7-1.1-7.5,1-8.6,4.7c-0.8,2.8,0.2,5.9,2.6,7.6l0.1,0.1c3.2,2.3,6.4,4.4,9.5,6.5c1.6,1.1,3.1,2.2,4.7,3.2
		c1.5,1.1,3.1,2.1,4.6,3.3c5.8,4.1,11.2,8.7,16.2,13.7c2.1,2.2,3.9,4.5,5.5,7.1c1.2,1.9,2,4.1,2.4,6.3c0.2,1.9,0,3.8-0.6,5.6
		c-0.2,0.7-0.5,1.4-0.8,2.1c-6.8,14.6-30.7,27.1-36.9,5.1c-0.2-0.8-0.4-1.6-0.6-2.5c0-0.1,0-0.2,0-0.3c-0.2-1.1-0.5-2.3-0.8-3.4
		c0-0.2-0.1-0.4-0.1-0.6c-1-3.9-2-7.8-3.1-11.8c-1.2-4.2-2.6-8.4-4.3-12.4l-0.1-0.2c-1.7-3.7-6-5.3-9.7-3.6
		c-1.8,0.8-3.2,2.4-3.9,4.2c-1.5,4.6-2.4,9.3-2.5,14.2c-0.2,4.8,0.1,9.7,1,14.5c0.8,4.4,2.1,8.7,3.9,12.8c0.4,1.1,0.9,2.1,1.5,3.1
		l0.1,0.1c0.6,1.1,1.2,2.2,1.8,3.3c10.4,18.5,14.6,23,20.8,47.5l3.9,15C635,475.9,649.3,474.1,662.9,470.3z"/>
	<path class="st4" d="M609.6,373.3c7,0.5,6.3-9.4,0.8-10C604.3,362.7,602.3,372.8,609.6,373.3z"/>
	<path class="st4" d="M633.6,335.3c1-5.2-8.8-6.2-9.8-2.1C622.8,337.7,632.6,340.7,633.6,335.3z"/>
	<path class="st4" d="M661.7,346.1c0,0.4-0.1,0.8-0.2,1.1c-0.1,0.3-0.2,0.5-0.4,0.8c-0.1,0.2-0.3,0.4-0.6,0.5
		c-0.4,0.2-0.8,0.3-1.2,0.3h-0.1c-0.2,0-0.5-0.1-0.6-0.2c-0.3-0.4-0.5-0.9-0.4-1.4c0.1-0.4,0.3-0.8,0.5-1.1c0.3-0.3,0.6-0.5,1-0.6
		c0.4-0.2,0.9-0.2,1.3-0.1c0.3,0,0.5,0.3,0.5,0.6L661.7,346.1z"/>
	<path class="st4" d="M665.7,349.2c-0.4,0.7-0.8,1.5-1.3,2.1c-0.5,0.7-0.9,1.3-1.4,1.9c-0.5,0.6-1,1.2-1.5,1.8
		c-0.6,0.6-1.2,1.2-1.8,1.7l0,0c-0.2,0.1-0.4,0.1-0.6-0.1c0-0.1-0.1-0.1-0.1-0.2c-0.2-1-0.1-1.9,0.3-2.8c0.3-0.9,0.8-1.6,1.4-2.3
		c0.6-0.7,1.3-1.3,2-1.8c0.8-0.5,1.6-0.9,2.5-1.1c0.3-0.1,0.5,0.1,0.6,0.4c0,0,0,0,0,0C665.8,349,665.8,349.1,665.7,349.2
		L665.7,349.2z"/>
	<path class="st4" d="M668.7,353.9c-0.1,0.5-0.3,1-0.6,1.5c-0.2,0.4-0.5,0.8-0.8,1.2c-0.3,0.4-0.6,0.7-0.9,1
		c-0.4,0.3-0.9,0.6-1.4,0.8l0,0c-0.2,0.1-0.5,0-0.6-0.2c-0.3-0.6-0.3-1.3-0.1-2c0.2-0.6,0.5-1.1,0.9-1.5c0.4-0.4,0.8-0.8,1.3-1
		c0.5-0.3,1.1-0.5,1.7-0.5c0.3,0,0.5,0.2,0.6,0.5C668.8,353.8,668.8,353.8,668.7,353.9L668.7,353.9z"/>
	
		<ellipse transform="matrix(0.9627 -0.2707 0.2707 0.9627 -101.6616 194.8893)" class="st4" cx="655.6" cy="465.9" rx="21.1" ry="4.2"/>
	
		<ellipse transform="matrix(0.9615 -0.2748 0.2748 0.9615 -101.9407 199.0087)" class="st2" cx="659.3" cy="463.3" rx="4.7" ry="1.7"/>
	<path class="st4" d="M678.9,429.2c3.7,2.5,8.5-1.2,12.2-4.8c3.9-3.9,7.9-9.9,4.1-13.9C690.3,405.2,672.4,422.7,678.9,429.2z"/>
	<path class="st0" d="M695.1,410.5l-53.5-54.8l-17.1,17.9l53.5,54.8c0.3,0.3,0.6,0.5,0.9,0.8C672.4,422.7,690.3,405.2,695.1,410.5z"
		/>
	<path class="st3" d="M684.2,424.4c1.6,1.1,3.6-0.5,5.1-2s3.3-4.2,1.7-5.8C689,414.3,681.5,421.7,684.2,424.4z"/>
	<path class="st3" d="M595.3,317.1l-8.9-1.6c-0.9-0.3-2,0.2-2.3,1.2c-0.1,0.4-0.1,0.7,0,1.1l2.2,7.9
		C587.7,323,590.7,318.8,595.3,317.1z"/>
	<path class="st4" d="M604.9,318.8l-9.7-1.7c-4.6,1.7-7.5,5.9-9,8.5l3.2,11.5c3.5-7.6,9.6-13.6,17.2-17.1
		C606.2,319.4,605.6,319.1,604.9,318.8z"/>
	<path class="st4" d="M687.2,406.7c-1.3,0.9-2.5,1.8-3.6,2.9c-1.1,1-2.2,2.1-3.2,3.2c-1,1.1-2,2.3-2.9,3.4s-1.8,2.4-2.8,3.7l0,0
		c-0.1,0.2-0.4,0.2-0.5,0.1c-0.1-0.1-0.2-0.2-0.2-0.3c0-0.4,0-0.9,0.1-1.3c0.1-0.4,0.2-0.8,0.3-1.3c0.2-0.8,0.5-1.6,0.9-2.4
		c0.8-1.5,1.8-2.8,3-4c1.2-1.2,2.5-2.3,3.9-3.1c1.4-0.9,3.1-1.5,4.7-1.8c0.2,0,0.5,0.2,0.5,0.4C687.5,406.5,687.4,406.6,687.2,406.7
		L687.2,406.7z"/>
	<path class="st4" d="M602.3,370.9c-0.5,4.5-0.4,9.1,0,13.6c0.2,2.3,0.5,4.5,1,6.7s1.2,4.4,1.9,6.5c0.3,1.1,0.7,2.1,1.2,3.2
		s0.8,2,1.3,3.1c0.2,0.5,0.4,1,0.7,1.5l0.8,1.5c0.5,1,1,2,1.6,3c2.2,4,4.2,8.2,6,12.5c0.1,0.2,0,0.4-0.2,0.5c-0.2,0.1-0.3,0-0.4-0.1
		c-2.8-3.7-5.4-7.5-7.8-11.4c-0.6-1-1.2-2-1.8-3.1l-0.4-0.8l-0.4-0.8c-0.3-0.5-0.5-1.1-0.7-1.7c-0.4-1-0.9-2.1-1.3-3.3
		s-0.7-2.2-1-3.4c-0.6-2.3-1.1-4.6-1.4-6.9c-0.4-2.3-0.6-4.7-0.7-7c-0.3-4.6-0.1-9.3,0.7-13.8c0-0.2,0.3-0.4,0.5-0.4c0,0,0,0,0,0
		C602.2,370.5,602.3,370.7,602.3,370.9z"/>
	<path class="st4" d="M615.9,396.1c-0.5,0.3-1,0.6-1.5,0.8c-0.5,0.2-0.9,0.3-1.4,0.5c-0.5,0.1-0.9,0.2-1.4,0.2
		c-0.6,0-1.1-0.1-1.7-0.2h0c-0.3-0.1-0.4-0.3-0.4-0.6c0,0,0,0,0,0l0,0c0.2-0.7,0.6-1.2,1.2-1.6c0.5-0.3,1.1-0.6,1.7-0.6
		c0.6-0.1,1.2-0.1,1.8,0c0.6,0.1,1.2,0.3,1.7,0.7c0.2,0.2,0.3,0.5,0.1,0.7c0,0,0,0,0,0C616,396,616,396,615.9,396.1L615.9,396.1z"/>
	<path class="st4" d="M618.3,389.5c-1.1,0.3-2.1,0.5-3.2,0.6l-3,0.5c-1,0.2-2,0.3-3,0.5s-2,0.3-3.2,0.3l0,0c-0.2,0-0.4-0.2-0.4-0.4
		c0,0,0,0,0,0c0-0.1,0-0.2,0.1-0.3c0.7-0.9,1.7-1.7,2.8-2.1c1.1-0.5,2.2-0.7,3.3-0.9c1.1-0.1,2.3-0.1,3.4,0c1.1,0.1,2.2,0.4,3.3,0.9
		c0.2,0.1,0.3,0.4,0.2,0.6C618.6,389.4,618.5,389.5,618.3,389.5L618.3,389.5z"/>
	<path class="st4" d="M638.1,350.9c2.7,1.6,5.3,3.3,7.8,5.1c2.5,1.8,5,3.7,7.3,5.8c2.4,2,4.6,4.3,6.6,6.7c1,1.3,1.9,2.6,2.7,4
		c0.2,0.4,0.4,0.7,0.5,1.1c0.2,0.4,0.3,0.8,0.5,1.2c0.2,0.8,0.3,1.6,0.4,2.4c0,0.2-0.1,0.4-0.3,0.4c0,0,0,0,0,0
		c-0.1,0-0.3-0.1-0.3-0.2l0,0c-0.4-0.7-0.8-1.3-1.2-1.9c-0.2-0.3-0.4-0.6-0.6-0.8s-0.5-0.6-0.7-0.9c-0.9-1.2-1.9-2.3-2.9-3.4
		c-2-2.2-4.2-4.3-6.4-6.4s-4.5-4.1-6.9-6.1s-4.6-4.1-6.9-6.2c-0.2-0.2-0.2-0.5,0-0.6c0,0,0,0,0,0
		C637.7,350.9,637.9,350.9,638.1,350.9z"/>
	<path class="st4" d="M635,404.4c-3.2-1.5-5.8-3.8-7.7-6.8c-0.5-0.8-0.9-1.6-1.2-2.4c-0.3-0.8-0.6-1.7-0.9-2.5l-0.4-1.2
		c-0.1-0.2-0.1-0.4-0.2-0.6l-0.2-0.6c-0.2-0.8-0.4-1.5-0.7-2.3s-0.5-1.7-0.7-2.5l-0.6-2.4c-0.4-1.6-0.8-3.2-1.1-4.9
		c-0.5-3.3-1.4-6.5-2-9.8c0-0.2,0.1-0.4,0.3-0.4c0.2,0,0.3,0.1,0.4,0.2c0.7,1.5,1.3,3.1,2,4.6s1.3,3.1,1.8,4.7s1,3.2,1.5,4.8
		l0.6,2.4c0.2,0.8,0.4,1.6,0.6,2.4s0.4,1.7,0.6,2.5l0.1,0.6c0,0.2,0,0.4,0.1,0.6l0.2,1.2c0.1,0.8,0.3,1.6,0.5,2.3
		c0.2,0.7,0.6,1.5,0.9,2.2c1.5,2.8,3.8,5.2,6.5,7c0.2,0.1,0.3,0.4,0.1,0.6C635.4,404.4,635.2,404.5,635,404.4z"/>
	<path class="st0" d="M606.7,319.9c-12.6,5.2-17.2,17.1-17.2,17.1c0.2,0.6,0.5,1.1,1,1.6l78.1,80l17.1-17.9L606.7,319.9z"/>
</g>
</svg>
