<?xml version="1.0" encoding="utf-8"?>
<!-- Generator: Adobe Illustrator 24.1.1, SVG Export Plug-In . SVG Version: 6.00 Build 0)  -->
<svg version="1.1" id="teamwork_vlogging" xmlns="http://www.w3.org/2000/svg" xmlns:xlink="http://www.w3.org/1999/xlink" x="0px"
	 y="0px" viewBox="0 0 92.7 92.7" style="enable-background:new 0 0 92.7 92.7;" xml:space="preserve">
<style type="text/css">
	.st0{display:none;}
	.st1{display:inline;fill:#FFB400;}
	.st2{display:inline;fill:#FF3A00;}
	.st3{display:inline;}
	.st4{fill:#FFB400;}
	.st5{fill:#FF3A00;}
	.st6{fill:#FFFFFF;}
	.st7{fill:#00AEE0;}
	.st8{fill:#04294F;}
	.st9{display:inline;fill:#00AEE0;}
	.st10{display:inline;fill:#FFFFFF;}
	.st11{display:inline;fill:#04294F;}
	.st12{display:none;fill:#FFFFFF;}
</style>
<g class="st0">
	<path class="st1" d="M195.7,67.9c-3.1,12.1-7,27.3-24.6,44.9s-32.7,21.5-44.9,24.6c-10.1,2.6-17.5,4.5-27.9,14.9
		c22.5-0.3,42.5-0.7,59.5-1.1c4.7-1.7,9.1-2.8,13.1-3.8c10.1-2.6,17.5-4.5,27.9-14.9s12.3-17.8,15-27.9c1.2-5.2,2.8-10.4,4.7-15.5
		c0.3-12.8,0.5-27.1,0.5-42.7c0-4.6,0-9.1-0.1-13.5c-3,2.1-5.9,4.5-8.5,7.2C200.1,50.5,198.3,57.8,195.7,67.9z"/>
	<path class="st2" d="M184.1,16.4c-10.5,10.5-12.3,17.8-14.9,27.9c-3.1,12.1-7,27.3-24.6,44.9s-32.7,21.5-44.9,24.6
		c-10.1,2.6-17.5,4.5-27.9,14.9c-9,9-11.6,15.7-13.9,23.8c14.2,0,27.7-0.1,40.4-0.3c10.4-10.4,17.8-12.3,27.9-14.9
		c12.1-3.1,27.3-7,44.9-24.6s21.5-32.7,24.6-44.9c2.6-10.1,4.5-17.5,14.9-27.9c2.6-2.6,5.4-5,8.5-7.2c-0.1-11.9-0.3-23-0.6-33.1
		c-2.2,0.6-4.4,1.2-6.5,1.7C201.9,4,194.6,5.9,184.1,16.4z"/>
	<g class="st3">
		<path class="st4" d="M-45.3,129.4c10.5-10.5,12.3-17.8,14.9-27.9c3-11.8,6.7-26.3,22.9-43.2c-2.6-11.8-1.3-24.1,3.7-35l-1.4,0.4
			c-10.1,2.6-17.5,4.5-27.9,14.9S-45.4,56.3-48,66.5c-3.1,12.1-7,27.3-24.6,44.9s-32.7,21.5-44.9,24.6c-2.3,0.6-4.5,1.1-6.6,1.8
			c0.3,4.7,0.5,8.5,0.7,11.4c7,0.3,17.6,0.8,31.4,1.2c6-2.5,12.2-4.5,18.6-6C-63.1,141.8-55.8,139.9-45.3,129.4z"/>
		<path class="st5" d="M-72.5,111.4C-54.9,93.8-51.1,78.6-48,66.5c2.6-10.1,4.5-17.5,14.9-27.9s17.8-12.3,27.9-14.9l1.4-0.4
			C5.2,3.7,24.8-8.8,46.3-8.8h0.6c11.6-14.3,14.8-26.7,17.4-37c1.3-5.1,2.5-9.6,4.6-14c-7.2,0-14.8,0-22.6,0H35.2
			C32-49.7,26.5-37.8,13.3-24.5C-4.3-6.9-19.5-3.1-31.6,0c-10.2,2.6-17.5,4.5-27.9,14.9s-12.3,17.8-14.9,27.9
			c-3.1,12.1-7,27.3-24.6,44.9c-9.6,9.6-18.4,15.1-26.4,18.6c0.4,12.8,1,23.4,1.4,31.4c2.1-0.6,4.3-1.2,6.6-1.8
			C-105.3,132.8-90.1,129-72.5,111.4z"/>
		<path class="st6" d="M-74.4,42.9C-71.9,32.7-70,25.4-59.5,15S-41.7,2.6-31.6,0c12.1-3.1,27.3-7,44.9-24.6
			C26.5-37.8,32-49.6,35.2-59.9c-13.3,0-25.8,0.1-37.3,0.2C-5.4-55.1-9-50.8-13-46.9c-17.6,17.6-32.7,21.5-44.9,24.6
			C-68-19.7-75.3-17.9-85.8-7.4s-12.3,17.8-14.9,27.9c-3.1,12.1-7,27.3-24.6,44.9c-0.4,0.4-0.7,0.7-1.1,1c0.2,15,0.5,28.4,0.9,39.9
			c8-3.5,16.9-9,26.4-18.6C-81.4,70.1-77.5,55-74.4,42.9z"/>
		<path class="st7" d="M-100.7,20.5C-98.1,10.4-96.3,3-85.8-7.4S-68-19.7-57.9-22.3c12.1-3.1,27.3-7,44.9-24.6
			c4-3.9,7.6-8.2,10.9-12.8c-19,0.1-35.6,0.4-50,0.7C-64-50.9-74.4-48.2-83.3-46c-10.1,2.6-17.5,4.5-27.9,14.9
			c-10,10-12.1,17.1-14.5,26.5c-0.4,14.7-0.7,31.8-0.7,50.9c0,7,0,13.7,0.1,20.1c0.4-0.3,0.7-0.7,1.1-1
			C-107.7,47.8-103.8,32.7-100.7,20.5z"/>
		<path class="st6" d="M57.9,152.5c2.2-8.1,4.9-14.8,13.9-23.8c10.5-10.5,17.8-12.3,27.9-14.9c12.1-3.1,27.3-7,44.9-24.6
			s21.5-32.7,24.6-44.9c2.6-10.1,4.5-17.5,14.9-27.9S201.9,4,212,1.5c2.1-0.5,4.2-1.1,6.5-1.7c-0.4-14.6-0.9-27.1-1.4-37.1
			c-8.6,4.6-16.4,6.7-23.2,8.5c-10.5,2.8-18,4.9-29,15.9s-13,18.6-15.9,29c-3.3,12.3-7.4,27.6-25.4,45.5
			c-14.4,14.4-27,19.9-37.8,23.2c-9.3,9.6-21.8,15.5-35.2,16.5l-1.6,1.5c-11,11-13,18.6-15.8,29c-1.7,7.1-4.1,14-7.2,20.6
			c6.6,0,13.4,0,20.3,0L57.9,152.5z"/>
	</g>
	<g class="st3">
		<path class="st8" d="M224.9,148.6c0-0.4,0-0.7,0.1-1.1V147c0-0.3,0-0.7,0.1-1.1c0-0.2,0-0.4,0-0.6s0-0.7,0.1-1s0-0.5,0-0.8
			l0.1-1.4c0-0.4,0-0.9,0.1-1.3c0-0.3,0-0.6,0-0.8s0-0.9,0.1-1.3c0-0.2,0-0.4,0-0.7c0-0.5,0-0.9,0.1-1.4V136c0-0.5,0.1-1.1,0.1-1.6
			v-0.2c0.1-2.6,0.3-5.5,0.4-8.5v-0.2c0.6-13.2,1.2-30.1,1.6-49.9l0,0c0.1-4,0.1-8.1,0.2-12.3c0-0.5,0-0.9,0-1.4c0-0.7,0-1.5,0-2.2
			v-3.5v-1.4c0-1,0-1.9,0-2.9v-1.3c0-1.4,0-2.8,0-4.2c0-1.6,0-3.1,0-4.7c0-1.3,0-2.5,0-3.7v-0.9c0-4.3,0-8.5-0.1-12.5
			c0-0.2,0-0.4,0-0.6c0-1.1,0-2.3,0-3.4c0-0.3,0-0.5,0-0.8c0-1.1,0-2.2-0.1-3.3c0-0.3,0-0.5,0-0.8l-0.1-3.3c0-0.2,0-0.5,0-0.7
			c0-1.1,0-2.2-0.1-3.3c0-0.2,0-0.4,0-0.5c0-1.1,0-2.3-0.1-3.4V4.1c0-1.2,0-2.3-0.1-3.5V0.4c0-1.2-0.1-2.4-0.1-3.5l0,0
			c-0.2-8-0.5-15.3-0.8-21.9l0,0c0-0.7-0.1-1.4-0.1-2.1v-0.7c0-0.6,0-1.2-0.1-1.9c0-0.3,0-0.5,0-0.8c0-1.3-0.1-2.5-0.2-3.7
			c0-0.1,0-0.2,0-0.3c0-0.4,0-0.9-0.1-1.3l-0.1-1.2l-0.1-1.2c0-0.4,0-0.9-0.1-1.3s0-0.7,0-1l-0.1-1.6v-0.6l0,0V-43
			c0-0.6-0.1-1.2-0.1-1.8c0-0.1,0-0.2,0-0.3c0-0.7-0.1-1.3-0.1-1.9v-0.5c0-0.5-0.1-1.1-0.1-1.6v-0.1c0-0.6-0.1-1.3-0.1-1.8v-0.2
			c-0.1-1.5-0.2-2.9-0.3-4.1c-0.1-0.8-0.1-1.6-0.2-2.3c0-0.3,0-0.5-0.1-0.8c-0.1-0.7-0.3-1.5-0.7-2.1c-1.3-2.7-3.9-4.5-6.9-4.7
			l-1.2-0.1h-0.3l-1.4-0.1h-0.3l-1.5-0.1h-0.1l-1.7-0.1h-0.2l-3.8-0.2h-0.2l-2.1-0.1h-0.1l-2.3-0.1l0,0l-1.5-0.1l0,0
			c-8.5-0.4-19.4-0.8-33-1.1h-0.2l-2.5-0.2l0,0l-8.1-0.2h-0.1l-2.8-0.1h-0.1l-8.9-0.2h-0.1l-3-0.1h-0.1l-13-0.2h-0.1h-3.3h-0.2h-3.3
			h-0.2l-10.8-0.3h-0.1c-3.7,0-7.4-0.1-11.3-0.1h-0.2l-12-0.1h0h-6.3H81h-6.3H19.8h-3.7h-0.5h-3.8h-0.3H7.8H7.3H3.5H3.3h-5.9h-0.3
			l-5.6,0h-0.1l-5.6,0h-0.4l-5.3,0.1h-0.1l-5.2,0.1h-0.6l-4.8,0.1h-0.1l-4.8,0.1h-0.8l-4.4,0.1h-0.3l-4,0.1h-0.4l-3.5,0.1h-0.6
			l-3.5,0.1h-0.3l-3.8,0.1h-0.2l-3.3,0.1h-0.7l-3,0.1h-0.4l-6.6,0.2h-0.6l-2.9,0.1H-75l-6.1,0.2h-0.5l-2.4,0.1h-0.4l-5.5,0.2h-0.3
			l-2.3,0.1h-0.4l-4.9,0.2h-0.3l-2,0.1h-0.4l-2.1,0.1l0,0l-2.1,0.1h-0.3l-1.7,0.1h-0.4l-1.7,0.1h-0.2l-1.8,0.1h-0.3l-1.4,0.1h-0.4
			l-1.4,0.1h-0.3l-1.5,0.1h-0.2l-1.2,0.1h-0.4l-1,0h-0.4l-1.3,0.1l0,0l-1.2,0.1h-0.3h-0.8h-0.3l-1,0.1c-0.3,0-0.5,0-0.8,0.1
			c-3.5,0.5-6.3,3.2-6.8,6.7c0,0.3-0.1,0.5-0.1,0.8c0,0.4-0.1,0.9-0.1,1.3c0,0.2,0,0.3,0,0.5l-0.1,0.9c0,0.2,0,0.4,0,0.6l-0.1,0.9
			c0,0.3,0,0.5-0.1,0.8s0,0.5,0,0.8l-0.1,0.9c0,0.2,0,0.4,0,0.7c-0.1,0.8-0.1,1.6-0.1,2.4v0.4c0,0.4-0.1,0.9-0.1,1.4
			c0,0.2,0,0.4,0,0.6c0,0.5,0,1-0.1,1.5v0.6c0,0.5-0.1,1-0.1,1.6v0.4c-0.1,2.6-0.3,5.4-0.4,8.4v0.1c0,0.8-0.1,1.5-0.1,2.3v0.1
			c-0.6,13.8-1.2,31.3-1.5,52.1l0,0l0,0c0,3.8-0.1,7.7-0.1,11.7v1c0,1.6,0,3.1,0,4.7v1.5c0,1.9,0,3.9,0,5.9v4.4c0,0.4,0,0.9,0,1.3
			c0,1.1,0,2.1,0,3.1c0,0.4,0,0.8,0,1.3c0,2.8,0,5.6,0.1,8.3c0,0.4,0,0.9,0,1.3c0,1,0,2,0,2.9c0,0.4,0,0.8,0,1.2
			c0,1.3,0,2.5,0.1,3.8c0,1.6,0,3.2,0.1,4.8v1.4c0,1,0,2.1,0.1,3.1v1.6c0,1,0,1.9,0.1,2.9c0,0.5,0,1,0,1.5c0,1,0.1,2,0.1,2.9
			c0,0.4,0,0.9,0,1.3c0,1.1,0,2.1,0.1,3.2V97c0.1,4.2,0.3,8.3,0.4,12.1l0,0l0,0c0,1.4,0.1,2.8,0.2,4.2v0.8c0,0.6,0.1,1.2,0.1,1.8
			v0.8c0.1,1.3,0.1,2.6,0.2,3.8v0.1c0,0.6,0.1,1.2,0.1,1.8v0.7c0,0.6,0.1,1.1,0.1,1.7v0.2c0.1,1.1,0.1,2.2,0.2,3.3v0.6
			c0,0.5,0.1,1,0.1,1.5v0.6c0.1,1.6,0.2,3.2,0.3,4.7v0.5c0.2,3.6,0.4,6.8,0.6,9.5c0,0.1,0,0.3,0,0.4l0.1,1.3l0.1,0.9v0.4
			c0,0.4,0.1,0.8,0.1,1.2l0,0c0.1,1,0.3,2,0.8,2.9c0.3,0.7,0.7,1.3,1.2,1.8c0.2,0.2,0.3,0.4,0.5,0.5c0.7,0.7,1.5,1.2,2.4,1.6
			c0.5,0.2,0.9,0.4,1.4,0.5c0.5,0.1,1,0.2,1.5,0.2h0.9h0.2h0.8h0.4h0.7h0.5h0.4h0.6h0.5h1.3h0.4h0.7h0.5h0.9h0.3h0.9h0.2l4.8,0.2
			h0.2h1.2h0.2l1.3,0h0.1l3.4,0.1h0.1l1.7,0.1h0.2l1.8,0.1h0.2l1.7,0.1h0.4l1.6,0.1h0.3l1.8,0.1h0.4l1.8,0.1h0.4l1.8,0.1h0.6h1.6
			h0.5l1.9,0.1h0.3l2,0.1h0.6h1.8h0.5l2,0h0.1l2.3,0.1h0.7l1.9,0h0.4l2.2,0.1h0.3c14.3,0.4,30.7,0.7,49.1,1h0.7l10.5,0.1h0.4
			l5.5,0.1h0.2l11.5,0.1h0.2l18.3,0.1l0,0h6.1h17.9h9h0.1h4.4h0.1c20.9-0.1,40.2-0.3,57.6-0.6h0.3l5.6-0.1h0.5l5.4-0.1h0.4l8.7-0.2
			h0.6l2.7-0.1h0.7l2.6-0.1h0.7l3-0.1h0.2l6.4-0.2h0.2l2.8-0.1h0.5l2.4-0.1h0.6l2.3-0.1h0.5l5.6-0.2h0.2l2.5-0.1h0.4l2.2-0.1h0.5
			l2.2-0.1h0.3l2.2-0.1h0.3l4.7-0.2h0.3l1.9-0.1h0.6l1.6-0.1h0.5l1.8-0.1h0.2l4-0.2h0.2l1.6-0.1h0.5h1.3h0.5l1.2,0h0.5l1.5-0.1h0.1
			l3-0.1h0.4l1,0h0.2h1.2h0.1h1.1h0.2h1.1c2-0.1,3.9-0.9,5.3-2.3c0.4-0.3,0.7-0.7,1-1.1c0.3-0.4,0.5-0.8,0.7-1.3
			c0.1-0.2,0.2-0.5,0.3-0.7c0.3-0.7,0.4-1.5,0.5-2.2c0-0.4,0-0.9,0.1-1.4L224.9,148.6z M-123.3,149.1c-0.2-2.9-0.4-6.7-0.7-11.4
			c-0.5-8-1-18.6-1.4-31.4c-0.4-11.6-0.7-25-0.9-39.9c-0.1-6.4-0.1-13.1-0.1-20.1c0-19.1,0.3-36.2,0.7-50.9
			c2.4-9.4,4.6-16.5,14.5-26.5c10.5-10.5,17.8-12.3,27.9-14.9c8.9-2.3,19.3-4.9,31.1-13c14.4-0.3,31-0.5,50-0.7
			c11.5-0.1,24-0.2,37.3-0.2h11.1c7.8,0,15.3,0,22.6,0c15.1,0,28.9,0.2,41.6,0.3c-1.4,1.2-2.7,2.5-4.1,3.9
			C88.8-38.1,85-22.9,81.9-10.8c-0.9,4.1-2.2,8.2-3.7,12.1c-9.1-6.5-20-10-31.2-10.1h-0.6c-30.4,0-55.1,24.6-55.2,55
			c0,4.1,0.4,8.1,1.3,12.1c-16.2,16.9-19.9,31.4-22.9,43.2c-2.6,10.1-4.5,17.5-14.9,27.9s-17.8,12.3-27.9,14.9
			c-6.4,1.5-12.6,3.5-18.6,6C-105.7,149.9-116.3,149.5-123.3,149.1L-123.3,149.1z M92.7,46.3c0,25.6-20.7,46.3-46.3,46.3
			S0,71.9,0,46.3C0,20.8,20.8,0,46.4,0c0,0,0,0,0,0C71.9,0,92.7,20.8,92.7,46.3L92.7,46.3z M26,152.5c-14.9-0.1-29-0.2-42.1-0.4
			C-1.2,135.9,2.4,122,5.3,110.6c1.9-7.4,3.4-13.3,8.1-20c9.5,7.1,21.1,10.9,32.9,10.9c1.4,0,2.9-0.1,4.3-0.2
			C81,99,103.7,72.4,101.3,42.1c-0.2-2.3-0.5-4.7-1-7c11.5-14.2,14.6-26.5,17.2-36.8s4.5-17.5,14.9-27.9s17.8-12.3,27.9-14.9
			c8.9-2.3,19.4-5,31.3-13.2c11.1,0.4,19,0.8,24.2,1.1c0.3,4.4,0.7,10.9,1.1,19.3c0.5,9.9,1,22.4,1.4,37.1
			c0.3,10.1,0.5,21.1,0.6,33.1c0,4.4,0.1,8.9,0.1,13.5c0,15.6-0.2,29.9-0.5,42.7c-1.9,5-3.4,10.2-4.7,15.5
			c-2.6,10.1-4.5,17.5-14.9,27.9s-17.8,12.3-27.9,14.9c-4.1,1-8.4,2.2-13.1,3.8c-17.1,0.4-37,0.8-59.5,1.1
			c-12.7,0.1-26.1,0.2-40.4,0.3H46.4C39.4,152.5,32.6,152.5,26,152.5z"/>
	</g>
	<path class="st1" d="M46.9-8.8C58.1-8.7,69-5.2,78.2,1.3c1.5-3.9,2.8-8,3.7-12.1c3.1-12.1,7-27.3,24.6-44.9
		c1.4-1.4,2.7-2.7,4.1-3.9c-12.6-0.1-26.5-0.3-41.6-0.3c-2.2,4.5-3.3,8.9-4.6,14C61.7-35.5,58.5-23.1,46.9-8.8z"/>
	<path class="st9" d="M148.9,16.1c2.8-10.5,4.9-18,15.9-29s18.6-13,29-15.9c6.8-1.8,14.6-3.9,23.2-8.5c-0.4-8.4-0.8-14.9-1.1-19.3
		c-5.2-0.3-13.1-0.7-24.2-1.1c-11.9,8.2-22.4,10.9-31.3,13.2c-10.1,2.6-17.5,4.5-27.9,14.9s-12.3,17.8-14.9,27.9
		s-5.8,22.6-17.2,36.7c3.7,18-1.7,36.6-14.5,49.8c10.8-3.3,23.4-8.8,37.8-23.2C141.5,43.7,145.6,28.4,148.9,16.1z"/>
	<path class="st9" d="M49,102.8l1.6-1.5c-1.4,0.1-2.8,0.2-4.3,0.2c-11.9,0-23.4-3.8-32.9-10.9c-4.8,6.7-6.3,12.6-8.1,20
		c-2.9,11.4-6.5,25.3-21.3,41.5c13.1,0.2,27.2,0.3,42.1,0.4c3.1-6.6,5.5-13.5,7.2-20.6C36,121.4,38,113.8,49,102.8z"/>
	<path class="st1" d="M-114.1,158.4L-114.1,158.4z"/>
	<path class="st1" d="M-115.3,158.3h-0.3H-115.3z"/>
	<path class="st1" d="M-117.6,158.2h-0.4H-117.6z"/>
	<path class="st1" d="M-116.4,158.3h-0.5H-116.4z"/>
	<path class="st1" d="M-107.6,158.6L-107.6,158.6z"/>
	<path class="st1" d="M87.3-68.6L87.3-68.6z"/>
	<path class="st1" d="M110.8-68.4L110.8-68.4z"/>
	<path class="st1" d="M81-68.6L81-68.6z"/>
	<path class="st1" d="M-109.1,158.6L-109.1,158.6z"/>
	<path class="st1" d="M-132.1,150.3c0-0.4-0.1-0.8-0.1-1.2C-132.1,149.5-132.1,149.9-132.1,150.3z"/>
	<path class="st1" d="M-125.8,157.7c-0.5-0.1-1-0.3-1.4-0.5C-126.8,157.5-126.3,157.6-125.8,157.7z"/>
	<path class="st1" d="M-129.6,155.6c-0.2-0.2-0.3-0.3-0.5-0.5C-130,155.3-129.8,155.5-129.6,155.6z"/>
	<path class="st1" d="M-132.2,148.7l-0.1-0.9L-132.2,148.7z"/>
	<path class="st1" d="M-119.4,158.2h-0.5H-119.4z"/>
	<path class="st1" d="M-123.4,158h-0.9H-123.4z"/>
	<path class="st1" d="M-121.4,158.1h-0.7H-121.4z"/>
	<path class="st1" d="M-120.5,158.1h-0.4H-120.5z"/>
	<path class="st1" d="M-122.4,158h-0.8H-122.4z"/>
	<path class="st1" d="M99.4-68.5L99.4-68.5z"/>
	<path class="st1" d="M-106.3,158.7L-106.3,158.7z"/>
	<path class="st1" d="M-132.3,146.6c0-0.1,0-0.3,0-0.4V146.6z"/>
	<path class="st1" d="M121.7-68.2L121.7-68.2z"/>
	<path class="st1" d="M74.7-68.7L74.7-68.7z"/>
	<path class="st2" d="M-133.2,131.5V131V131.5z"/>
	<path class="st2" d="M-134.2,109.6L-134.2,109.6z"/>
	<path class="st2" d="M-133.3,129.4v-0.6V129.4z"/>
	<path class="st2" d="M50.6-68.7L50.6-68.7z"/>
	<path class="st2" d="M38.5-68.7L38.5-68.7z"/>
	<path class="st2" d="M-133.7,121.1L-133.7,121.1z"/>
	<path class="st2" d="M-133.9,117.2v-0.8V117.2z"/>
	<path class="st2" d="M-134,114.7v-0.8V114.7z"/>
	<path class="st2" d="M-132.9,136.6v-0.5V136.6z"/>
	<path class="st2" d="M74.6-68.7L74.6-68.7z"/>
	<path class="st2" d="M-133.6,123.6v-0.7V123.6z"/>
	<path class="st2" d="M-133.5,125.5L-133.5,125.5z"/>
	<path class="st2" d="M70.7-68.7L70.7-68.7z"/>
	<path class="st2" d="M60.7-68.7L60.7-68.7z"/>
	<path class="st2" d="M51.9-68.7L51.9-68.7z"/>
	<path class="st2" d="M56.5-68.7L56.5-68.7z"/>
	<path class="st2" d="M66.9-68.7L66.9-68.7z"/>
	<polygon class="st10" points="-134.2,109.6 -134.2,109.6 -134.2,109.6 	"/>
	<path class="st10" d="M11.4-68.6L11.4-68.6z"/>
	<path class="st10" d="M15.6-68.6L15.6-68.6z"/>
	<path class="st10" d="M24.2-68.7L24.2-68.7z"/>
	<path class="st10" d="M19.8-68.7L19.8-68.7z"/>
	<path class="st10" d="M33-68.7L33-68.7z"/>
	<path class="st10" d="M28.5-68.7L28.5-68.7z"/>
	<path class="st10" d="M7.3-68.6L7.3-68.6z"/>
	<path class="st10" d="M-135,80.1v-1.4V80.1z"/>
	<path class="st10" d="M3.5-68.6L3.5-68.6z"/>
	<path class="st10" d="M-134.9,84.8v-1.6V84.8z"/>
	<path class="st10" d="M37.7-68.7L37.7-68.7z"/>
	<path class="st10" d="M-134.8,89.2c0-0.5,0-1,0-1.5C-134.8,88.2-134.8,88.7-134.8,89.2z"/>
	<path class="st10" d="M-134.6,97.6v-0.9V97.6z"/>
	<path class="st10" d="M-134.7,93.5c0-0.4,0-0.9,0-1.3C-134.7,92.6-134.7,93-134.7,93.5z"/>
	<path class="st9" d="M-30.8-68.2L-30.8-68.2z"/>
	<path class="st9" d="M-36.4-68.1L-36.4-68.1z"/>
	<path class="st9" d="M-135.3,50.7L-135.3,50.7z"/>
	<path class="st9" d="M-135.3,34.2L-135.3,34.2z"/>
	<path class="st9" d="M-135.3,40.4L-135.3,40.4z"/>
	<path class="st9" d="M-135.3,55.1c0-1,0-2.1,0-3.1C-135.3,53.1-135.3,54.1-135.3,55.1z"/>
	<path class="st9" d="M-135.1,73.9c0-1.2,0-2.5-0.1-3.8C-135.1,71.4-135.1,72.6-135.1,73.9z"/>
	<path class="st9" d="M-135.2,68.9c0-1,0-1.9,0-2.9C-135.2,67-135.2,67.9-135.2,68.9z"/>
	<path class="st9" d="M-135.2,64.7c0-2.7,0-5.5-0.1-8.3C-135.2,59.2-135.2,62-135.2,64.7z"/>
	<path class="st9" d="M3.3-68.6L3.3-68.6z"/>
	<path class="st9" d="M-14.7-68.4L-14.7-68.4z"/>
	<path class="st9" d="M-20.1-68.4L-20.1-68.4z"/>
	<path class="st9" d="M-8.7-68.5L-8.7-68.5z"/>
	<path class="st9" d="M-2.9-68.5L-2.9-68.5z"/>
	<path class="st9" d="M-40.8-68.1L-40.8-68.1z"/>
	<polygon class="st9" points="-135.1,21.5 -135.1,21.5 -135.1,21.5 	"/>
	<path class="st9" d="M-25.9-68.3L-25.9-68.3z"/>
	<path class="st1" d="M122.7,160.7L122.7,160.7z"/>
	<path class="st1" d="M134.4,160.5L134.4,160.5z"/>
	<path class="st1" d="M128.7,160.6L128.7,160.6z"/>
	<path class="st1" d="M227.9,41.6c0,1.5,0,3.1,0,4.7C227.9,44.8,227.9,43.2,227.9,41.6z"/>
	<path class="st1" d="M227.9,61.9c0,0.5,0,0.9,0,1.4C227.9,62.9,227.9,62.4,227.9,61.9z"/>
	<path class="st1" d="M227.9,56.2v3.5V56.2z"/>
	<path class="st1" d="M227.9,51.9c0,1,0,2,0,2.9C227.9,53.8,227.9,52.8,227.9,51.9z"/>
	<path class="st1" d="M227.9,46.3c0,1.4,0,2.8,0,4.2C227.9,49.1,227.9,47.7,227.9,46.3z"/>
	<path class="st1" d="M227.9,37.1L227.9,37.1z"/>
	<path class="st2" d="M227.8,19.7c0,0.3,0,0.5,0,0.8C227.8,20.3,227.8,20,227.8,19.7z"/>
	<path class="st2" d="M64.8,161.3L64.8,161.3z"/>
	<path class="st2" d="M227.5,4L227.5,4z"/>
	<path class="st2" d="M227.4,0.4L227.4,0.4z"/>
	<path class="st2" d="M227.7,15.6c0,0.3,0,0.5,0,0.8C227.7,16.1,227.7,15.9,227.7,15.6z"/>
	<path class="st2" d="M227.6,11.6c0,0.2,0,0.5,0,0.7C227.6,12.1,227.6,11.9,227.6,11.6z"/>
	<path class="st2" d="M60.3,161.4L60.3,161.4z"/>
	<path class="st2" d="M227.8,23.9c0,0.2,0,0.4,0,0.6C227.8,24.3,227.8,24.1,227.8,23.9z"/>
	<path class="st2" d="M227.5,7.8c0,0.2,0,0.4,0,0.5C227.6,8.1,227.5,8,227.5,7.8z"/>
	<polygon class="st2" points="227.3,-3.1 227.3,-3.1 227.3,-3.1 	"/>
	<path class="st10" d="M226.1-34.4c0,0.1,0,0.2,0,0.3C226.1-34.2,226.1-34.3,226.1-34.4z"/>
	<path class="st10" d="M226.5-25L226.5-25z"/>
	<path class="st10" d="M225.7-42.5L225.7-42.5L225.7-42.5z"/>
	<path class="st10" d="M227.3-3.1L227.3-3.1z"/>
	<path class="st10" d="M226.3-30.4c0,0.3,0,0.5,0,0.8C226.3-29.9,226.3-30.2,226.3-30.4z"/>
	<path class="st10" d="M226.4-27.8v0.7V-27.8z"/>
	<path class="st10" d="M225.8-39.3c0,0.4,0,0.9,0.1,1.3C225.9-38.4,225.9-38.9,225.8-39.3z"/>
	<path class="st10" d="M27.2,161.3L27.2,161.3z"/>
	<path class="st10" d="M33.6,161.4L33.6,161.4z"/>
	<path class="st10" d="M40.5,161.4L40.5,161.4z"/>
	<path class="st10" d="M51.2,161.4L51.2,161.4z"/>
	<path class="st10" d="M225.9-36.9l0.1,1.2L225.9-36.9z"/>
	<path class="st10" d="M225.7-41.9l0.1,1.6L225.7-41.9z"/>
	<path class="st9" d="M225.7-42.6v-0.5V-42.6z"/>
	<polygon class="st9" points="202.2,-66.1 202.2,-66.1 202.2,-66.1 	"/>
	<path class="st9" d="M224.7-57.8c0,0.7,0.1,1.5,0.2,2.3C224.8-56.3,224.8-57.1,224.7-57.8z"/>
	<path class="st9" d="M-19.3,160.9L-19.3,160.9z"/>
	<path class="st9" d="M210.6-65.8L210.6-65.8z"/>
	<path class="st9" d="M206.7-65.9L206.7-65.9z"/>
	<path class="st9" d="M225.5-45.2c0,0.1,0,0.2,0,0.3C225.5-45,225.5-45.1,225.5-45.2z"/>
	<path class="st9" d="M-8.4,161L-8.4,161z"/>
	<path class="st9" d="M8.9,161.2L8.9,161.2z"/>
	<path class="st9" d="M-2.7,161.1L-2.7,161.1z"/>
	<path class="st9" d="M204.4-66L204.4-66z"/>
	<path class="st9" d="M212.4-65.6L212.4-65.6z"/>
	<path class="st9" d="M225.3-49.3L225.3-49.3z"/>
	<path class="st9" d="M225.4-47.6v0.5V-47.6z"/>
	<path class="st9" d="M225.1-51.4L225.1-51.4z"/>
	<path class="st9" d="M213.9-65.6L213.9-65.6z"/>
	<path class="st9" d="M215.5-65.5h0.3H215.5z"/>
	<path class="st9" d="M223.9-60.7c0.3,0.7,0.5,1.4,0.7,2.1C224.5-59.3,224.3-60,223.9-60.7z"/>
</g>
<g>
	<g>
		<path class="st6" d="M46.3,0C20.8,0,0,20.7,0,46.3s20.7,46.3,46.3,46.3c25.6,0,46.3-20.7,46.3-46.3c0,0,0,0,0,0
			C92.7,20.7,71.9,0,46.3,0L46.3,0z M29.9,27.9c0.7-3,3.7-4.8,6.6-4.1c0,0,0,0,0.1,0c3.3,0.9,8.5,2.9,16.7,7.5
			c10.2,5.8,14.5,9.7,16.2,12.1c0.8,1.2,0.9,2.8,0.1,4.1c-2.3,3.7-8.5,8.8-17.5,13.9c-6.5,3.7-12.3,6.5-16.1,7.2
			c-2.9,0.4-5.6-1.4-6.3-4.3C26.9,52.3,27,39.9,29.9,27.9L29.9,27.9z"/>
	</g>
	<path class="st7" d="M29.8,64.3c0.6,2.9,3.4,4.8,6.3,4.3c3.8-0.7,9.6-3.5,16.1-7.2c9-5.1,15.2-10.2,17.5-13.9
		c0.7-1.3,0.7-2.9-0.1-4.1c-1.8-2.4-6-6.3-16.2-12.1c-8.1-4.6-13.4-6.7-16.7-7.5c-3-0.7-6,1.1-6.7,4.1c0,0,0,0,0,0.1
		C27,39.9,27,52.3,29.8,64.3L29.8,64.3z"/>
</g>
<g class="st0">
	<path class="st2" d="M-117.4-79.9l-4.4,0.2l0,0l-0.3-4.7c-0.1-0.9-0.8-1.6-1.7-1.5c-0.3,0-0.6,0.1-0.8,0.3l-9.9,6.6
		c-0.7,0.5-0.9,1.5-0.5,2.2c0.2,0.2,0.4,0.4,0.6,0.6l10.7,5.2c0.8,0.4,1.8,0.1,2.2-0.7c0.1-0.3,0.2-0.5,0.2-0.8l-0.3-4.2l4.4-0.2
		c0.8,0,1.4-0.7,1.4-1.5S-116.6-79.9-117.4-79.9L-117.4-79.9z"/>
	<path class="st2" d="M60.8-83.4h-8.9l0,0c-0.8,0-1.5,0.7-1.5,1.5s0.7,1.5,1.5,1.5h8.9l0,0c0.8,0,1.5-0.7,1.5-1.5
		S61.6-83.4,60.8-83.4L60.8-83.4z"/>
	<path class="st2" d="M78.6-83.3l-8.9-0.1l0,0c-0.8,0-1.5,0.7-1.5,1.5s0.7,1.5,1.5,1.5l8.9,0.1l0,0c0.8-0.1,1.4-0.8,1.4-1.6
		C79.9-82.6,79.3-83.2,78.6-83.3L78.6-83.3z"/>
	<path class="st2" d="M42.9-83.5h-0.4H34c-0.8,0-1.5,0.7-1.5,1.5s0.7,1.5,1.5,1.5h8.9c0.8,0.1,1.5-0.5,1.6-1.4
		c0.1-0.8-0.5-1.5-1.4-1.6C43.1-83.5,43-83.5,42.9-83.5L42.9-83.5z"/>
	<path class="st2" d="M114.3-82.8l-8.9-0.1c-0.8,0-1.5,0.6-1.5,1.5c0,0.8,0.6,1.5,1.4,1.5c0,0,0,0,0,0l8.9,0.1l0,0
		c0.8,0,1.5-0.7,1.5-1.5S115-82.8,114.3-82.8L114.3-82.8L114.3-82.8z"/>
	<path class="st2" d="M96.4-83.1l-8.9-0.1c-0.8,0-1.5,0.6-1.5,1.4c0,0,0,0,0,0c0,0.8,0.6,1.5,1.4,1.5c0,0,0,0,0,0l8.9,0.1l0,0
		c0.8,0,1.5-0.7,1.5-1.5S97.2-83.1,96.4-83.1L96.4-83.1z"/>
	<path class="st2" d="M132.1-82.5l-8.9-0.2l0,0c-0.8,0-1.5,0.7-1.5,1.5s0.7,1.5,1.5,1.5l8.9,0.2l0,0c0.8-0.1,1.4-0.8,1.4-1.6
		C133.4-81.9,132.8-82.4,132.1-82.5z"/>
	<path class="st2" d="M7.3-83.3L7.3-83.3l-8.9,0.1c-0.8,0.1-1.4,0.8-1.4,1.6c0.1,0.7,0.6,1.3,1.4,1.4l0,0l8.9-0.1
		c0.8-0.1,1.4-0.8,1.4-1.6C8.6-82.6,8.1-83.2,7.3-83.3L7.3-83.3z"/>
	<path class="st2" d="M25.2-83.4L25.2-83.4l-8.9,0.1c-0.8,0-1.5,0.7-1.5,1.5s0.7,1.5,1.5,1.5l0,0l8.9-0.1c0.8,0.1,1.5-0.5,1.6-1.4
		c0.1-0.8-0.5-1.5-1.4-1.6C25.3-83.4,25.2-83.4,25.2-83.4L25.2-83.4z"/>
	<path class="st2" d="M-64-81.8l-8.9,0.3c-0.8,0.1-1.4,0.8-1.4,1.6c0.1,0.7,0.6,1.3,1.4,1.4l0,0l8.9-0.3c0.8,0,1.5-0.7,1.5-1.5
		C-62.5-81.2-63.2-81.9-64-81.8L-64-81.8z"/>
	<path class="st2" d="M-46.1-82.3l-8.9,0.2c-0.8,0-1.5,0.7-1.5,1.5s0.7,1.5,1.5,1.5l0,0l8.9-0.2c0.8,0,1.5-0.7,1.4-1.5
		S-45.4-82.3-46.1-82.3L-46.1-82.3L-46.1-82.3z"/>
	<path class="st2" d="M-99.6-80.6l-8.9,0.4c-0.8,0.1-1.4,0.8-1.3,1.6c0.1,0.7,0.7,1.3,1.4,1.3h0.1l8.9-0.4c0.8,0,1.4-0.7,1.4-1.5
		C-98.1-80-98.8-80.6-99.6-80.6L-99.6-80.6z"/>
	<path class="st2" d="M-81.8-81.3l-8.9,0.3c-0.8,0-1.5,0.7-1.5,1.5s0.7,1.5,1.5,1.5h0.1l8.9-0.3c0.8,0,1.4-0.7,1.4-1.5c0,0,0,0,0,0
		C-80.3-80.6-81-81.3-81.8-81.3z"/>
	<path class="st2" d="M-28.3-82.7l-8.9,0.2c-0.8,0-1.5,0.7-1.5,1.5s0.7,1.5,1.5,1.5l0,0l8.9-0.2c0.8-0.1,1.4-0.8,1.3-1.6
		C-27.1-82.1-27.7-82.7-28.3-82.7L-28.3-82.7z"/>
	<path class="st2" d="M-10.5-83l-8.9,0.1c-0.8,0-1.5,0.7-1.5,1.5s0.7,1.5,1.5,1.5l0,0c2.9-0.1,5.9-0.1,8.9-0.1
		c0.8,0,1.5-0.7,1.5-1.5C-9-82.3-9.7-83-10.5-83C-10.5-83-10.5-83-10.5-83z"/>
	<path class="st2" d="M145.3-82.2l-4.4-0.1l0,0c-0.8,0-1.5,0.7-1.5,1.5s0.7,1.5,1.5,1.5l4.4,0.1l0,0c0.8-0.1,1.4-0.8,1.4-1.6
		C146.7-81.6,146.1-82.2,145.3-82.2L145.3-82.2z"/>
	<path class="st2" d="M242.4-24.1L242.4-24.1c0.8,0,1.4-0.7,1.4-1.5l-0.2-4.4c0-0.8-0.7-1.5-1.6-1.4s-1.5,0.7-1.4,1.6l0.2,4.4
		C240.8-24.8,241.5-24.1,242.4-24.1C242.3-24.1,242.4-24.1,242.4-24.1z"/>
	<path class="st2" d="M243.5,17.1L243.5,17.1c-0.8,0-1.5,0.7-1.5,1.5c0,2.9,0.1,5.9,0.1,8.8c0,0.8,0.7,1.5,1.5,1.5l0,0
		c0.8,0,1.5-0.7,1.5-1.5c0,0,0,0,0,0c0-3,0-5.9-0.1-8.9C245,17.7,244.3,17.1,243.5,17.1z"/>
	<path class="st2" d="M242.6-18.3c-0.8,0-1.5,0.7-1.4,1.5c0,0,0,0,0,0c0.1,2.9,0.2,5.8,0.3,8.8c0,0.8,0.7,1.4,1.5,1.4l0,0
		c0.8,0,1.4-0.7,1.4-1.5c0,0,0,0,0,0c-0.1-3-0.2-6-0.3-8.9C244.1-17.6,243.4-18.3,242.6-18.3z"/>
	<path class="st2" d="M243.1-0.6c-0.8,0-1.5,0.7-1.4,1.5c0.1,2.9,0.1,5.8,0.2,8.8c0,0.8,0.7,1.5,1.5,1.5l0,0c0.8,0,1.5-0.7,1.4-1.5
		c0,0,0,0,0,0c0-3-0.1-6-0.2-8.9C244.6,0.1,243.9-0.6,243.1-0.6z"/>
	<path class="st2" d="M245.2,53.9c0-0.8-0.7-1.5-1.5-1.5l0,0c-0.8,0-1.5,0.6-1.5,1.5c0,0,0,0,0,0c0,3,0,6,0,8.8
		c0,0.8,0.6,1.5,1.5,1.5c0,0,0,0,0,0l0,0c0.8,0,1.5-0.6,1.5-1.4c0,0,0,0,0,0C245.2,59.9,245.2,57,245.2,53.9z"/>
	<path class="st2" d="M241.1,134.9h0.1c0.8,0,1.4-0.6,1.5-1.3c0.2-2.8,0.4-5.7,0.6-8.8c0-0.8-0.6-1.5-1.4-1.6s-1.5,0.6-1.6,1.4l0,0
		c-0.2,3.1-0.4,6-0.6,8.8C239.7,134.2,240.3,134.8,241.1,134.9z"/>
	<path class="st2" d="M244.7,89.3c0-0.8-0.6-1.5-1.4-1.5c0,0,0,0,0,0c-0.8,0-1.5,0.6-1.5,1.4c0,0,0,0,0,0c-0.1,3.1-0.2,6-0.3,8.8
		c0,0.8,0.6,1.5,1.4,1.5c0,0,0,0,0,0l0,0c0.8,0,1.4-0.6,1.5-1.4C244.5,95.4,244.6,92.4,244.7,89.3z"/>
	<path class="st2" d="M242.7,105.5c-0.8,0-1.5,0.6-1.5,1.4c-0.1,3.1-0.3,6.1-0.4,8.8c0,0.8,0.6,1.5,1.4,1.5h0.1
		c0.8,0,1.4-0.6,1.5-1.4c0.1-2.8,0.3-5.7,0.4-8.9C244.2,106.2,243.5,105.5,242.7,105.5z"/>
	<path class="st2" d="M243.7,34.8L243.7,34.8c-0.8,0-1.5,0.7-1.5,1.5c0,0,0,0,0,0c0,2.9,0,5.9,0,8.8c0,0.8,0.7,1.5,1.5,1.5l0,0
		c0.8,0,1.5-0.7,1.5-1.5c0-3,0-5.9,0-8.9C245.2,35.4,244.5,34.8,243.7,34.8C243.7,34.8,243.7,34.8,243.7,34.8z"/>
	<path class="st2" d="M245.1,71.6c0-0.8-0.6-1.5-1.4-1.5c0,0,0,0,0,0l0,0c-0.8,0-1.5,0.6-1.5,1.5c0,3-0.1,6-0.1,8.8
		c0,0.8,0.6,1.5,1.4,1.5c0,0,0,0,0,0l0,0c0.8,0,1.5-0.6,1.5-1.5C244.9,77.6,245,74.7,245.1,71.6z"/>
	<path class="st2" d="M245.6,147.2l-4.1-0.4c0-0.1,0.2-1.5,0.5-4.4c0.1-0.8-0.5-1.5-1.3-1.6c-0.8-0.1-1.5,0.5-1.6,1.3
		c-0.3,2.9-0.5,4.3-0.5,4.4s0,0.1,0,0.1l-4.8-0.4c-0.9-0.1-1.7,0.6-1.8,1.5c0,0.3,0,0.6,0.1,0.8l5,10.8c0.4,0.8,1.3,1.2,2.2,0.8
		c0.3-0.1,0.5-0.3,0.6-0.5l6.8-9.8c0.5-0.7,0.3-1.7-0.4-2.2C246.1,147.3,245.8,147.2,245.6,147.2z"/>
	<path class="st2" d="M97.6,174.5l-8.6,0.1c-0.8,0-1.5,0.7-1.5,1.5s0.7,1.5,1.5,1.5l0,0l8.6-0.1c0.8,0,1.5-0.7,1.5-1.5c0,0,0,0,0,0
		C99.1,175.2,98.5,174.5,97.6,174.5z"/>
	<path class="st2" d="M114.9,174.2l-8.6,0.2c-0.8,0-1.5,0.7-1.5,1.5s0.7,1.5,1.5,1.5l0,0l8.6-0.2c0.8,0,1.5-0.7,1.4-1.5c0,0,0,0,0,0
		C116.4,174.9,115.8,174.2,114.9,174.2z"/>
	<path class="st2" d="M80.4,174.7L80.4,174.7l-8.6,0.1c-0.8,0-1.5,0.7-1.5,1.5s0.7,1.5,1.5,1.5l0,0l8.6-0.1c0.8-0.1,1.4-0.8,1.4-1.6
		C81.7,175.4,81.1,174.8,80.4,174.7L80.4,174.7z"/>
	<path class="st2" d="M63.1,174.8L63.1,174.8h-8.6c-0.8,0-1.5,0.7-1.5,1.5c0,0.8,0.7,1.5,1.5,1.5l0,0h8.6c0.8-0.1,1.4-0.8,1.4-1.6
		C64.4,175.4,63.8,174.9,63.1,174.8L63.1,174.8z"/>
	<path class="st2" d="M184,172.3l-8.6,0.3c-0.8,0-1.5,0.7-1.5,1.5c0,0.8,0.7,1.5,1.5,1.5h0l8.6-0.3c0.8,0,1.4-0.7,1.4-1.5
		C185.5,173,184.9,172.3,184,172.3L184,172.3z"/>
	<path class="st2" d="M45.8,174.8h-8.6l0,0c-0.8,0.1-1.4,0.8-1.4,1.6c0.1,0.7,0.6,1.3,1.4,1.4h8.6l0,0c0.8,0,1.5-0.7,1.5-1.5
		C47.3,175.5,46.6,174.9,45.8,174.8L45.8,174.8z"/>
	<path class="st2" d="M149.5,173.4l-8.6,0.2c-0.8,0-1.5,0.7-1.5,1.5s0.7,1.5,1.5,1.5l0,0l0,0l8.6-0.2c0.8,0,1.5-0.7,1.4-1.5
		c0,0,0,0,0,0C150.9,174.1,150.3,173.4,149.5,173.4C149.5,173.4,149.5,173.4,149.5,173.4z"/>
	<path class="st2" d="M201.3,171.6l-8.6,0.3c-0.8,0-1.5,0.7-1.4,1.5s0.7,1.5,1.5,1.4l0,0h0.1l8.6-0.3c0.8,0,1.4-0.7,1.4-1.5
		c0,0,0,0,0,0C202.8,172.2,202.2,171.6,201.3,171.6C201.3,171.6,201.3,171.6,201.3,171.6z"/>
	<path class="st2" d="M166.8,172.9l-8.6,0.3c-0.8,0-1.5,0.7-1.5,1.5c0,0.8,0.7,1.5,1.5,1.5l0,0l8.6-0.3c0.8,0,1.5-0.7,1.4-1.5
		C168.2,173.5,167.5,172.8,166.8,172.9L166.8,172.9L166.8,172.9z"/>
	<path class="st2" d="M132.2,173.8l-8.6,0.2c-0.8,0-1.5,0.7-1.5,1.5c0,0.8,0.7,1.5,1.5,1.5l0,0l8.6-0.2c0.8,0,1.5-0.7,1.5-1.5
		C133.7,174.4,133,173.8,132.2,173.8L132.2,173.8L132.2,173.8z"/>
	<path class="st2" d="M-40.6,173.8l-8.6-0.2c-0.8,0-1.5,0.6-1.5,1.4s0.6,1.5,1.4,1.5l8.6,0.2l0,0c0.8,0,1.5-0.7,1.5-1.5
		C-39.2,174.5-39.8,173.8-40.6,173.8L-40.6,173.8L-40.6,173.8z"/>
	<path class="st2" d="M-57.9,173.5l-8.6-0.2c-0.8,0-1.5,0.6-1.5,1.4c0,0,0,0,0,0c0,0.8,0.6,1.5,1.4,1.5c0,0,0,0,0,0l8.6,0.2l0,0
		c0.8,0,1.5-0.7,1.5-1.5S-57.1,173.4-57.9,173.5L-57.9,173.5z"/>
	<path class="st2" d="M28.5,174.8l-8.6-0.1l0,0c-0.8,0.1-1.4,0.8-1.4,1.6c0.1,0.7,0.6,1.3,1.4,1.4l8.6,0.1l0,0
		c0.8,0,1.5-0.7,1.5-1.5S29.4,174.7,28.5,174.8L28.5,174.8z"/>
	<path class="st2" d="M-75.2,173.1l-8.6-0.2c-0.8,0-1.5,0.6-1.5,1.5c0,0.8,0.6,1.5,1.5,1.5l0,0l8.6,0.2l0,0c0.8,0,1.5-0.7,1.5-1.5
		S-74.4,173.1-75.2,173.1L-75.2,173.1z"/>
	<path class="st2" d="M-23.3,174.1L-32,174c-0.8,0-1.5,0.6-1.5,1.4c0,0,0,0,0,0c0,0.8,0.6,1.5,1.5,1.5l8.6,0.2l0,0
		c0.8,0,1.5-0.7,1.5-1.5S-22.5,174.1-23.3,174.1L-23.3,174.1z"/>
	<path class="st2" d="M-6.1,174.4l-8.6-0.1c-0.8,0-1.5,0.6-1.5,1.4c0,0,0,0,0,0c0,0.8,0.6,1.5,1.4,1.5c0,0,0,0,0,0l8.6,0.1l0,0
		c0.8-0.1,1.4-0.8,1.4-1.6C-4.8,175-5.4,174.5-6.1,174.4L-6.1,174.4z"/>
	<path class="st2" d="M11.3,174.6l-8.6-0.1c-0.8,0-1.5,0.7-1.5,1.5c0,0.8,0.7,1.5,1.5,1.5l8.6,0.1l0,0c0.8,0,1.5-0.7,1.5-1.5
		S12.1,174.5,11.3,174.6L11.3,174.6z"/>
	<path class="st2" d="M-92.3,172.7l-4.4-0.1c-0.8,0-1.5,0.6-1.5,1.4c0,0,0,0,0,0c0,0.8,0.6,1.5,1.4,1.5l4.4,0.1l0,0
		c0.8,0,1.5-0.7,1.5-1.5C-90.9,173.4-91.6,172.7-92.3,172.7L-92.3,172.7L-92.3,172.7z"/>
	<path class="st2" d="M227,170.6l-10.7-5.2c-0.8-0.4-1.8-0.1-2.2,0.7c-0.1,0.3-0.2,0.5-0.2,0.8l0.3,4.2l-4.4,0.2
		c-0.8,0-1.5,0.7-1.4,1.5s0.7,1.5,1.5,1.4h0.1l4.4-0.2l0,0l0.3,4.7c0.1,0.9,0.8,1.6,1.7,1.5c0.3,0,0.5-0.1,0.8-0.3l9.9-6.6
		c0.7-0.5,1-1.5,0.5-2.2C227.5,170.9,227.3,170.7,227,170.6z"/>
	<g class="st3">
		<path class="st5" d="M-150.9,73L-150.9,73c-0.8,0-1.5,0.7-1.5,1.5c0,0,0,0,0,0c0,1.5,0,3,0.1,4.4c0,0.8,0.7,1.5,1.5,1.5l0,0
			c0.8,0,1.5-0.7,1.4-1.5c0,0,0,0,0,0c0-1.5,0-2.9-0.1-4.4C-149.4,73.7-150.1,73-150.9,73z"/>
		<path class="st5" d="M-152.6,45.2v1c0,0.8,0.6,1.5,1.5,1.5c0,0,0,0,0,0l0,0c0.8,0,1.5-0.6,1.5-1.5c0,0,0,0,0,0v-1
			c0-2.9,0-5.7,0-8.4c0-0.8-0.6-1.5-1.5-1.5c0,0,0,0,0,0l0,0c-0.8,0-1.5,0.7-1.5,1.5l0,0C-152.5,39.5-152.6,42.3-152.6,45.2z"/>
		<path class="st5" d="M-150.4-2.4c-0.8,0-1.5,0.6-1.5,1.4c-0.1,3-0.2,6.1-0.3,9.4c0,0.8,0.6,1.5,1.4,1.5l0,0c0.8,0,1.5-0.6,1.5-1.4
			c0.1-3.3,0.1-6.4,0.3-9.4C-149-1.7-149.6-2.4-150.4-2.4z"/>
		<path class="st5" d="M-149.6-21.2c-0.8,0-1.5,0.6-1.6,1.4c-0.1,2.9-0.3,6.1-0.4,9.4c0,0.8,0.6,1.5,1.4,1.5c0,0,0,0,0,0h0.1
			c0.8,0,1.4-0.6,1.5-1.4c0.1-3.3,0.3-6.5,0.4-9.4C-148.1-20.5-148.8-21.2-149.6-21.2C-149.6-21.2-149.6-21.2-149.6-21.2z"/>
		<path class="st5" d="M-148.5-40c-0.8-0.1-1.5,0.5-1.6,1.4c-0.2,3-0.4,6.2-0.6,9.4c0,0.8,0.6,1.5,1.4,1.5h0.1
			c0.8,0,1.4-0.6,1.5-1.4c0.2-3.3,0.4-6.4,0.6-9.4C-147-39.2-147.7-39.9-148.5-40z"/>
		<path class="st5" d="M-151,28.8L-151,28.8c0.8,0,1.5-0.6,1.5-1.5c0-3.2,0-6.4,0.1-9.4c0.1-0.8-0.5-1.5-1.3-1.6s-1.5,0.5-1.6,1.3
			c0,0.1,0,0.2,0,0.2c-0.1,3-0.1,6.2-0.1,9.4C-152.5,28.2-151.8,28.8-151,28.8C-151,28.8-151,28.8-151,28.8z"/>
		<path class="st5" d="M-151,66.6L-151,66.6c0.8,0,1.5-0.7,1.5-1.5c0-3.1,0-6.2-0.1-9.4c0-0.8-0.7-1.5-1.5-1.5c0,0,0,0,0,0l0,0
			c-0.8,0-1.5,0.7-1.5,1.5c0,0,0,0,0,0c0,3.2,0,6.3,0.1,9.4C-152.4,65.9-151.8,66.6-151,66.6z"/>
		<path class="st5" d="M-139.5-54.1l-5-10.8c-0.4-0.8-1.3-1.2-2.2-0.8c-0.3,0.1-0.5,0.3-0.6,0.5l-6.8,9.8c-0.5,0.7-0.3,1.7,0.4,2.2
			c0.2,0.2,0.5,0.3,0.8,0.3l4.1,0.4c0,0.1-0.2,1.5-0.5,4.4c-0.1,0.8,0.5,1.5,1.3,1.6c0,0,0,0,0,0h0.1c0.8,0,1.4-0.6,1.5-1.3
			c0.3-2.9,0.5-4.3,0.5-4.4v-0.1l4.8,0.4c0.9,0.1,1.7-0.6,1.7-1.5C-139.3-53.6-139.3-53.9-139.5-54.1z"/>
	</g>
</g>
<g class="st0">
	<path class="st9" d="M270.5-27h120.1c1.9,0,3.4,1.5,3.4,3.4v2.5c0,1.9-1.5,3.4-3.4,3.4H270.5c-1.9,0-3.4-1.5-3.4-3.4v-2.5
		C267.1-25.4,268.6-27,270.5-27z"/>
	<path class="st9" d="M362.9-42.8v4.2c0.1,1.5,1.5,2.6,3,2.5c0,0,0,0,0,0h25.2c1.5,0.1,2.8-1,2.9-2.5v-4.2c-0.1-1.5-1.4-2.6-2.9-2.5
		h-25.3C364.3-45.4,363-44.3,362.9-42.8z"/>
	<path class="st9" d="M352.3-45.3h-82.2c-1.5-0.1-2.8,1-2.9,2.5v4.2c0.1,1.5,1.4,2.6,2.9,2.5h82.2c1.5,0.1,2.8-1,2.9-2.5v-4.2
		C355.1-44.3,353.8-45.4,352.3-45.3z"/>
	<path class="st9" d="M270.5,9.8h120.1c1.9,0,3.4,1.5,3.4,3.4v2.5c0,1.9-1.5,3.4-3.4,3.4H270.5c-1.9,0-3.4-1.5-3.4-3.4v-2.5
		C267.1,11.3,268.6,9.8,270.5,9.8z"/>
	<path class="st9" d="M290.4,34.8v-4.2c-0.1-1.5-1.4-2.6-3-2.5h-17.3c-1.5-0.1-2.8,1-2.9,2.5v4.2c0.1,1.5,1.4,2.6,2.9,2.5h17.3
		C288.9,37.5,290.2,36.3,290.4,34.8z"/>
	<path class="st9" d="M300.9,37.3h72.5c1.5,0.1,2.9-1,3-2.5c0,0,0,0,0,0v-4.2c-0.1-1.5-1.5-2.6-3-2.5c0,0,0,0,0,0h-72.5
		c-1.5-0.1-2.9,1-3,2.5c0,0,0,0,0,0v4.2C298.1,36.4,299.4,37.5,300.9,37.3C300.9,37.3,300.9,37.3,300.9,37.3z"/>
	<path class="st9" d="M309.6-8.6h-39.5c-1.5-0.1-2.8,1-2.9,2.5v4.2c0.1,1.5,1.4,2.6,2.9,2.5h39.5c1.5,0.1,2.9-1,3-2.5c0,0,0,0,0,0
		v-4.2C312.5-7.6,311.1-8.7,309.6-8.6C309.6-8.6,309.6-8.6,309.6-8.6z"/>
	<path class="st9" d="M320.2-6.1v4.2c0.1,1.5,1.4,2.6,3,2.5h29.2c1.5,0.1,2.8-1,2.9-2.5v-4.2c-0.1-1.5-1.4-2.6-2.9-2.5h-29.2
		C321.6-8.7,320.3-7.6,320.2-6.1z"/>
</g>
<g class="st0">
	<circle class="st9" cx="-174.6" cy="-119.2" r="33.9"/>
	<path class="st10" d="M-150.3-107.7c-1.8-9.1-8.3-10.5-16.9-9.7c-0.2,0-0.4-0.1-0.4-0.3c0-0.1,0-0.3,0.1-0.4
		c2.6-2.5,3.2-6.2,2.6-10.1c-1-6.2-3.9-10.9-12.8-9.4s-10.1,6.9-9,13.1c0.7,3.9,2.5,7.2,5.7,8.7c0.2,0.1,0.3,0.3,0.2,0.5
		c-0.1,0.1-0.1,0.2-0.3,0.2c-8.3,2-14,5.6-12.8,14.7c0.1,0.4,0.3,0.8,0.6,1c12.2,10.1,30.3,8.4,40.4-3.8c0.9-1.1,1.7-2.2,2.5-3.4
		C-150.3-106.9-150.2-107.3-150.3-107.7z"/>
	<path class="st2" d="M-162.7-167c-4.4-2.1-9-3.7-13.7-4.8c0.1-0.3,0.1-0.6,0.2-0.9c0.4-4.5-2.8-8.4-7.3-8.9c0,0,0,0,0,0
		c-4.6-0.4-9.2-0.4-13.8,0.1c-1.4-3.4-5.1-5.3-8.7-4.5c-8,1.8-15.6,5.1-22.3,9.9l-1.3,0.9c-0.4,0.3-0.8,0.7-1.3,1l-2.5,2.1
		c-1.6,1.5-3.1,3.1-4.6,4.8c-2.9,3.4-5.4,7.2-7.3,11.3c-2.6,5.7-4.2,11.8-4.7,18l0,0c-1,9.1-0.3,14.2-2.1,18.5
		c-1,1.7-2.1,3.4-3.5,4.9c-0.4,0.4-0.7,0.7-1,1.1c-1.9,1.9-4.2,3.5-6.6,4.6l-17.4,8.3c-2.4,1.1,0.6,12.4,6.7,25.1
		c6.1,12.8,14.1,24.8,16.4,23.7l17.3-8.6c6.3-3,12.2-7.5,29.3-5.3l0.9,0.2c0.7,0.1,1.4,0.2,2.1,0.3h0.1l0,0c1.3,0.1,2.5,0.2,3.7,0.3
		h2.9c0.5,0,1,0,1.4,0l1.4-0.1c7.3-0.7,14.3-3,20.6-6.6c4.1-2.4,5.5-7.6,3.1-11.7c-1.7-2.9-4.9-4.5-8.3-4.2h-0.4
		c-5.2,0.7-10.4,0.8-15.6,0.5l-0.9-0.1l-0.9-0.1l-1.7-0.2c-1.1-0.3-2.2-0.4-3.2-0.7s-2-0.6-3.1-1l-1.5-0.6c-0.5-0.2-0.9-0.5-1.4-0.7
		c-15.9-8.4-18.8-42,5.4-56.1c0.7-0.3,1.3-0.7,2-1l2-0.9c1.4-0.5,2.8-1.1,4.3-1.5s3-0.8,4.5-1.1l2.4-0.4l1.2-0.2l1.2-0.1
		c6.9-0.5,13.9-0.3,20.8,0.6h0.2c4.7,0.5,8.9-2.8,9.4-7.4C-157.5-162-159.4-165.5-162.7-167L-162.7-167z"/>
	
		<ellipse transform="matrix(0.9029 -0.4299 0.4299 0.9029 7.79 -122.1823)" class="st11" cx="-266.5" cy="-78.3" rx="4.2" ry="21.2"/>
	<path class="st11" d="M-198.8-73.1c-0.2-0.8-0.4-1.6-0.6-2.4c-0.2-0.8-0.6-1.6-0.9-2.3l0,0c-0.1-0.2-0.3-0.3-0.5-0.4
		c-0.4-0.1-0.8,0.2-0.9,0.6c0,0,0,0,0,0c-0.2,0.9-0.2,1.7-0.2,2.6c0,0.8,0.2,1.7,0.3,2.5c0.2,0.8,0.4,1.6,0.7,2.4
		c0.3,0.8,0.7,1.6,1.1,2.3c0.1,0.2,0.3,0.3,0.6,0.4c0.4,0,0.8-0.3,0.9-0.7c0,0,0,0,0,0l0,0c0.1-0.8,0.1-1.7,0-2.5
		C-198.5-71.5-198.6-72.3-198.8-73.1z"/>
	<path class="st11" d="M-205.1-70.5l-0.4-1.6c-0.1-0.5-0.3-1.1-0.4-1.6c-0.1-0.6-0.3-1.2-0.6-1.7v-0.1c-0.1-0.2-0.2-0.3-0.4-0.4
		c-0.4-0.2-0.9-0.1-1.1,0.3c-0.6,1.3-0.8,2.7-0.4,4.1c0.2,0.7,0.4,1.4,0.8,2c0.4,0.6,0.9,1.2,1.5,1.6c0.1,0.1,0.3,0.1,0.5,0.1
		c0.4,0,0.8-0.4,0.7-0.8c0,0,0,0,0,0v-0.2C-204.9-69.3-205-69.9-205.1-70.5z"/>
	<path class="st11" d="M-185.4-76.3c-1.6-4.9,6.6-7.3,8.6-2.1C-175.3-74.3-183.2-69.4-185.4-76.3z"/>
	<path class="st11" d="M-162.7-167c2.4,4.2-4,5.9-8.2-3.2C-168.1-169.4-165.3-168.3-162.7-167z"/>
	<path class="st11" d="M-179.8-173.3c-2.6-0.6-5.3-1-8-1.3c-1.4-0.1-2.7-0.3-4.1-0.2l-4,0.1h-0.1c-1.8,0.2-3.7,0.3-5.7,0.7
		c-0.5,0.1-1,0.2-1.4,0.3l-1.4,0.3c-0.9,0.2-1.9,0.4-2.8,0.7c-3.7,1-7.3,2.5-10.7,4.4c-6.8,3.6-12.7,8.7-17.3,14.8
		c-0.3,0.3-0.2,0.8,0.1,1.1c0.3,0.3,0.8,0.2,1.1-0.1l0,0c1.3-1.3,2.6-2.6,4-3.9c1.4-1.2,2.8-2.4,4.3-3.5c2.9-2.2,6-4.2,9.3-5.9
		c3.2-1.7,6.6-3,10.1-4l0.8,1.6c0.4,0.7,0.7,1.5,1,2.2s0.6,1.5,0.9,2.3s0.6,1.6,1,2.4v0.1c0.1,0.2,0.3,0.4,0.6,0.4
		c0.4,0.1,0.8-0.2,0.9-0.6c0.3-1.9,0.1-3.9-0.8-5.7c-0.4-0.9-0.9-1.7-1.5-2.5c-0.2-0.3-0.4-0.5-0.7-0.7l0.5-0.1l1.4-0.3
		c0.4-0.1,0.9-0.2,1.3-0.3l1.7-0.3c0.1,0.3,0.2,0.6,0.4,0.9l0.6,1.5c0.2,0.5,0.5,1,0.7,1.5c0.3,0.6,0.5,1.1,0.9,1.6v0.1
		c0.1,0.2,0.3,0.3,0.4,0.3c0.4,0.1,0.9-0.1,1-0.5c0.4-1.4,0.3-2.8-0.4-4.1c-0.3-0.6-0.6-1.1-1-1.6l1.1-0.2l3.9-0.2
		c1.3-0.1,2.6-0.1,3.9,0c2.6,0,5.3,0.2,7.9,0.6c0.4,0.1,0.8-0.2,0.9-0.6s-0.2-0.8-0.6-0.9L-179.8-173.3z"/>
	<path class="st11" d="M-234.3-162.1L-234.3-162.1c1.2-1.1,2.4-2.3,3.6-3.4c1.2-1.1,2.5-2.1,3.8-3.1c2.6-2,5.3-3.8,8.1-5.5
		c2.8-1.6,5.7-3,8.8-4.2c0.8-0.3,1.5-0.6,2.3-0.9s1.5-0.6,2.3-0.8c1.6-0.5,3.2-0.9,4.8-1.4c0.4-0.1,0.6-0.6,0.5-0.9
		c-0.1-0.3-0.4-0.5-0.8-0.5c-1.7,0.2-3.3,0.4-5,0.7c-0.8,0.2-1.7,0.4-2.5,0.6s-1.6,0.4-2.4,0.7c-3.3,1-6.4,2.4-9.4,4.1
		c-1.5,0.9-2.9,1.8-4.3,2.8c-2.8,2-5.3,4.3-7.6,6.8c-1.1,1.3-2.2,2.6-3.2,4c-0.2,0.3-0.2,0.8,0.1,1.1
		C-234.9-161.8-234.5-161.8-234.3-162.1L-234.3-162.1z"/>
	<path class="st9" d="M-179-122.6c0.6,0.2,1.2,0.3,1.8,0.3c0.6,0,1.3,0,1.9-0.1c0.6-0.1,1.3-0.3,1.9-0.5c0.6-0.2,1.1-0.5,1.6-0.9
		l0.2-0.1c0.3-0.3,0.8-0.2,1.1,0.1c0,0,0,0,0,0c0.1,0.2,0.2,0.4,0.2,0.6c-0.2,1.1-0.8,2-1.7,2.6c-0.8,0.6-1.7,1-2.7,1.1
		c-1,0.2-2,0.1-3-0.2c-1-0.3-1.9-1-2.4-1.9c-0.2-0.4,0-0.8,0.4-1c0.2-0.1,0.4-0.1,0.6,0L-179-122.6z"/>
	<circle class="st9" cx="-171.4" cy="-128.8" r="1.5"/>
	<circle class="st9" cx="-181.1" cy="-127.2" r="1.5"/>
</g>
<ellipse transform="matrix(0.9029 -0.4299 0.4299 0.9029 7.79 -122.1823)" class="st12" cx="-266.5" cy="-78.3" rx="1.7" ry="4.7"/>
<g class="st0">
	<path class="st1" d="M239.1-38.1c-4.8-2.3-4.8-9.9-4.5-13.2V-52c0-0.4,0.1-0.8,0.1-1.3c0.1-0.9,0.2-1.8,0.2-2.7
		c0.1-1.8,0.2-3.7,0.2-5.5c0-0.3,0-0.7,0-1.1c-0.2-6.3-5.4-11.3-11.7-11.1c-0.2,0-0.4,0-0.5,0c-2,0.1-4,0.2-6,0.3
		c-6.2,0.3-12.4,0.3-18.6,0.2c-6.2-0.1-12.4-0.4-18.6-0.9c-6.3-0.5-12.5-1.3-18.6-2.6c-3.6-0.8-6.4-3.8-6.8-7.5
		c-0.4-4.4,2.6-8.5,7-9.3c6.1-1.2,12.2-2.1,18.4-2.5c6.2-0.5,12.4-0.8,18.6-0.9h1.1c-1.2-1.2-2.1-2.8-2.5-4.5
		c-0.9-4.4,1.4-8.9,5.6-10.6c0.5-0.2,1-0.4,1.5-0.6c-2.3-1.6-3.8-4.1-4-6.9c-0.2-4.1,2.1-8,5.8-9.7c1-0.5,1.9-0.9,3-1.2
		c-2.3-1.6-3.8-4.2-4-7c-0.2-4.2,2.2-8.1,6-9.8c0.9-0.4,1.7-0.8,2.7-1.1c22.9-9.1,47-1.1,68.4,12.1h15.5c2.6,0,4.7,11.5,4.7,25.6
		c0,14.2-2.1,28.5-4.7,28.5l-15.5-0.3c-6.2,3.8-11.1,7.1-16.4,9.6c-3.5,1.7-5.9,5.2-6,9.1l0,0c-0.2,2.7-0.5,2.6-1,5.3
		c-0.5,2.7-1.3,5.3-2.3,7.9c-0.5,1.3-1,2.6-1.7,3.8c-0.3,0.6-0.7,1.3-1,1.9l-0.6,1l-0.8,1.2c-2.3,4.8-8,6.8-12.8,4.5
		C239.2-38.1,239.1-38.1,239.1-38.1z"/>
	<path class="st2" d="M169.2-84.7c0.1,6.1-10,5.3-10-0.3C159.2-91.1,169.1-92,169.2-84.7z"/>
	<path class="st2" d="M248.7-45.5c0.1,6.1-10,5.3-10-0.3C238.7-51.9,248.7-52.8,248.7-45.5z"/>
	
		<ellipse transform="matrix(1 -4.363309e-03 4.363309e-03 1 0.4781 1.2825)" class="st2" cx="294.2" cy="-108.9" rx="4.2" ry="21.2"/>
	<ellipse class="st10" cx="293.1" cy="-106.2" rx="1.7" ry="4.7"/>
	<path class="st2" d="M189.7-90.4c0.1,0.9,0.1,1.8,0,2.7v2.6v2.7c0,0.9,0,1.7,0,2.7v0.1c0,0.4-0.4,0.8-0.8,0.7
		c-0.3,0-0.5-0.1-0.6-0.4c-0.6-0.8-1-1.8-1.2-2.8c-0.2-1-0.3-2-0.3-3c0-1,0.1-2,0.4-2.9c0.2-1,0.6-1.9,1.1-2.8
		c0.2-0.4,0.7-0.5,1.1-0.3C189.6-90.9,189.8-90.7,189.7-90.4L189.7-90.4z"/>
	<path class="st2" d="M249.3-58.8c-0.5,0.1-0.9,0.1-1.4,0.1c-0.4,0-0.8-0.1-1.2-0.2c-0.4-0.1-0.8-0.2-1.2-0.3
		c-0.4-0.1-0.8-0.3-1.2-0.5l-0.1-0.1c-0.4-0.2-0.5-0.8-0.3-1.2c0.1-0.1,0.1-0.2,0.2-0.3c0.5-0.3,1-0.5,1.6-0.6
		c0.5-0.1,1.1-0.1,1.6,0c0.5,0.1,1,0.3,1.5,0.5c0.5,0.3,0.9,0.6,1.2,1.1c0.3,0.4,0.2,0.9-0.2,1.2c-0.1,0.1-0.2,0.1-0.3,0.1
		L249.3-58.8z"/>
	<path class="st2" d="M182.5-87.5c0.2,0.4,0.3,0.8,0.4,1.3c0.1,0.4,0.1,0.8,0.1,1.2c0,0.4,0,0.8-0.1,1.2c-0.1,0.4-0.2,0.9-0.4,1.3
		v0.1c-0.2,0.4-0.7,0.6-1.1,0.4c0,0,0,0,0,0c-0.1,0-0.2-0.1-0.3-0.2c-0.4-0.4-0.7-0.8-0.8-1.4c-0.2-0.5-0.2-1-0.2-1.5
		c0-0.5,0.1-1,0.3-1.5c0.2-0.5,0.4-1,0.8-1.3c0.3-0.3,0.9-0.4,1.2-0.1c0,0,0,0,0,0c0.1,0.1,0.1,0.2,0.2,0.3L182.5-87.5z"/>
	<path class="st2" d="M208.7-124c0.2,0.4,0.3,0.8,0.4,1.3c0.1,0.4,0.1,0.8,0.1,1.2c0,0.4,0,0.8-0.1,1.2c-0.1,0.4-0.2,0.9-0.4,1.3
		v0.1c-0.2,0.4-0.7,0.6-1.2,0.4c-0.1,0-0.2-0.1-0.3-0.2c-0.4-0.4-0.7-0.8-0.8-1.4c-0.2-0.5-0.2-1-0.2-1.5c0-0.5,0.1-1,0.2-1.4
		c0.2-0.5,0.4-1,0.8-1.4c0.3-0.3,0.9-0.3,1.2,0C208.5-124.3,208.6-124.2,208.7-124L208.7-124z"/>
	<path class="st2" d="M204.9-106.9c0.2,0.6,0.3,1.1,0.4,1.7c0.1,0.6,0.1,1.1,0.1,1.7c0,0.6,0,1.1-0.1,1.6c-0.1,0.6-0.2,1.1-0.4,1.7
		l0,0c-0.2,0.4-0.6,0.6-1.1,0.5c0,0,0,0,0,0c-0.2-0.1-0.3-0.2-0.4-0.3c-0.4-0.5-0.6-1.1-0.7-1.8c-0.1-0.6-0.2-1.2-0.2-1.8
		c0-0.6,0.1-1.2,0.2-1.8c0.1-0.6,0.4-1.2,0.7-1.7c0.2-0.4,0.7-0.5,1.1-0.3C204.7-107.3,204.8-107.2,204.9-106.9L204.9-106.9z"/>
	<path class="st2" d="M214.1-142.3c0.2,0.5,0.3,1.1,0.4,1.7c0.1,0.6,0.1,1.1,0.1,1.7c0,0.5,0,1.1-0.1,1.6c-0.1,0.6-0.2,1.2-0.4,1.7
		l0,0c-0.2,0.4-0.6,0.6-1.1,0.5c0,0,0,0,0,0c-0.2-0.1-0.3-0.2-0.4-0.3c-0.4-0.5-0.6-1.1-0.7-1.8c-0.1-0.6-0.2-1.2-0.2-1.8
		c0-0.6,0.1-1.2,0.2-1.8c0.1-0.6,0.4-1.2,0.7-1.7c0.2-0.4,0.8-0.5,1.1-0.3c0,0,0,0,0,0c0.1,0.1,0.2,0.2,0.3,0.4L214.1-142.3z"/>
</g>
<g class="st0">
	<path class="st9" d="M-106.1,169.4c-2.3-4.8-9.9-4.8-13.2-4.5h-0.6l-1.3,0.1c-0.9,0.1-1.8,0.2-2.7,0.2c-1.8,0.1-3.7,0.2-5.5,0.2
		h-1.1c-6.3-0.2-11.3-5.4-11.1-11.7c0-0.2,0-0.4,0-0.5c0.1-2,0.2-4,0.3-6c0.3-6.2,0.3-12.4,0.2-18.6c-0.1-6.2-0.4-12.4-0.9-18.6
		c-0.5-6.3-1.3-12.5-2.6-18.6c-0.8-3.6-3.8-6.4-7.5-6.8c-4.4-0.4-8.5,2.6-9.3,7c-1.2,6.1-2,12.2-2.5,18.4
		c-0.5,6.2-0.8,12.4-0.9,18.6c0,0.4,0,0.7,0,1.1c-1.2-1.2-2.8-2.1-4.5-2.5c-4.4-0.9-8.9,1.4-10.6,5.6c-0.2,0.5-0.4,1-0.6,1.5
		c-1.6-2.3-4.1-3.8-6.9-4c-4.1-0.2-8,2.1-9.7,5.8c-0.5,1-0.9,2-1.2,3c-1.6-2.3-4.2-3.8-7-4c-4.2-0.2-8.1,2.2-9.8,6
		c-0.4,0.9-0.8,1.7-1.1,2.6c-9.1,22.9-1.1,47,12.1,68.4v19.3c0,2.6,11.5,4.7,25.6,4.7s28.5-2.1,28.5-4.7l-0.3-19.3
		c3.8-6.2,7.1-11.1,9.6-16.4s11.8-6.4,14.4-7c2.7-0.5,5.3-1.3,7.9-2.3c1.3-0.5,2.6-1,3.8-1.7c0.6-0.3,1.3-0.6,1.9-1l1-0.6l1.2-0.7
		c4.8-2.3,6.8-8.1,4.5-12.8C-106.1,169.5-106.1,169.4-106.1,169.4z"/>
	<path class="st11" d="M-152.7,99.2c6.1,0.1,5.3-10-0.3-10C-159.1,89.2-160.1,99.1-152.7,99.2z"/>
	<path class="st11" d="M-113.6,178.7c6.1,0.1,5.3-10-0.3-10C-120,168.7-120.9,178.7-113.6,178.7z"/>
	<path class="st11" d="M-158.8,118.3c0.9-0.5,1.8-0.9,2.8-1.1c1-0.2,1.9-0.4,2.9-0.4c1,0,2,0.1,3,0.3c1,0.2,1.9,0.6,2.8,1.2
		c0.4,0.2,0.4,0.7,0.2,1.1c0,0,0,0,0,0c-0.1,0.2-0.4,0.3-0.6,0.4h-0.1c-0.9,0-1.8,0-2.7,0h-2.6h-2.6c-0.9,0-1.8,0-2.7,0h-0.1
		c-0.4,0-0.7-0.4-0.7-0.8c0,0,0,0,0,0C-159.1,118.6-159,118.4-158.8,118.3z"/>
	<path class="st11" d="M-132.8,181.1c-0.4-0.3-0.8-0.7-1.1-1.2c-0.5-0.9-0.7-2-0.6-3.1c0.1-0.6,0.3-1.1,0.6-1.5
		c0.3-0.4,0.8-0.5,1.2-0.2c0,0,0,0,0,0c0.1,0.1,0.2,0.2,0.2,0.3l0.1,0.1c0.2,0.4,0.4,0.8,0.5,1.2c0.1,0.4,0.2,0.8,0.3,1.2
		c0.1,0.4,0.1,0.8,0.2,1.2c0,0.5,0,0.9-0.1,1.4v0.2c-0.1,0.4-0.6,0.7-1,0.6C-132.6,181.2-132.7,181.2-132.8,181.1z"/>
	<path class="st11" d="M-126.5,181.8c-0.6-0.6-1.1-1.3-1.4-2c-0.3-0.7-0.6-1.5-0.8-2.3c-0.2-0.8-0.2-1.6-0.2-2.4
		c0-0.8,0.3-1.7,0.6-2.4c0.2-0.4,0.7-0.5,1.1-0.3c0.2,0.1,0.3,0.3,0.4,0.4v0.1c0.2,0.7,0.4,1.4,0.5,2.1l0.4,2c0.1,0.7,0.3,1.3,0.4,2
		c0.1,0.7,0.2,1.4,0.2,2.2v0.1c0,0.4-0.3,0.8-0.8,0.8c0,0,0,0,0,0C-126.1,182-126.3,181.9-126.5,181.8z"/>
	<path class="st11" d="M-155.9,111c0.4-0.4,0.8-0.6,1.3-0.8c1-0.3,2-0.3,2.9,0c0.5,0.2,1,0.4,1.4,0.8c0.3,0.4,0.3,0.9,0,1.2
		c-0.1,0.1-0.2,0.1-0.2,0.2h-0.1c-0.4,0.2-0.8,0.3-1.3,0.4c-0.4,0.1-0.8,0.1-1.2,0.1c-0.4,0-0.8,0-1.2-0.1c-0.4-0.1-0.9-0.2-1.3-0.4
		l-0.1-0.1c-0.4-0.2-0.6-0.7-0.4-1.1C-156,111.2-156,111.1-155.9,111z"/>
	<path class="st11" d="M-192.3,137.2c0.4-0.4,0.8-0.6,1.3-0.8c0.5-0.2,1-0.2,1.4-0.2c0.5,0,1,0.1,1.5,0.2c0.5,0.2,1,0.4,1.4,0.8
		c0.3,0.3,0.3,0.9,0,1.2c0,0,0,0,0,0c-0.1,0.1-0.2,0.1-0.3,0.2h-0.1c-0.4,0.2-0.8,0.3-1.3,0.4c-0.4,0.1-0.8,0.1-1.2,0.1
		c-0.4,0-0.8,0-1.2-0.1c-0.4-0.1-0.9-0.2-1.3-0.4l-0.1-0.1c-0.4-0.2-0.6-0.7-0.4-1.1c0,0,0,0,0,0
		C-192.5,137.3-192.4,137.3-192.3,137.2z"/>
	<path class="st11" d="M-175.1,133.4c0.5-0.3,1.1-0.6,1.7-0.7c0.6-0.1,1.2-0.2,1.8-0.2c0.6,0,1.2,0.1,1.8,0.2
		c0.6,0.1,1.2,0.4,1.8,0.7c0.4,0.3,0.5,0.8,0.2,1.2c-0.1,0.1-0.2,0.2-0.4,0.3l0,0c-0.5,0.2-1.1,0.3-1.7,0.4
		c-0.5,0.1-1.1,0.1-1.6,0.1c-0.6,0-1.1,0-1.7-0.1c-0.6-0.1-1.2-0.2-1.7-0.4h-0.1c-0.4-0.2-0.6-0.7-0.4-1.1
		C-175.3,133.6-175.2,133.5-175.1,133.4z"/>
	<path class="st11" d="M-210.5,142.6c0.5-0.3,1.1-0.6,1.7-0.7c0.6-0.1,1.2-0.2,1.8-0.2c0.6,0,1.2,0.1,1.8,0.2
		c0.6,0.1,1.2,0.4,1.8,0.7c0.4,0.3,0.5,0.8,0.2,1.2c-0.1,0.1-0.2,0.2-0.4,0.3l0,0c-0.5,0.2-1.1,0.3-1.7,0.4
		c-0.5,0.1-1.1,0.1-1.6,0.1c-0.6,0-1.1,0-1.7-0.1c-0.6-0.1-1.2-0.2-1.7-0.4h-0.1c-0.4-0.2-0.6-0.7-0.4-1.1c0,0,0,0,0,0
		C-210.7,142.8-210.6,142.7-210.5,142.6z"/>
	<ellipse class="st11" cx="-180" cy="229.3" rx="21.2" ry="4.2"/>
	
		<ellipse transform="matrix(1 -4.363309e-03 4.363309e-03 1 -0.9992 -0.7719)" class="st10" cx="-177.4" cy="228.6" rx="4.7" ry="1.7"/>
</g>
<g class="st0">
	<g id="_Groupe_" class="st3">
		<path class="st7" d="M91.6-150.6c0.5,2.9-1.4,5.7-4.3,6.2c-0.1,0-0.2,0-0.3,0c-17.2,2.2-34.5,4.4-51.8,6.5l-1.5-12.7
			c17.2-2.1,34.4-4.2,51.6-6.3c2.8-0.3,5.4,1.6,5.9,4.4C91.4-151.6,91.5-151.2,91.6-150.6z"/>
	</g>
	<path class="st11" d="M87.6-264.9c-13.3-4.9-24.8-6.9-25.7-4.5l-6.7,18.1c-0.9,2.5-2.3,4.9-4,7c-0.4,0.4-0.7,0.7-1,1.1
		c-1.4,1.4-2.9,2.8-4.6,3.9c-4.2,2.2-9.3,1.9-18.3,3.8l0,0c-6.2,1.1-12.1,3.2-17.5,6.3c-3.9,2.2-7.5,5-10.6,8.2
		c-1.5,1.6-3,3.2-4.4,5l-1.9,2.7c-0.3,0.4-0.6,0.9-0.9,1.3l-0.8,1.4c-4.1,7.1-6.8,15-7.8,23.1c-0.5,3.7,1.8,7.2,5.3,8.3
		c-0.1,4.6,0.2,9.2,1.1,13.8c0.8,4.4,5.1,7.3,9.5,6.5c0.3-0.1,0.6-0.2,0.9-0.3c1.3,3.9,3,7.8,5,11.4c0.1,0.3,0.2,0.5,0.4,0.8
		c4.5,8,15.5,4.6,16.3-2.1c0.1-1,0.1-2-0.1-2.9v-0.2c-1.6-6.8-2.4-13.7-2.5-20.7v-1.2l0.1-1.2l0.1-2.4c0.2-1.5,0.3-3.1,0.7-4.6
		s0.7-2.9,1.1-4.4l0.7-2.1c0.3-0.7,0.6-1.4,0.8-2.1c5.2-11.3,16.1-19.1,28.5-20.4c10.6-1,27.5,13.7,22.1,30.9c0,0,0,0.1,0,0.1
		l-0.8,2.1c-0.3,0.7-0.6,1.4-0.9,2.1c-0.1,0.3-0.3,0.7-0.4,1l-0.5,1l-0.5,1c-0.2,0.3-0.3,0.7-0.5,1c-1.3,2.5-2.8,4.9-4.4,7.3
		c-4.1,5.9-7.1,6.6-8.7,11.2v0.1l0,0l0,0c-0.8,2.2-0.6,4.6,0.6,6.6c1.7,2.9,5.4,3.9,8.9,3.2l0,0c1-0.2,2-0.5,2.9-0.9l0.9-0.4
		c0.5-0.3,1-0.5,1.5-0.8s0.8-0.5,1.2-0.8c16.2-9.3,33-33.4,29.8-50.4l0,0c-1-7.8-4.2-14.8-1.7-23.2c0.2-0.5,0.3-1.1,0.5-1.6
		c0.1-0.3,0.2-0.5,0.3-0.8c1.5-4.6,3.3-8.4,3.9-10.2l7-18C113.5-253,100.8-260,87.6-264.9z"/>
	<path class="st2" d="M13-219.4c-2.8,2.6-5.4,5.4-7.6,8.6c-2.2,3.1-4.1,6.5-5.6,10c-1.5,3.5-2.7,7.2-3.3,11
		c-0.2,0.9-0.3,1.9-0.5,2.9l-0.2,1.4c-0.1,0.5-0.1,1-0.1,1.5c-0.1,2-0.1,3.9-0.1,5.7v0.1l0.3,4c0.1,1.3,0.3,2.7,0.6,4
		c0.5,2.7,1.2,5.3,2,7.9c0.1,0.4,0.5,0.6,0.9,0.5c0.4-0.1,0.7-0.5,0.6-0.9c0,0,0,0,0,0c-0.5-2.6-1-5.2-1.3-7.8
		c-0.2-1.3-0.3-2.6-0.3-3.9l-0.1-3.9c0-0.4,0-0.8,0-1.1c0.5,0.4,1.1,0.7,1.7,0.9c1.3,0.5,2.8,0.5,4.2,0c0.4-0.2,0.6-0.7,0.4-1.1
		c-0.1-0.2-0.2-0.3-0.4-0.4H4.2c-0.5-0.3-1.1-0.5-1.7-0.7c-0.5-0.2-1-0.4-1.6-0.6l-1.6-0.5c-0.3-0.1-0.6-0.2-1-0.3
		c0-0.6,0.1-1.1,0.1-1.7s0.1-0.9,0.2-1.3l0.2-1.4c0-0.2,0-0.3,0.1-0.5c0.3,0.2,0.5,0.4,0.8,0.6c0.8,0.6,1.7,1,2.6,1.3
		c1.8,0.7,3.8,0.7,5.7,0.2c0.4-0.1,0.6-0.6,0.5-1c-0.1-0.2-0.2-0.4-0.5-0.5h0c-0.9-0.3-1.7-0.5-2.5-0.8s-1.6-0.5-2.3-0.7
		s-1.5-0.5-2.3-0.8c-0.5-0.2-1.1-0.4-1.6-0.6c0.7-3.6,1.7-7,3.1-10.4c1.4-3.4,3-6.7,5-9.8c1-1.6,2-3.1,3.1-4.6s2.3-2.9,3.5-4.3l0,0
		c0.2-0.4,0-0.8-0.3-1C13.5-219.5,13.3-219.5,13-219.4z"/>
	<path class="st2" d="M1.7-213.6c1-1.3,2-2.6,3-3.9l0,0c0.2-0.3,0.1-0.8-0.2-1c-0.3-0.2-0.7-0.2-0.9,0c-1.3,1.1-2.5,2.3-3.7,3.5
		s-2.3,2.6-3.3,3.9c-1,1.4-2,2.8-2.8,4.3c-0.9,1.5-1.7,3-2.4,4.5c-1.4,3.1-2.5,6.4-3.3,9.7c-0.2,0.8-0.4,1.7-0.5,2.5
		s-0.3,1.7-0.4,2.5c-0.2,1.7-0.2,3.4-0.3,5c0,0.4,0.3,0.8,0.7,0.8c0.4,0,0.7-0.2,0.7-0.6c0.4-1.6,0.6-3.3,1-4.9
		c0.2-0.8,0.4-1.6,0.6-2.4s0.4-1.6,0.6-2.4c0.9-3.1,2-6.2,3.4-9.1c1.4-3,3-5.8,4.7-8.5C-0.2-211,0.7-212.3,1.7-213.6z"/>
	<path class="st2" d="M86.6-169.4c-0.3-0.6-0.7-1.2-1.3-1.7c-1-1-2.3-1.7-3.7-1.8c-0.2,0-0.4,0-0.5,0.1c-0.4,0.3-0.5,0.8-0.2,1.1
		c0,0,0,0,0,0v0.1c0.4,0.5,0.7,0.9,1.2,1.4c0.4,0.4,0.8,0.8,1.2,1.2l1.2,1.1c0.4,0.4,0.9,0.8,1.3,1.1l0.2,0.1
		c0.1,0.1,0.3,0.1,0.5,0.1c0.4,0,0.8-0.4,0.8-0.8c0,0,0,0,0,0C87.1-168,87-168.7,86.6-169.4z"/>
	<path class="st2" d="M82.6-164.1c-0.5-0.7-1.1-1.3-1.7-1.9c-0.6-0.6-1.3-1.1-2-1.6c-0.7-0.5-1.5-0.9-2.3-1.2
		c-0.2-0.1-0.5-0.1-0.7,0.1c-0.4,0.2-0.5,0.7-0.3,1.1c0,0,0,0,0,0l0,0c0.4,0.7,0.9,1.4,1.5,2.1c0.5,0.6,1.1,1.2,1.7,1.8
		c0.6,0.6,1.2,1.1,1.9,1.6c0.7,0.5,1.4,1,2.1,1.4l0,0c0.2,0.1,0.5,0.1,0.7,0c0.4-0.2,0.6-0.6,0.4-1
		C83.6-162.7,83.2-163.4,82.6-164.1z"/>
	<path class="st2" d="M69.1-154.2c-3.3-3.9-9.7,1.8-6.3,6.2C65.5-144.5,73.8-148.6,69.1-154.2z"/>
	<path class="st2" d="M2.3-153.7c4.4,0,8.4,5.8,6.9,10.4C9.2-143.3,5.9-143.8,2.3-153.7z"/>
	<path class="st9" d="M-48.2-139.7c-7.4,1-14.7,2.1-22.1,3.1c-2.9,0.4-5,3.1-4.5,6c0,0.1,0,0.2,0.1,0.4l0,0c0.6,2.7,3.1,4.5,5.8,4.2
		c7.4-0.8,14.8-1.6,22.2-2.4c2.9-0.3,5.1-3,4.7-5.9c0-0.2,0-0.3-0.1-0.5l-0.1-0.7C-42.8-138.2-45.4-140.1-48.2-139.7z"/>
	<path class="st9" d="M153.5-158.5c0,0,0,0.1,0,0.1c0.6,2.8,3.2,4.7,6,4.3l3.5-0.5c2.9-0.4,5-3.1,4.5-6.1c0-0.1,0-0.2-0.1-0.3l0,0
		c-0.6-2.7-3.1-4.5-5.8-4.2l-3.5,0.4c-2.9,0.3-5.1,2.9-4.8,5.9C153.5-158.8,153.5-158.7,153.5-158.5z"/>
	<path class="st9" d="M136.8-162.6c-9.3,1-18.5,2-27.8,3.1c-2.9,0.3-5,3-4.7,5.9c0,0.1,0,0.3,0.1,0.4c0.1,0.5,0.2,0.8,0.3,1.4
		c0.5,2.8,3.1,4.8,6,4.4c9.2-1.2,18.4-2.5,27.6-3.8c2.9-0.4,5-3.1,4.6-6.1c0-0.1,0-0.2-0.1-0.3c0-0.2-0.1-0.4-0.1-0.7
		C142.1-161,139.6-162.9,136.8-162.6z"/>
	<g id="_Groupe_2" class="st3">
		<path class="st7" d="M33.8-150.5l1.5,12.7c-19.2,2.3-38.4,4.6-57.6,6.8c-2.8,0.3-5.4-1.6-5.9-4.4c-0.1-0.5-0.2-0.9-0.3-1.3
			c-0.6-2.9,1.3-5.7,4.2-6.3c0.1,0,0.2,0,0.3,0C-4.7-145.6,14.6-148.1,33.8-150.5z"/>
	</g>
	
		<ellipse transform="matrix(0.3471 -0.9378 0.9378 0.3471 296.8626 -87.9594)" class="st2" cx="85.3" cy="-257.2" rx="4.2" ry="21.2"/>
	
		<ellipse transform="matrix(0.3471 -0.9378 0.9378 0.3471 296.8626 -87.9594)" class="st10" cx="85.3" cy="-257.2" rx="1.7" ry="4.7"/>
	<path class="st11" d="M70.1-144.8L70.1-144.8C70.1-144.8,72.8-146.1,70.1-144.8z"/>
</g>
<g class="st0">
	<path class="st11" d="M218.2,194.2c-20.1-0.8-72.6-2.4-171.8-2.4s-151.7,1.6-171.8,2.4c-5.5,0.2-9.8,4.7-9.8,10.2v13.5
		c0,5.5,4.4,10.1,9.9,10.2c26.2,0.7,100.1,2.5,171.7,2.5s145.5-1.8,171.7-2.5c5.5-0.2,9.9-4.7,9.9-10.2v-13.5
		C228,198.9,223.7,194.4,218.2,194.2z M218.6,217.8c0,0.4-0.3,0.8-0.8,0.8c-28.3,0.8-101.9,2.5-173.7,2.5c-15.1,0-30.3-0.1-45.1-0.2
		v0c-53.8-0.5-101.5-1.7-123.2-2.3c-0.4,0-0.8-0.4-0.8-0.8c-1.2-4.3-1.2-9,0-13.3v-0.2c0-0.4,0.3-0.8,0.8-0.8
		c15-0.6,52.9-1.8,123.2-2.3v0c13.8-0.1,28.9-0.1,45.1-0.1c101.9,0,155.5,1.7,173.7,2.4c0.4,0,0.8,0.4,0.8,0.8v0.2
		C219.8,208.9,219.8,213.5,218.6,217.8z"/>
	<g class="st3">
		<path class="st5" d="M-1,201.4c-70.3,0.4-108.2,1.7-123.2,2.3c-0.4,0-0.8,0.4-0.8,0.8v0.2c-1.2,4.3-1.2,9,0,13.3l0,0
			c0,0.4,0.3,0.8,0.8,0.8c21.7,0.6,69.4,1.8,123.2,2.3V201.4z"/>
		<path class="st7" d="M217.8,203.6c-18.2-0.7-71.8-2.4-173.7-2.4c-16.2,0-31.2,0-45.1,0.1V221c14.8,0.1,30,0.2,45.1,0.2
			c71.8,0,145.4-1.8,173.7-2.5c0.4,0,0.8-0.4,0.8-0.8l0,0c1.2-4.3,1.2-9,0-13.3v-0.2C218.6,204,218.2,203.6,217.8,203.6z"/>
	</g>
	<circle class="st10" cx="-2.2" cy="211.8" r="14.2"/>
</g>
<g class="st0">
	<path class="st1" d="M110.1,332.4l-8.2-13.2c-4.1-7.3-0.9-14.1-7.2-34.2c0-0.1-0.1-0.2-0.1-0.3c-0.6-2-1.3-4-2-6l0,0
		c-0.2-0.5-0.4-1-0.6-1.4c-0.6-1.4-1.2-2.8-1.9-4.2c-1.8-3.8-4-7.3-6.6-10.7c-2.5-3.4-5.5-6.4-8.9-9c-3.7-2.8-8.9-2.2-11.9,1.2
		c-0.7-0.6-1.3-1.1-2-1.7c-2.1-1.6-4.9-2.2-7.5-1.5c-2.3,0.6-4.2,2.1-5.4,4.2c-0.5-0.5-1.1-0.9-1.7-1.4c-2.1-1.6-4.9-2.2-7.5-1.5
		c-1,0.3-2,0.7-2.9,1.4c-1.3-3.2-2.6-6.3-4.1-9.4l-1.1-2.2l-1.2-2.2c-0.8-1.5-1.6-2.9-2.4-4.3c-1.7-2.8-3.4-5.7-5.4-8.4
		c-3.8-5.5-8.1-10.6-12.9-15.2c-3.4-3.2-8.8-3.1-12,0.3c-2.3,2.5-3,6.1-1.7,9.2l0.2,0.4c2.4,5.6,5.1,10.9,7.5,16.3
		c1.3,2.7,2.5,5.4,3.7,8l1.8,4l0.9,2l0.9,2c2.4,5.4,4.7,10.8,6.9,16.3l1,2.4c-0.7,0.5-1.4,1-2,1.7c-3.3,3.7-5.9,7.9-7.7,12.5
		c-1,2.6-1.8,5.3-2.2,8c-0.5,3.3-0.4,6.6,0.1,9.9c0.7,3.9,2.5,7.6,5,10.7c2.5,3,5.6,5.4,9.2,6.9c0.6,0.3,1.2,0.5,1.8,0.7l0,0
		c30.1,11.2,29.3,15.3,33.5,22.5l7.9,13.4c1.3,2.2,12.3-1.8,24.5-9S111.4,334.6,110.1,332.4z"/>
	<ellipse transform="matrix(0.8718 -0.4898 0.4898 0.8718 -157.0651 85.6054)" class="st2" cx="85" cy="342.9" rx="21.2" ry="4.2"/>
	<ellipse transform="matrix(0.8718 -0.4898 0.4898 0.8718 -157.0651 85.6054)" class="st10" cx="85" cy="342.9" rx="4.7" ry="1.7"/>
	<path class="st2" d="M8.2,224.5c6.2-3.3,0.2-11.3-4.7-8.8C-2,218.4,1.8,227.9,8.2,224.5z"/>
	<path class="st2" d="M18.5,275.2c1.1,1.6,2,3.3,2.9,5.1c0.9,1.7,1.7,3.5,2.4,5.3s1.4,3.6,2,5.5c0.6,1.9,1,3.8,1.3,5.8
		c0,0.4-0.2,0.8-0.7,0.8c-0.3,0-0.6-0.1-0.8-0.4l0,0c-0.8-1.8-1.6-3.5-2.3-5.3s-1.5-3.5-2.3-5.3s-1.4-3.6-2.1-5.4s-1.3-3.6-1.8-5.5
		l0,0c-0.1-0.4,0.1-0.8,0.6-0.9C18,274.8,18.3,275,18.5,275.2L18.5,275.2z"/>
	<path class="st2" d="M38.6,255.4c0.4,0.3,0.8,0.7,1.1,1.2c0.3,0.4,0.5,0.9,0.7,1.3c0.2,0.5,0.3,1,0.4,1.5c0.1,0.6,0.1,1.1,0,1.7
		c-0.1,0.4-0.6,0.7-1,0.6c-0.1,0-0.3-0.1-0.4-0.2h0c-0.4-0.3-0.7-0.7-1-1.2c-0.3-0.4-0.5-0.9-0.7-1.3c-0.2-0.5-0.3-0.9-0.4-1.4
		c-0.1-0.5-0.1-1.1-0.1-1.6l0,0c0.1-0.5,0.5-0.8,1-0.8c0,0,0,0,0,0C38.4,255.3,38.5,255.4,38.6,255.4z"/>
	<path class="st2" d="M16.6,243.9c0.6-0.6,1.2-1.2,1.9-1.7c0.7-0.5,1.4-0.9,2.1-1.3c0.7-0.4,1.5-0.7,2.3-1c0.8-0.3,1.7-0.4,2.6-0.5
		c0.4,0,0.8,0.3,0.8,0.8c0,0.2-0.1,0.5-0.3,0.6l0,0c-1.3,1-2.6,1.9-4.1,2.7c-0.7,0.4-1.5,0.7-2.2,1c-0.8,0.3-1.6,0.5-2.4,0.7l0,0
		c-0.4,0.1-0.8-0.2-0.9-0.7C16.5,244.3,16.5,244.1,16.6,243.9z"/>
	<path class="st2" d="M15.7,236.9c0.2-0.4,0.4-0.8,0.7-1c0.6-0.5,1.3-0.9,2.1-1c0.4-0.1,0.9-0.1,1.3,0.1c0.5,0.1,0.8,0.6,0.6,1.1
		c0,0,0,0,0,0c0,0.1,0,0.1-0.1,0.2l0,0.1c-0.2,0.4-0.4,0.7-0.7,0.9c-0.3,0.2-0.6,0.4-0.9,0.6c-0.3,0.2-0.7,0.3-1,0.4
		c-0.4,0.1-0.8,0.1-1.2,0l0,0c-0.5-0.1-0.8-0.6-0.8-1.1C15.7,237.1,15.7,237,15.7,236.9z"/>
	<path class="st2" d="M51.1,255.5c0.5,0.3,0.9,0.6,1.3,1c0.4,0.4,0.7,0.8,0.9,1.2c0.3,0.4,0.5,0.9,0.6,1.4c0.2,0.5,0.3,1.1,0.2,1.7
		c0,0.5-0.5,0.8-0.9,0.8c-0.1,0-0.3-0.1-0.4-0.1h-0.1c-0.4-0.3-0.8-0.6-1.2-1c-0.3-0.4-0.6-0.8-0.9-1.2c-0.3-0.4-0.5-0.9-0.6-1.3
		c-0.2-0.5-0.3-1-0.3-1.6l0,0c0-0.5,0.4-0.9,0.8-0.9C50.8,255.5,51,255.5,51.1,255.5z"/>
	<path class="st2" d="M9.4,303.9c0.3-0.5,0.6-0.9,1-1.3c0.8-0.7,1.7-1.2,2.7-1.5c0.5-0.2,1.1-0.2,1.7-0.2c0.5,0.1,0.8,0.5,0.8,1
		c0,0.1-0.1,0.3-0.1,0.4l0,0c-0.3,0.4-0.6,0.8-1,1.1c-0.4,0.3-0.8,0.6-1.2,0.8c-0.4,0.2-0.9,0.4-1.4,0.6c-0.5,0.2-1,0.3-1.6,0.3l0,0
		c-0.5,0-0.9-0.4-0.9-0.9C9.3,304.1,9.3,304,9.4,303.9z"/>
	<path class="st2" d="M65.2,254.9c0.5,0.2,1,0.5,1.4,0.8c0.4,0.3,0.8,0.7,1.1,1.1c0.3,0.4,0.6,0.9,0.8,1.3c0.2,0.5,0.4,1.1,0.4,1.6
		c0,0.5-0.3,0.9-0.8,0.9c-0.1,0-0.3,0-0.4-0.1h-0.1c-0.5-0.2-0.9-0.5-1.3-0.9c-0.4-0.3-0.7-0.7-1-1.1c-0.3-0.4-0.6-0.8-0.8-1.3
		c-0.3-0.5-0.4-1-0.5-1.5l0,0c-0.1-0.5,0.2-0.9,0.7-1c0,0,0,0,0,0C64.9,254.9,65.1,254.9,65.2,254.9z"/>
</g>
<g class="st0">
	<path class="st2" d="M319.2,136.2c0.4-4,1.3-7.9,2.5-11.8l1-2.9c0.3-1,0.8-1.9,1.2-2.9s0.9-1.9,1.4-2.8c0.2-0.5,0.5-1,0.7-1.4
		l0.8-1.4c8.8-15.5,25.1-25.2,42.9-25.7c8.6-0.3,17.1,1.7,24.7,5.8c4.3,2.5,5.7,8,3.2,12.3c-2,3.4-6.1,5.1-10,4.2l-0.5-0.1
		c-5.3-1.5-10.8-2-16.3-1.5c-5.3,0.6-10.4,2.3-14.9,5.1c-4.5,2.8-8.4,6.6-11.5,11l-0.6,0.9c-0.2,0.3-0.4,0.6-0.5,0.9
		c-0.4,0.6-0.8,1.2-1.1,1.8s-0.7,1.2-1,1.9l-1,2c-1.3,2.7-2.3,5.5-3.4,8.4l-0.2,0.4c-1.7,4.7-6.9,7-11.6,5.3
		C321.3,144.2,318.9,140.3,319.2,136.2L319.2,136.2z"/>
	<path class="st2" d="M327.4,147.4c0.4-4,1.3-7.9,2.4-11.8l1-2.9c0.4-1,0.8-1.9,1.2-2.9s0.9-1.9,1.3-2.8c0.2-0.5,0.5-0.9,0.7-1.4
		l0.8-1.4c8.8-15.5,25.1-25.2,42.9-25.7c8.6-0.3,17.1,1.7,24.8,5.8c4.3,2.5,5.8,8,3.3,12.3c-2,3.5-6.1,5.2-10,4.2l-0.5-0.1
		c-5.3-1.5-10.8-2-16.3-1.5c-5.3,0.6-10.4,2.3-14.9,5c-4.5,2.8-8.5,6.6-11.5,11l-0.6,0.9c-0.2,0.3-0.4,0.6-0.6,0.9
		c-0.4,0.6-0.8,1.2-1.1,1.8s-0.7,1.2-1,1.9l-1,2c-1.3,2.6-2.3,5.5-3.4,8.4l-0.2,0.4c-1.7,4.7-6.9,7-11.6,5.3
		C329.3,155.4,326.9,151.5,327.4,147.4L327.4,147.4z"/>
	<path class="st2" d="M307.9,124.1c0.4-4,1.2-8,2.4-11.8l1-2.9c0.3-1,0.8-1.9,1.2-2.9s0.9-1.9,1.3-2.8c0.2-0.5,0.5-0.9,0.7-1.4
		l0.8-1.4c8.7-15.5,25-25.3,42.8-25.9c8.6-0.3,17.2,1.7,24.8,5.7c4.3,2.5,5.8,8,3.3,12.3c-2,3.5-6.1,5.2-10,4.2l-0.5-0.1
		c-5.3-1.5-10.8-2-16.3-1.4c-5.3,0.6-10.4,2.4-14.9,5.1c-4.5,2.8-8.4,6.6-11.4,11.1l-0.6,0.9c-0.2,0.3-0.4,0.6-0.5,0.9
		c-0.4,0.6-0.8,1.2-1.1,1.8s-0.7,1.2-1,1.9l-1,2c-1.3,2.7-2.3,5.5-3.4,8.4l-0.2,0.4c-1.7,4.7-6.9,7.1-11.5,5.4
		C309.9,132.1,307.5,128.2,307.9,124.1L307.9,124.1z"/>
	<path class="st11" d="M334.4,91.6c0,0-3.6,51.4,24.7,48.5S391,103,391,103S371,72.8,352.2,79.4S334.4,91.6,334.4,91.6z"/>
	<path class="st2" d="M381.5,196.9c13.6-3.8,24.1-9,23.4-11.5l-4.2-14.9c-4.5-17.7-6.3-25.9,1.9-42.1l0.3-0.5
		c0.5-0.8,0.9-1.7,1.3-2.6v-0.1c0.7-1.3,1.3-2.7,1.7-4.2c0.1-0.2,0.2-0.4,0.2-0.6c1.8-5.7,2.2-11.7,1.1-17.5
		c-1.1-5.5-3.4-10.6-6.7-15.2c-2.8-3.9-6.2-7.4-9.9-10.5c-3.4-2.8-7-5.4-10.7-7.7c-3.6-2.2-7.3-4.2-11.1-6c-7.3-3.5-15-6.4-22.8-8.7
		c-3.7-1.1-7.5,1-8.6,4.7c-0.8,2.8,0.2,5.9,2.6,7.6l0.1,0.1c3.2,2.3,6.4,4.4,9.5,6.5c1.6,1.1,3.1,2.2,4.7,3.2
		c1.5,1.1,3.1,2.1,4.6,3.3c5.8,4.1,11.2,8.7,16.2,13.7c2.1,2.2,3.9,4.5,5.5,7.1c1.2,1.9,2,4.1,2.4,6.3c0.2,1.9,0,3.8-0.6,5.6
		c-0.2,0.7-0.5,1.4-0.8,2.1c-6.8,14.6-30.7,27.1-36.9,5.1c-0.2-0.8-0.4-1.6-0.6-2.5c0-0.1,0-0.2,0-0.3c-0.2-1.1-0.5-2.3-0.8-3.4
		c0-0.2-0.1-0.4-0.1-0.6c-1-3.9-2-7.8-3.1-11.8c-1.2-4.2-2.6-8.4-4.3-12.4l-0.1-0.2c-1.7-3.7-6-5.3-9.7-3.6
		c-1.8,0.8-3.2,2.4-3.9,4.2c-1.5,4.6-2.4,9.3-2.5,14.2c-0.2,4.8,0.1,9.7,1,14.5c0.8,4.4,2.1,8.7,3.9,12.8c0.4,1.1,0.9,2.1,1.5,3.1
		l0.1,0.1c0.6,1.1,1.2,2.2,1.8,3.3c10.4,18.5,14.6,23,20.8,47.5l3.9,15C353.5,202.6,367.8,200.8,381.5,196.9z"/>
	<path class="st11" d="M328.1,100c7,0.5,6.3-9.4,0.8-10C322.8,89.3,320.8,99.4,328.1,100z"/>
	<path class="st11" d="M352.1,61.9c1-5.2-8.8-6.2-9.8-2.1C341.3,64.3,351.1,67.4,352.1,61.9z"/>
	<path class="st11" d="M380.2,72.8c0,0.4-0.1,0.8-0.2,1.1c-0.1,0.3-0.2,0.5-0.4,0.8c-0.1,0.2-0.3,0.4-0.6,0.5
		c-0.4,0.2-0.8,0.3-1.2,0.3h-0.1c-0.2,0-0.5-0.1-0.6-0.2c-0.3-0.4-0.5-0.9-0.4-1.4c0.1-0.4,0.3-0.8,0.5-1.1c0.3-0.3,0.6-0.5,1-0.6
		c0.4-0.2,0.9-0.2,1.3-0.1c0.3,0,0.5,0.3,0.5,0.6L380.2,72.8z"/>
	<path class="st11" d="M384.2,75.9c-0.4,0.7-0.8,1.5-1.3,2.1c-0.5,0.7-0.9,1.3-1.4,1.9c-0.5,0.6-1,1.2-1.5,1.8
		c-0.6,0.6-1.2,1.2-1.8,1.7l0,0c-0.2,0.1-0.4,0.1-0.6-0.1c0-0.1-0.1-0.1-0.1-0.2c-0.2-1-0.1-1.9,0.3-2.8c0.3-0.9,0.8-1.6,1.4-2.3
		c0.6-0.7,1.3-1.3,2-1.8c0.8-0.5,1.6-0.9,2.5-1.1c0.3-0.1,0.5,0.1,0.6,0.4c0,0,0,0,0,0C384.3,75.6,384.3,75.7,384.2,75.9L384.2,75.9
		z"/>
	<path class="st11" d="M387.2,80.6c-0.1,0.5-0.3,1-0.6,1.5c-0.2,0.4-0.5,0.8-0.8,1.2c-0.3,0.4-0.6,0.7-0.9,1
		c-0.4,0.3-0.9,0.6-1.4,0.8l0,0c-0.2,0.1-0.5,0-0.6-0.2c-0.3-0.6-0.3-1.3-0.1-2c0.2-0.6,0.5-1.1,0.9-1.5c0.4-0.4,0.8-0.8,1.3-1
		c0.5-0.3,1.1-0.5,1.7-0.5c0.3,0,0.5,0.2,0.6,0.5C387.3,80.4,387.3,80.5,387.2,80.6L387.2,80.6z"/>
	
		<ellipse transform="matrix(0.9627 -0.2707 0.2707 0.9627 -38.1647 108.471)" class="st11" cx="374.1" cy="192.6" rx="21.1" ry="4.2"/>
	
		<ellipse transform="matrix(0.9615 -0.2748 0.2748 0.9615 -37.6593 111.1355)" class="st10" cx="377.8" cy="190" rx="4.7" ry="1.7"/>
	<path class="st11" d="M397.4,155.8c3.7,2.5,8.5-1.2,12.2-4.8c3.9-3.9,7.9-9.9,4.1-13.9C408.8,131.9,390.9,149.4,397.4,155.8z"/>
	<path class="st1" d="M413.6,137.2l-53.5-54.8L343,100.3l53.5,54.8c0.3,0.3,0.6,0.5,0.9,0.8C390.9,149.4,408.8,131.9,413.6,137.2z"
		/>
	<path class="st9" d="M402.7,151c1.6,1.1,3.6-0.5,5.1-2s3.3-4.2,1.7-5.8C407.5,141,400,148.3,402.7,151z"/>
	<path class="st9" d="M313.8,43.7l-8.9-1.6c-0.9-0.3-2,0.2-2.3,1.2c-0.1,0.4-0.1,0.7,0,1.1l2.2,7.9
		C306.2,49.6,309.2,45.4,313.8,43.7z"/>
	<path class="st11" d="M323.4,45.5l-9.7-1.7c-4.6,1.7-7.5,5.9-9,8.5l3.2,11.5c3.5-7.6,9.6-13.6,17.2-17.1
		C324.7,46.1,324.1,45.7,323.4,45.5z"/>
	<path class="st11" d="M405.8,133.4c-1.3,0.9-2.5,1.8-3.6,2.9c-1.1,1-2.2,2.1-3.2,3.2c-1,1.1-2,2.3-2.9,3.4s-1.8,2.4-2.8,3.7l0,0
		c-0.1,0.2-0.4,0.2-0.5,0.1c-0.1-0.1-0.2-0.2-0.2-0.3c0-0.4,0-0.9,0.1-1.3c0.1-0.4,0.2-0.8,0.3-1.3c0.2-0.8,0.5-1.6,0.9-2.4
		c0.8-1.5,1.8-2.8,3-4c1.2-1.2,2.5-2.3,3.9-3.1c1.4-0.9,3.1-1.5,4.7-1.8c0.2,0,0.5,0.2,0.5,0.4C406,133.1,406,133.3,405.8,133.4
		L405.8,133.4z"/>
	<path class="st11" d="M320.8,97.6c-0.5,4.5-0.4,9.1,0,13.6c0.2,2.3,0.5,4.5,1,6.7s1.2,4.4,1.9,6.5c0.3,1.1,0.7,2.1,1.2,3.2
		s0.8,2,1.3,3.1c0.2,0.5,0.4,1,0.7,1.5l0.8,1.5c0.5,1,1,2,1.6,3c2.2,4,4.2,8.2,6,12.5c0.1,0.2,0,0.4-0.2,0.5c-0.2,0.1-0.3,0-0.4-0.1
		c-2.8-3.7-5.4-7.5-7.8-11.4c-0.6-1-1.2-2-1.8-3.1l-0.4-0.8l-0.4-0.8c-0.3-0.5-0.5-1.1-0.7-1.7c-0.4-1-0.9-2.1-1.3-3.3
		s-0.7-2.2-1-3.4c-0.6-2.3-1.1-4.6-1.4-6.9c-0.4-2.3-0.6-4.7-0.7-7c-0.3-4.6-0.1-9.3,0.7-13.8c0-0.2,0.3-0.4,0.5-0.4c0,0,0,0,0,0
		C320.7,97.2,320.8,97.4,320.8,97.6z"/>
	<path class="st11" d="M334.4,122.8c-0.5,0.3-1,0.6-1.5,0.8c-0.5,0.2-0.9,0.3-1.4,0.5c-0.5,0.1-0.9,0.2-1.4,0.2
		c-0.6,0-1.1-0.1-1.7-0.2h0c-0.3-0.1-0.4-0.3-0.4-0.6c0,0,0,0,0,0l0,0c0.2-0.7,0.6-1.2,1.2-1.6c0.5-0.3,1.1-0.6,1.7-0.6
		c0.6-0.1,1.2-0.1,1.8,0c0.6,0.1,1.2,0.3,1.7,0.7c0.2,0.2,0.3,0.5,0.1,0.7c0,0,0,0,0,0C334.5,122.6,334.5,122.7,334.4,122.8
		L334.4,122.8z"/>
	<path class="st11" d="M336.8,116.2c-1.1,0.3-2.1,0.5-3.2,0.6l-3,0.5c-1,0.2-2,0.3-3,0.5s-2,0.3-3.2,0.3l0,0c-0.2,0-0.4-0.2-0.4-0.4
		c0,0,0,0,0,0c0-0.1,0-0.2,0.1-0.3c0.7-0.9,1.7-1.7,2.8-2.1c1.1-0.5,2.2-0.7,3.3-0.9c1.1-0.1,2.3-0.1,3.4,0c1.1,0.1,2.2,0.4,3.3,0.9
		c0.2,0.1,0.3,0.4,0.2,0.6C337.1,116,337,116.1,336.8,116.2L336.8,116.2z"/>
	<path class="st11" d="M356.6,77.6c2.7,1.6,5.3,3.3,7.8,5.1c2.5,1.8,5,3.7,7.3,5.8c2.4,2,4.6,4.3,6.6,6.7c1,1.3,1.9,2.6,2.7,4
		c0.2,0.4,0.4,0.7,0.5,1.1c0.2,0.4,0.3,0.8,0.5,1.2c0.2,0.8,0.3,1.6,0.4,2.4c0,0.2-0.1,0.4-0.3,0.4c0,0,0,0,0,0
		c-0.1,0-0.3-0.1-0.3-0.2l0,0c-0.4-0.7-0.8-1.3-1.2-1.9c-0.2-0.3-0.4-0.6-0.6-0.8s-0.5-0.6-0.7-0.9c-0.9-1.2-1.9-2.3-2.9-3.4
		c-2-2.2-4.2-4.3-6.4-6.4s-4.5-4.1-6.9-6.1s-4.6-4.1-6.9-6.2c-0.2-0.2-0.2-0.5,0-0.6c0,0,0,0,0,0C356.3,77.6,356.5,77.5,356.6,77.6z
		"/>
	<path class="st11" d="M353.5,131c-3.2-1.5-5.8-3.8-7.7-6.8c-0.5-0.8-0.9-1.6-1.2-2.4c-0.3-0.8-0.6-1.7-0.9-2.5l-0.4-1.2
		c-0.1-0.2-0.1-0.4-0.2-0.6l-0.2-0.6c-0.2-0.8-0.4-1.5-0.7-2.3s-0.5-1.7-0.7-2.5l-0.6-2.4c-0.4-1.6-0.8-3.2-1.1-4.9
		c-0.5-3.3-1.4-6.5-2-9.8c0-0.2,0.1-0.4,0.3-0.4c0.2,0,0.3,0.1,0.4,0.2c0.7,1.5,1.3,3.1,2,4.6s1.3,3.1,1.8,4.7s1,3.2,1.5,4.8
		l0.6,2.4c0.2,0.8,0.4,1.6,0.6,2.4s0.4,1.7,0.6,2.5l0.1,0.6c0,0.2,0,0.4,0.1,0.6l0.2,1.2c0.1,0.8,0.3,1.6,0.5,2.3
		c0.2,0.7,0.6,1.5,0.9,2.2c1.5,2.8,3.8,5.2,6.5,7c0.2,0.1,0.3,0.4,0.1,0.6C353.9,131,353.7,131.1,353.5,131z"/>
	<path class="st1" d="M325.2,46.6c-12.6,5.2-17.2,17.1-17.2,17.1c0.2,0.6,0.5,1.1,1,1.6l78.1,80l17.1-17.9L325.2,46.6z"/>
</g>
</svg>
