<?xml version="1.0" encoding="utf-8"?>
<!-- Generator: Adobe Illustrator 24.1.1, SVG Export Plug-In . SVG Version: 6.00 Build 0)  -->
<svg version="1.1" id="teamwork_vlogging" xmlns="http://www.w3.org/2000/svg" xmlns:xlink="http://www.w3.org/1999/xlink" x="0px"
	 y="0px" viewBox="0 0 363.3 38.8" style="enable-background:new 0 0 363.3 38.8;" xml:space="preserve">
<style type="text/css">
	.st0{display:none;}
	.st1{display:inline;fill:#FFB400;}
	.st2{display:inline;fill:#FF3A00;}
	.st3{display:inline;}
	.st4{fill:#FFB400;}
	.st5{fill:#FF3A00;}
	.st6{fill:#FFFFFF;}
	.st7{fill:#00AEE0;}
	.st8{fill:#04294F;}
	.st9{display:inline;fill:#00AEE0;}
	.st10{display:inline;fill:#FFFFFF;}
	.st11{display:inline;fill:#04294F;}
	.st12{display:none;fill:#FFFFFF;}
</style>
<g class="st0">
	<path class="st1" d="M331-123.9c-3.1,12.1-7,27.3-24.6,44.9s-32.7,21.5-44.9,24.6c-10.1,2.6-17.4,4.5-27.9,14.9
		c22.5-0.3,42.5-0.7,59.5-1.1c4.7-1.7,9.1-2.8,13.1-3.8c10.1-2.6,17.5-4.5,27.9-14.9s12.3-17.8,15-27.9c1.2-5.2,2.8-10.4,4.7-15.5
		c0.3-12.8,0.5-27.1,0.5-42.7c0-4.6,0-9.1-0.1-13.5c-3,2.1-5.9,4.5-8.5,7.2C335.4-141.3,333.6-134,331-123.9z"/>
	<path class="st2" d="M319.4-175.4c-10.5,10.5-12.3,17.8-14.9,27.9c-3.1,12.1-7,27.3-24.6,44.9S247.2-81.1,235.1-78
		c-10.1,2.6-17.5,4.5-27.9,14.9c-9,9-11.6,15.7-13.9,23.8c14.2,0,27.7-0.1,40.4-0.3c10.4-10.4,17.8-12.3,27.9-14.9
		c12.1-3.1,27.3-7,44.9-24.6s21.5-32.7,24.6-44.9c2.6-10.1,4.5-17.5,14.9-27.9c2.6-2.6,5.4-5,8.5-7.2c-0.1-11.9-0.3-23-0.6-33.1
		c-2.2,0.6-4.4,1.2-6.5,1.7C337.2-187.7,329.9-185.9,319.4-175.4z"/>
	<g class="st3">
		<path class="st4" d="M89.9-62.4c10.5-10.5,12.3-17.8,14.9-27.9c3-11.8,6.7-26.3,22.9-43.2c-2.6-11.8-1.3-24.1,3.7-35l-1.4,0.4
			c-10.2,2.6-17.5,4.5-27.9,14.9s-12.3,17.8-14.9,27.9c-3.1,12.1-7,27.3-24.6,44.9S30-59,17.9-55.9c-2.3,0.6-4.5,1.1-6.6,1.8
			c0.3,4.7,0.5,8.5,0.7,11.4c7,0.3,17.6,0.8,31.4,1.2c6-2.5,12.2-4.5,18.6-6C72.2-50,79.5-51.9,89.9-62.4z"/>
		<path class="st5" d="M62.8-80.4c17.6-17.6,21.5-32.7,24.6-44.9c2.6-10.1,4.5-17.5,14.9-27.9s17.8-12.3,27.9-14.9l1.4-0.4
			c9-19.6,28.6-32.1,50.1-32.1h0.6c11.6-14.3,14.8-26.7,17.4-37c1.3-5.1,2.5-9.6,4.6-14c-7.2,0-14.8,0-22.6,0h-11.1
			c-3.2,10.2-8.7,22.1-21.9,35.3c-17.6,17.6-32.7,21.5-44.9,24.6c-10.2,2.6-17.5,4.5-27.9,14.9s-12.3,17.8-14.9,27.9
			c-3.1,12.1-7,27.3-24.6,44.9C26.7-94.5,17.9-89,9.8-85.4c0.4,12.8,1,23.4,1.4,31.4c2.1-0.6,4.3-1.2,6.6-1.8
			C30-59,45.2-62.8,62.8-80.4z"/>
		<path class="st6" d="M60.8-148.9c2.6-10.1,4.5-17.5,14.9-27.9s17.8-12.3,27.9-14.9c12.1-3.1,27.3-7,44.9-24.6
			c13.3-13.3,18.7-25.1,21.9-35.3c-13.3,0-25.8,0.1-37.3,0.2c-3.3,4.6-6.9,8.9-10.9,12.8c-17.6,17.6-32.7,21.5-44.9,24.6
			c-10.1,2.6-17.5,4.5-27.9,14.9s-12.3,17.8-14.9,27.9c-3.1,12.1-7,27.3-24.6,44.9c-0.4,0.4-0.7,0.7-1.1,1c0.2,15,0.5,28.4,0.9,39.9
			c8-3.5,16.9-9,26.4-18.6C53.9-121.7,57.8-136.8,60.8-148.9z"/>
		<path class="st7" d="M34.6-171.3c2.6-10.1,4.5-17.5,14.9-27.9s17.8-12.3,27.9-14.9c12.1-3.1,27.3-7,44.9-24.6
			c4-3.9,7.6-8.2,10.9-12.8c-19,0.1-35.6,0.4-50,0.7c-11.8,8.1-22.3,10.8-31.1,13c-10.1,2.6-17.5,4.5-27.9,14.9
			c-10,10-12.1,17.1-14.5,26.5c-0.4,14.7-0.7,31.8-0.7,50.9c0,7,0,13.7,0.1,20.1c0.4-0.3,0.7-0.7,1.1-1
			C27.6-144,31.5-159.1,34.6-171.3z"/>
		<path class="st6" d="M193.2-39.3c2.2-8.1,4.9-14.8,13.9-23.8C217.6-73.6,224.9-75.5,235-78c12.1-3.1,27.3-7,44.9-24.6
			s21.5-32.7,24.6-44.9c2.6-10.1,4.5-17.5,14.9-27.9s17.8-12.3,27.9-14.9c2.1-0.5,4.2-1.1,6.5-1.7c-0.4-14.6-0.9-27.1-1.4-37.1
			c-8.6,4.6-16.4,6.7-23.2,8.5c-10.5,2.8-18,4.9-29,15.9s-13,18.6-15.9,29c-3.3,12.3-7.4,27.6-25.4,45.5
			c-14.4,14.4-27,19.9-37.8,23.2c-9.3,9.6-21.8,15.5-35.2,16.5l-1.6,1.5c-11,11-13,18.6-15.8,29c-1.7,7.1-4.1,14-7.2,20.6
			c6.6,0,13.4,0,20.3,0L193.2-39.3z"/>
	</g>
	<g class="st3">
		<path class="st8" d="M360.1-43.2c0-0.4,0-0.7,0.1-1.1v-0.5c0-0.3,0-0.7,0.1-1.1c0-0.2,0-0.4,0-0.6s0-0.7,0.1-1s0-0.5,0-0.8
			l0.1-1.4c0-0.4,0-0.9,0.1-1.3c0-0.3,0-0.6,0-0.8s0-0.9,0.1-1.3c0-0.2,0-0.4,0-0.7c0-0.5,0-0.9,0.1-1.4v-0.6c0-0.5,0.1-1.1,0.1-1.6
			v-0.2c0.1-2.6,0.3-5.5,0.4-8.5v-0.2c0.6-13.2,1.2-30.1,1.6-49.9l0,0c0.1-4,0.1-8.1,0.2-12.3c0-0.5,0-0.9,0-1.4c0-0.7,0-1.5,0-2.2
			v-3.5v-1.4c0-1,0-1.9,0-2.9v-1.3c0-1.4,0-2.8,0-4.2c0-1.6,0-3.1,0-4.7c0-1.3,0-2.5,0-3.7v-0.9c0-4.3,0-8.5-0.1-12.5
			c0-0.2,0-0.4,0-0.6c0-1.1,0-2.3,0-3.4c0-0.3,0-0.5,0-0.8c0-1.1,0-2.2-0.1-3.3c0-0.3,0-0.5,0-0.8l-0.1-3.3c0-0.2,0-0.5,0-0.7
			c0-1.1,0-2.2-0.1-3.3c0-0.2,0-0.4,0-0.5c0-1.1,0-2.3-0.1-3.4v-0.3c0-1.2,0-2.3-0.1-3.5v-0.2c0-1.2-0.1-2.4-0.1-3.5l0,0
			c-0.2-8-0.5-15.3-0.8-21.9l0,0c0-0.7-0.1-1.4-0.1-2.1v-0.7c0-0.6,0-1.2-0.1-1.9c0-0.3,0-0.5,0-0.8c0-1.3-0.1-2.5-0.2-3.7
			c0-0.1,0-0.2,0-0.3c0-0.4,0-0.9-0.1-1.3l-0.1-1.2l-0.1-1.2c0-0.4,0-0.9-0.1-1.3s0-0.7,0-1l-0.1-1.6v-0.6l0,0v-0.5
			c0-0.6-0.1-1.2-0.1-1.8c0-0.1,0-0.2,0-0.3c0-0.7-0.1-1.3-0.1-1.9v-0.5c0-0.5-0.1-1.1-0.1-1.6v-0.1c0-0.6-0.1-1.3-0.1-1.8v-0.2
			c-0.1-1.5-0.2-2.9-0.3-4.1c-0.1-0.8-0.1-1.6-0.2-2.3c0-0.3,0-0.5-0.1-0.8c-0.1-0.7-0.3-1.5-0.7-2.1c-1.3-2.7-3.9-4.5-6.9-4.7
			l-1.2-0.1h-0.3l-1.4-0.1h-0.3l-1.5-0.1h-0.1l-1.7-0.1h-0.2l-3.8-0.2h-0.2l-2.1-0.1h-0.1l-2.3-0.1l0,0l-1.5-0.1l0,0
			c-8.5-0.4-19.4-0.8-33-1.1h-0.2l-2.5-0.2l0,0l-8.1-0.2H292l-2.8-0.1h-0.1l-8.9-0.2h-0.1l-3-0.1h-0.1l-13-0.2H264h-3.3h-0.2h-3.3
			H257l-10.8-0.3h-0.1c-3.7,0-7.4-0.1-11.3-0.1h-0.2l-12-0.1h0h-6.3h-0.1H210h-54.9h-3.7h-0.5H147h-0.3H143h-0.5h-3.7h-0.3h-5.9
			h-0.3l-5.6,0h-0.1l-5.6,0h-0.4l-5.3,0.1h-0.1l-5.2,0.1h-0.6l-4.8,0.1h-0.1l-4.8,0.1h-0.8l-4.4,0.1h-0.3l-4,0.1h-0.4l-3.5,0.1h-0.6
			l-3.5,0.1h-0.3l-3.8,0.1H78l-3.3,0.1H74l-3,0.1h-0.4l-6.6,0.2h-0.6l-2.9,0.1h-0.2l-6.1,0.2h-0.5l-2.4,0.1h-0.4l-5.5,0.2H45
			l-2.3,0.1h-0.4l-4.9,0.2h-0.3l-2,0.1h-0.4l-2.1,0.1l0,0l-2.1,0.1h-0.3l-1.7,0.1h-0.4l-1.7,0.1h-0.2l-1.8,0.1H24l-1.4,0.1h-0.4
			l-1.4,0.1h-0.3l-1.5,0.1h-0.2l-1.2,0.1h-0.4l-1,0h-0.4l-1.3,0.1l0,0l-1.2,0.1h-0.3h-0.8H12l-1,0.1c-0.3,0-0.5,0-0.8,0.1
			c-3.5,0.5-6.3,3.2-6.8,6.7c0,0.3-0.1,0.5-0.1,0.8c0,0.4-0.1,0.9-0.1,1.3c0,0.2,0,0.3,0,0.5l-0.1,0.9c0,0.2,0,0.4,0,0.6l-0.1,0.9
			c0,0.3,0,0.5-0.1,0.8s0,0.5,0,0.8l-0.1,0.9c0,0.2,0,0.4,0,0.7c-0.1,0.8-0.1,1.6-0.1,2.4v0.4c0,0.4-0.1,0.9-0.1,1.4
			c0,0.2,0,0.4,0,0.6c0,0.5,0,1-0.1,1.5v0.6c0,0.5-0.1,1-0.1,1.6v0.4c-0.1,2.6-0.3,5.4-0.4,8.4v0.1c0,0.8-0.1,1.5-0.1,2.3v0.1
			c-0.6,13.8-1.2,31.3-1.5,52.1l0,0l0,0c0,3.8-0.1,7.7-0.1,11.7v1c0,1.6,0,3.1,0,4.7v1.5c0,1.9,0,3.9,0,5.9v4.4c0,0.4,0,0.9,0,1.3
			c0,1.1,0,2.1,0,3.1c0,0.4,0,0.8,0,1.3c0,2.8,0,5.6,0.1,8.3c0,0.4,0,0.9,0,1.3c0,1,0,2,0,2.9c0,0.4,0,0.8,0,1.2
			c0,1.3,0,2.5,0.1,3.8c0,1.6,0,3.2,0.1,4.8v1.4c0,1,0,2.1,0.1,3.1v1.6c0,1,0,1.9,0.1,2.9c0,0.5,0,1,0,1.5c0,1,0.1,2,0.1,2.9
			c0,0.4,0,0.9,0,1.3c0,1.1,0,2.1,0.1,3.2v0.9c0.1,4.2,0.2,8.3,0.4,12.1l0,0l0,0c0,1.4,0.1,2.8,0.2,4.2v0.8c0,0.6,0.1,1.2,0.1,1.8
			v0.8c0.1,1.3,0.1,2.6,0.2,3.8v0.1c0,0.6,0.1,1.2,0.1,1.8v0.7c0,0.6,0.1,1.1,0.1,1.7v0.2c0.1,1.1,0.1,2.2,0.2,3.3v0.6
			c0,0.5,0.1,1,0.1,1.5v0.6c0.1,1.6,0.2,3.2,0.3,4.7v0.5c0.2,3.6,0.4,6.8,0.6,9.5c0,0.1,0,0.3,0,0.4L3-44.6L3-43.7v0.4
			c0,0.4,0.1,0.8,0.1,1.2l0,0c0.1,1,0.3,2,0.8,2.9c0.3,0.7,0.7,1.3,1.2,1.8c0.2,0.2,0.3,0.4,0.5,0.5c0.7,0.7,1.5,1.2,2.4,1.6
			c0.5,0.2,0.9,0.4,1.4,0.5c0.5,0.1,1,0.2,1.5,0.2h0.9H12h0.8h0.4h0.7h0.5h0.4h0.6H16h1.3h0.4h0.7h0.5h0.9h0.3H21h0.2l4.8,0.2h0.2
			h1.2h0.2l1.3,0h0.1l3.4,0.1h0.1l1.7,0.1h0.2l1.8,0.1h0.2l1.7,0.1h0.4l1.6,0.1h0.3l1.8,0.1h0.4l1.8,0.1h0.4l1.8,0.1h0.6h1.6h0.5
			l1.9,0.1h0.3l2,0.1H54h1.8h0.5l2,0h0.1l2.3,0.1h0.7l1.9,0h0.4l2.2,0.1h0.3c14.3,0.4,30.7,0.7,49.1,1h0.7l10.5,0.1h0.4l5.5,0.1h0.2
			l11.5,0.1h0.2l18.3,0.1l0,0h6.1h17.9h9h0.1h4.4h0.1c20.9-0.1,40.2-0.3,57.6-0.6h0.3l5.6-0.1h0.5l5.4-0.1h0.4l8.7-0.2h0.6l2.7-0.1
			h0.7l2.6-0.1h0.7l3-0.1h0.2l6.4-0.2h0.2l2.8-0.1h0.5l2.4-0.1h0.6l2.3-0.1h0.5l5.6-0.2h0.2l2.5-0.1h0.4l2.2-0.1h0.5l2.2-0.1h0.3
			l2.2-0.1h0.3l4.7-0.2h0.3l1.9-0.1h0.6l1.6-0.1h0.5l1.8-0.1h0.2l4-0.2h0.2l1.6-0.1h0.5h1.3h0.5l1.2,0h0.5l1.5-0.1h0.1l3-0.1h0.4
			l1,0h0.2h1.2h0.1h1.1h0.2h1.1c2-0.1,3.9-0.9,5.3-2.3c0.4-0.3,0.7-0.7,1-1.1c0.3-0.4,0.5-0.8,0.7-1.3c0.1-0.2,0.2-0.5,0.3-0.7
			c0.3-0.7,0.4-1.5,0.5-2.2c0-0.4,0-0.9,0.1-1.4L360.1-43.2z M12-42.7c-0.2-2.9-0.4-6.7-0.7-11.4c-0.5-8-1-18.6-1.4-31.4
			C9.5-97,9.1-110.4,9-125.4c-0.1-6.4-0.1-13.1-0.1-20.1c0-19.1,0.3-36.2,0.7-50.9c2.4-9.4,4.6-16.5,14.5-26.5
			c10.5-10.5,17.8-12.3,27.9-14.9c8.9-2.3,19.3-4.9,31.1-13c14.4-0.3,31-0.5,50-0.7c11.5-0.1,24-0.2,37.3-0.2h11.1
			c7.8,0,15.3,0,22.6,0c15.1,0,28.9,0.2,41.6,0.3c-1.4,1.2-2.7,2.5-4.1,3.9c-17.6,17.6-21.5,32.7-24.6,44.9
			c-0.9,4.1-2.2,8.2-3.7,12.1c-9.1-6.5-20-10-31.2-10.1h-0.6c-30.4,0-55.1,24.6-55.2,55c0,4.1,0.4,8.1,1.3,12.1
			c-16.2,16.9-19.9,31.4-22.9,43.2c-2.6,10.1-4.5,17.5-14.9,27.9S72.2-50,62-47.4c-6.4,1.5-12.6,3.5-18.6,6
			C29.6-41.9,19-42.3,12-42.7L12-42.7z M228-145.5c0,25.6-20.7,46.3-46.3,46.3s-46.3-20.7-46.3-46.3c0-25.6,20.7-46.3,46.3-46.3
			c0,0,0,0,0,0C207.2-191.8,228-171,228-145.5L228-145.5z M161.3-39.3c-14.9-0.1-29-0.2-42.1-0.4c14.9-16.2,18.4-30.1,21.3-41.5
			c1.9-7.4,3.4-13.3,8.1-20c9.5,7.1,21.1,10.9,32.9,10.9c1.4,0,2.9-0.1,4.3-0.2c30.4-2.4,53.1-28.9,50.7-59.3c-0.2-2.3-0.5-4.7-1-7
			c11.5-14.2,14.6-26.5,17.2-36.8s4.4-17.5,14.9-27.9s17.8-12.3,27.9-14.9c8.9-2.3,19.4-5,31.3-13.2c11.1,0.4,19,0.8,24.2,1.1
			c0.3,4.4,0.7,10.9,1.1,19.3c0.5,9.9,1,22.4,1.4,37.1c0.3,10.1,0.5,21.1,0.6,33.1c0,4.4,0.1,8.9,0.1,13.5c0,15.6-0.2,29.9-0.5,42.7
			c-1.9,5-3.4,10.2-4.7,15.5c-2.6,10.1-4.5,17.5-14.9,27.9s-17.8,12.3-27.9,14.9c-4.1,1-8.4,2.2-13.1,3.8c-17.1,0.4-37,0.8-59.5,1.1
			c-12.7,0.1-26.1,0.2-40.4,0.3h-11.6C174.7-39.3,167.9-39.3,161.3-39.3z"/>
	</g>
	<path class="st1" d="M182.2-200.6c11.2,0.1,22.1,3.6,31.2,10.1c1.5-3.9,2.8-8,3.7-12.1c3.1-12.1,7-27.3,24.6-44.9
		c1.4-1.4,2.7-2.7,4.1-3.9c-12.6-0.1-26.5-0.3-41.6-0.3c-2.2,4.5-3.3,8.9-4.6,14C197-227.3,193.8-214.9,182.2-200.6z"/>
	<path class="st9" d="M284.2-175.7c2.8-10.5,4.9-18,15.9-29s18.6-13,29-15.9c6.8-1.8,14.6-3.9,23.2-8.5c-0.4-8.4-0.8-14.9-1.1-19.3
		c-5.2-0.3-13.1-0.7-24.2-1.1c-11.9,8.2-22.4,10.9-31.3,13.2c-10.1,2.6-17.5,4.5-27.9,14.9s-12.3,17.8-14.9,27.9
		s-5.8,22.6-17.2,36.7c3.7,18-1.7,36.6-14.5,49.8c10.8-3.3,23.4-8.8,37.8-23.2C276.8-148.1,280.9-163.4,284.2-175.7z"/>
	<path class="st9" d="M184.3-89l1.6-1.5c-1.4,0.1-2.8,0.2-4.3,0.2c-11.9,0-23.4-3.8-32.9-10.9c-4.8,6.7-6.3,12.6-8.1,20
		c-2.9,11.4-6.5,25.3-21.3,41.5c13.1,0.2,27.2,0.3,42.1,0.4c3.1-6.6,5.5-13.5,7.2-20.6C171.3-70.4,173.3-78,184.3-89z"/>
	<path class="st1" d="M21.2-33.4L21.2-33.4z"/>
	<path class="st1" d="M20-33.5h-0.3H20z"/>
	<path class="st1" d="M17.7-33.6h-0.4H17.7z"/>
	<path class="st1" d="M18.9-33.5h-0.5H18.9z"/>
	<path class="st1" d="M27.7-33.2L27.7-33.2z"/>
	<path class="st1" d="M222.6-260.4L222.6-260.4z"/>
	<path class="st1" d="M246.1-260.2L246.1-260.2z"/>
	<path class="st1" d="M216.3-260.4L216.3-260.4z"/>
	<path class="st1" d="M26.2-33.2L26.2-33.2z"/>
	<path class="st1" d="M3.2-41.5c0-0.4-0.1-0.8-0.1-1.2C3.2-42.3,3.2-41.8,3.2-41.5z"/>
	<path class="st1" d="M9.5-34.1c-0.5-0.1-1-0.3-1.4-0.5C8.5-34.3,9-34.2,9.5-34.1z"/>
	<path class="st1" d="M5.7-36.2c-0.2-0.2-0.3-0.3-0.5-0.5C5.3-36.5,5.5-36.3,5.7-36.2z"/>
	<path class="st1" d="M3.1-43.1L3-44L3.1-43.1z"/>
	<path class="st1" d="M15.9-33.6h-0.5H15.9z"/>
	<path class="st1" d="M11.9-33.8H11H11.9z"/>
	<path class="st1" d="M13.9-33.7h-0.7H13.9z"/>
	<path class="st1" d="M14.8-33.7h-0.4H14.8z"/>
	<path class="st1" d="M12.9-33.8h-0.8H12.9z"/>
	<path class="st1" d="M234.7-260.3L234.7-260.3z"/>
	<path class="st1" d="M29-33.1L29-33.1z"/>
	<path class="st1" d="M3-45.2c0-0.1,0-0.3,0-0.4V-45.2z"/>
	<path class="st1" d="M257-260L257-260z"/>
	<path class="st1" d="M210-260.5L210-260.5z"/>
	<path class="st2" d="M2.1-60.3v-0.6V-60.3z"/>
	<path class="st2" d="M1.1-82.2L1.1-82.2z"/>
	<path class="st2" d="M2-62.4V-63V-62.4z"/>
	<path class="st2" d="M185.9-260.5L185.9-260.5z"/>
	<path class="st2" d="M173.8-260.5L173.8-260.5z"/>
	<path class="st2" d="M1.6-70.7L1.6-70.7z"/>
	<path class="st2" d="M1.4-74.6v-0.8V-74.6z"/>
	<path class="st2" d="M1.3-77.1V-78V-77.1z"/>
	<path class="st2" d="M2.4-55.2v-0.5V-55.2z"/>
	<path class="st2" d="M209.9-260.5L209.9-260.5z"/>
	<path class="st2" d="M1.7-68.2v-0.7V-68.2z"/>
	<path class="st2" d="M1.8-66.3L1.8-66.3z"/>
	<path class="st2" d="M206-260.5L206-260.5z"/>
	<path class="st2" d="M196-260.5L196-260.5z"/>
	<path class="st2" d="M187.2-260.5L187.2-260.5z"/>
	<path class="st2" d="M191.8-260.5L191.8-260.5z"/>
	<path class="st2" d="M202.2-260.5L202.2-260.5z"/>
	<polygon class="st10" points="1.1,-82.2 1.1,-82.2 1.1,-82.2 	"/>
	<path class="st10" d="M146.7-260.4L146.7-260.4z"/>
	<path class="st10" d="M150.9-260.4L150.9-260.4z"/>
	<path class="st10" d="M159.4-260.5L159.4-260.5z"/>
	<path class="st10" d="M155.1-260.5L155.1-260.5z"/>
	<path class="st10" d="M168.3-260.5L168.3-260.5z"/>
	<path class="st10" d="M163.8-260.5L163.8-260.5z"/>
	<path class="st10" d="M142.6-260.4L142.6-260.4z"/>
	<path class="st10" d="M0.3-111.7v-1.4V-111.7z"/>
	<path class="st10" d="M138.8-260.4L138.8-260.4z"/>
	<path class="st10" d="M0.4-107v-1.6V-107z"/>
	<path class="st10" d="M173-260.5L173-260.5z"/>
	<path class="st10" d="M0.5-102.6c0-0.5,0-1,0-1.5C0.5-103.6,0.5-103.1,0.5-102.6z"/>
	<path class="st10" d="M0.7-94.2v-0.9V-94.2z"/>
	<path class="st10" d="M0.6-98.3c0-0.4,0-0.9,0-1.3C0.6-99.2,0.6-98.8,0.6-98.3z"/>
	<path class="st9" d="M104.4-260L104.4-260z"/>
	<path class="st9" d="M98.9-259.9L98.9-259.9z"/>
	<path class="st9" d="M0-141.1L0-141.1z"/>
	<path class="st9" d="M0-157.6L0-157.6z"/>
	<path class="st9" d="M0-151.3L0-151.3z"/>
	<path class="st9" d="M0-136.6c0-1,0-2.1,0-3.1C0-138.7,0-137.7,0-136.6z"/>
	<path class="st9" d="M0.2-117.9c0-1.2,0-2.5-0.1-3.8C0.2-120.4,0.2-119.2,0.2-117.9z"/>
	<path class="st9" d="M0.1-122.9c0-1,0-1.9,0-2.9C0.1-124.8,0.1-123.9,0.1-122.9z"/>
	<path class="st9" d="M0.1-127.1c0-2.7,0-5.5-0.1-8.3C0-132.6,0.1-129.8,0.1-127.1z"/>
	<path class="st9" d="M138.6-260.4L138.6-260.4z"/>
	<path class="st9" d="M120.6-260.2L120.6-260.2z"/>
	<path class="st9" d="M115.2-260.1L115.2-260.1z"/>
	<path class="st9" d="M126.6-260.3L126.6-260.3z"/>
	<path class="st9" d="M132.3-260.3L132.3-260.3z"/>
	<path class="st9" d="M94.5-259.9L94.5-259.9z"/>
	<polygon class="st9" points="0.2,-170.3 0.2,-170.3 0.2,-170.3 	"/>
	<path class="st9" d="M109.4-260.1L109.4-260.1z"/>
	<path class="st1" d="M258-31.1L258-31.1z"/>
	<path class="st1" d="M269.7-31.3L269.7-31.3z"/>
	<path class="st1" d="M264-31.2L264-31.2z"/>
	<path class="st1" d="M363.2-150.1c0,1.5,0,3.1,0,4.7C363.2-147,363.2-148.6,363.2-150.1z"/>
	<path class="st1" d="M363.2-129.8c0,0.5,0,0.9,0,1.4C363.2-128.9,363.2-129.4,363.2-129.8z"/>
	<path class="st1" d="M363.2-135.6v3.5V-135.6z"/>
	<path class="st1" d="M363.2-139.9c0,1,0,2,0,2.9C363.2-138,363.2-139,363.2-139.9z"/>
	<path class="st1" d="M363.2-145.5c0,1.4,0,2.8,0,4.2C363.2-142.7,363.2-144.1,363.2-145.5z"/>
	<path class="st1" d="M363.2-154.7L363.2-154.7z"/>
	<path class="st2" d="M363.1-172.1c0,0.3,0,0.5,0,0.8C363.1-171.5,363.1-171.8,363.1-172.1z"/>
	<path class="st2" d="M200.1-30.5L200.1-30.5z"/>
	<path class="st2" d="M362.8-187.7L362.8-187.7z"/>
	<path class="st2" d="M362.7-191.4L362.7-191.4z"/>
	<path class="st2" d="M363-176.2c0,0.3,0,0.5,0,0.8C363-175.6,363-175.9,363-176.2z"/>
	<path class="st2" d="M362.9-180.1c0,0.2,0,0.5,0,0.7C362.9-179.7,362.9-179.9,362.9-180.1z"/>
	<path class="st2" d="M195.6-30.4L195.6-30.4z"/>
	<path class="st2" d="M363.1-167.9c0,0.2,0,0.4,0,0.6C363.1-167.5,363.1-167.7,363.1-167.9z"/>
	<path class="st2" d="M362.8-184c0,0.2,0,0.4,0,0.5C362.8-183.6,362.8-183.8,362.8-184z"/>
	<polygon class="st2" points="362.6,-194.9 362.6,-194.9 362.6,-194.9 	"/>
	<path class="st10" d="M361.4-226.2c0,0.1,0,0.2,0,0.3C361.4-226,361.4-226.1,361.4-226.2z"/>
	<path class="st10" d="M361.8-216.8L361.8-216.8z"/>
	<path class="st10" d="M361-234.3L361-234.3L361-234.3z"/>
	<path class="st10" d="M362.6-194.9L362.6-194.9z"/>
	<path class="st10" d="M361.6-222.2c0,0.3,0,0.5,0,0.8C361.6-221.7,361.6-222,361.6-222.2z"/>
	<path class="st10" d="M361.7-219.6v0.7V-219.6z"/>
	<path class="st10" d="M361.1-231.1c0,0.4,0,0.9,0.1,1.3C361.2-230.2,361.1-230.7,361.1-231.1z"/>
	<path class="st10" d="M162.5-30.5L162.5-30.5z"/>
	<path class="st10" d="M168.9-30.4L168.9-30.4z"/>
	<path class="st10" d="M175.8-30.4L175.8-30.4z"/>
	<path class="st10" d="M186.5-30.4L186.5-30.4z"/>
	<path class="st10" d="M361.2-228.6l0.1,1.2L361.2-228.6z"/>
	<path class="st10" d="M361-233.7l0.1,1.6L361-233.7z"/>
	<path class="st9" d="M361-234.4v-0.5V-234.4z"/>
	<polygon class="st9" points="337.5,-257.9 337.5,-257.9 337.5,-257.9 	"/>
	<path class="st9" d="M360-249.6c0,0.7,0.1,1.5,0.2,2.3C360.1-248.1,360.1-248.9,360-249.6z"/>
	<path class="st9" d="M116-30.9L116-30.9z"/>
	<path class="st9" d="M345.9-257.5L345.9-257.5z"/>
	<path class="st9" d="M342-257.7L342-257.7z"/>
	<path class="st9" d="M360.8-237c0,0.1,0,0.2,0,0.3C360.8-236.8,360.8-236.9,360.8-237z"/>
	<path class="st9" d="M126.9-30.8L126.9-30.8z"/>
	<path class="st9" d="M144.2-30.6L144.2-30.6z"/>
	<path class="st9" d="M132.6-30.7L132.6-30.7z"/>
	<path class="st9" d="M339.7-257.8L339.7-257.8z"/>
	<path class="st9" d="M347.7-257.4L347.7-257.4z"/>
	<path class="st9" d="M360.6-241.1L360.6-241.1z"/>
	<path class="st9" d="M360.7-239.4v0.5V-239.4z"/>
	<path class="st9" d="M360.4-243.2L360.4-243.2z"/>
	<path class="st9" d="M349.2-257.4L349.2-257.4z"/>
	<path class="st9" d="M350.8-257.3h0.3H350.8z"/>
	<path class="st9" d="M359.2-252.5c0.3,0.7,0.5,1.4,0.7,2.1C359.8-251.1,359.6-251.8,359.2-252.5z"/>
</g>
<g class="st0">
	<g class="st3">
		<path class="st6" d="M181.6-191.8c-25.6,0-46.3,20.7-46.3,46.3s20.7,46.3,46.3,46.3c25.6,0,46.3-20.7,46.3-46.3c0,0,0,0,0,0
			C228-171.1,207.2-191.8,181.6-191.8L181.6-191.8z M165.2-163.8c0.7-3,3.7-4.8,6.6-4.1c0,0,0,0,0.1,0c3.3,0.9,8.5,2.9,16.7,7.5
			c10.2,5.8,14.5,9.7,16.2,12.1c0.8,1.2,0.9,2.8,0.1,4.1c-2.3,3.7-8.5,8.8-17.5,13.9c-6.5,3.7-12.3,6.5-16.1,7.2
			c-2.9,0.4-5.6-1.4-6.3-4.3C162.2-139.5,162.3-151.9,165.2-163.8L165.2-163.8z"/>
	</g>
	<path class="st9" d="M165.1-127.5c0.6,2.9,3.4,4.8,6.3,4.3c3.8-0.7,9.6-3.5,16.1-7.2c9-5.1,15.2-10.2,17.5-13.9
		c0.7-1.3,0.7-2.9-0.1-4.1c-1.8-2.4-6-6.3-16.2-12.1c-8.1-4.6-13.4-6.7-16.7-7.5c-3-0.7-6,1.1-6.7,4.1c0,0,0,0,0,0.1
		C162.3-151.9,162.2-139.5,165.1-127.5L165.1-127.5z"/>
</g>
<g class="st0">
	<path class="st2" d="M17.9-271.7l-4.4,0.2l0,0l-0.3-4.7c-0.1-0.9-0.8-1.6-1.7-1.5c-0.3,0-0.6,0.1-0.8,0.3l-9.9,6.6
		c-0.7,0.5-0.9,1.5-0.5,2.2c0.2,0.2,0.4,0.4,0.6,0.6l10.7,5.2c0.8,0.4,1.8,0.1,2.2-0.7c0.1-0.3,0.2-0.5,0.2-0.8l-0.3-4.2l4.4-0.2
		c0.8,0,1.4-0.7,1.4-1.5S18.7-271.7,17.9-271.7L17.9-271.7z"/>
	<path class="st2" d="M196.1-275.2h-8.9l0,0c-0.8,0-1.5,0.7-1.5,1.5s0.7,1.5,1.5,1.5h8.9l0,0c0.8,0,1.5-0.7,1.5-1.5
		S196.9-275.2,196.1-275.2L196.1-275.2z"/>
	<path class="st2" d="M213.9-275.1l-8.9-0.1l0,0c-0.8,0-1.5,0.7-1.5,1.5s0.7,1.5,1.5,1.5l8.9,0.1l0,0c0.8-0.1,1.4-0.8,1.4-1.6
		C215.2-274.4,214.6-275,213.9-275.1L213.9-275.1z"/>
	<path class="st2" d="M178.2-275.3h-0.4h-8.5c-0.8,0-1.5,0.7-1.5,1.5s0.7,1.5,1.5,1.5h8.9c0.8,0.1,1.5-0.5,1.6-1.4
		c0.1-0.8-0.5-1.5-1.4-1.6C178.4-275.3,178.3-275.3,178.2-275.3L178.2-275.3z"/>
	<path class="st2" d="M249.6-274.6l-8.9-0.1c-0.8,0-1.5,0.6-1.5,1.5c0,0.8,0.6,1.5,1.4,1.5c0,0,0,0,0,0l8.9,0.1l0,0
		c0.8,0,1.5-0.7,1.5-1.5S250.3-274.6,249.6-274.6L249.6-274.6L249.6-274.6z"/>
	<path class="st2" d="M231.7-274.9l-8.9-0.1c-0.8,0-1.5,0.6-1.5,1.4c0,0,0,0,0,0c0,0.8,0.6,1.5,1.4,1.5c0,0,0,0,0,0l8.9,0.1l0,0
		c0.8,0,1.5-0.7,1.5-1.5S232.5-274.9,231.7-274.9L231.7-274.9z"/>
	<path class="st2" d="M267.4-274.3l-8.9-0.2l0,0c-0.8,0-1.5,0.7-1.5,1.5s0.7,1.5,1.5,1.5l8.9,0.2l0,0c0.8-0.1,1.4-0.8,1.4-1.6
		C268.7-273.7,268.1-274.2,267.4-274.3z"/>
	<path class="st2" d="M142.6-275.1L142.6-275.1l-8.9,0.1c-0.8,0.1-1.4,0.8-1.4,1.6c0.1,0.7,0.6,1.3,1.4,1.4l0,0l8.9-0.1
		c0.8-0.1,1.4-0.8,1.4-1.6C143.9-274.4,143.4-275,142.6-275.1L142.6-275.1z"/>
	<path class="st2" d="M160.4-275.2L160.4-275.2l-8.9,0.1c-0.8,0-1.5,0.7-1.5,1.5s0.7,1.5,1.5,1.5l0,0l8.9-0.1
		c0.8,0.1,1.5-0.5,1.6-1.4c0.1-0.8-0.5-1.5-1.4-1.6C160.6-275.2,160.5-275.2,160.4-275.2L160.4-275.2z"/>
	<path class="st2" d="M71.3-273.6l-8.9,0.3c-0.8,0.1-1.4,0.8-1.4,1.6c0.1,0.7,0.6,1.3,1.4,1.4l0,0l8.9-0.3c0.8,0,1.5-0.7,1.5-1.5
		C72.8-273,72.1-273.7,71.3-273.6L71.3-273.6z"/>
	<path class="st2" d="M89.2-274.1l-8.9,0.2c-0.8,0-1.5,0.7-1.5,1.5s0.7,1.5,1.5,1.5l0,0l8.9-0.2c0.8,0,1.5-0.7,1.4-1.5
		S89.9-274.1,89.2-274.1L89.2-274.1L89.2-274.1z"/>
	<path class="st2" d="M35.7-272.4l-8.9,0.4c-0.8,0.1-1.4,0.8-1.3,1.6c0.1,0.7,0.7,1.3,1.4,1.3h0.1l8.9-0.4c0.8,0,1.4-0.7,1.4-1.5
		C37.2-271.8,36.5-272.4,35.7-272.4L35.7-272.4z"/>
	<path class="st2" d="M53.5-273.1l-8.9,0.3c-0.8,0-1.5,0.7-1.5,1.5s0.7,1.5,1.5,1.5h0.1l8.9-0.3c0.8,0,1.4-0.7,1.4-1.5c0,0,0,0,0,0
		C54.9-272.4,54.3-273.1,53.5-273.1z"/>
	<path class="st2" d="M107-274.5l-8.9,0.2c-0.8,0-1.5,0.7-1.5,1.5s0.7,1.5,1.5,1.5l0,0l8.9-0.2c0.8-0.1,1.4-0.8,1.3-1.6
		C108.2-273.9,107.6-274.5,107-274.5L107-274.5z"/>
	<path class="st2" d="M124.8-274.8l-8.9,0.1c-0.8,0-1.5,0.7-1.5,1.5s0.7,1.5,1.5,1.5l0,0c2.9-0.1,5.9-0.1,8.9-0.1
		c0.8,0,1.5-0.7,1.5-1.5C126.3-274.1,125.6-274.8,124.8-274.8C124.8-274.8,124.8-274.8,124.8-274.8z"/>
	<path class="st2" d="M280.6-274l-4.4-0.1l0,0c-0.8,0-1.5,0.7-1.5,1.5s0.7,1.5,1.5,1.5l4.4,0.1l0,0c0.8-0.1,1.4-0.8,1.4-1.6
		C281.9-273.4,281.4-274,280.6-274L280.6-274z"/>
	<path class="st2" d="M377.7-215.9L377.7-215.9c0.8,0,1.4-0.7,1.4-1.5l-0.2-4.4c0-0.8-0.7-1.5-1.6-1.4s-1.5,0.7-1.4,1.6l0.2,4.4
		C376.1-216.6,376.8-215.9,377.7-215.9C377.6-215.9,377.7-215.9,377.7-215.9z"/>
	<path class="st2" d="M378.8-174.7L378.8-174.7c-0.8,0-1.5,0.7-1.5,1.5c0,2.9,0.1,5.9,0.1,8.8c0,0.8,0.7,1.5,1.5,1.5l0,0
		c0.8,0,1.5-0.7,1.5-1.5c0,0,0,0,0,0c0-3,0-5.9-0.1-8.9C380.3-174.1,379.6-174.7,378.8-174.7z"/>
	<path class="st2" d="M377.9-210.1c-0.8,0-1.5,0.7-1.4,1.5c0,0,0,0,0,0c0.1,2.9,0.2,5.8,0.3,8.8c0,0.8,0.7,1.4,1.5,1.4l0,0
		c0.8,0,1.4-0.7,1.4-1.5c0,0,0,0,0,0c-0.1-3-0.2-6-0.3-8.9C379.4-209.4,378.7-210.1,377.9-210.1z"/>
	<path class="st2" d="M378.4-192.4c-0.8,0-1.5,0.7-1.4,1.5c0.1,2.9,0.1,5.8,0.2,8.8c0,0.8,0.7,1.5,1.5,1.5l0,0
		c0.8,0,1.5-0.7,1.4-1.5c0,0,0,0,0,0c0-3-0.1-6-0.2-8.9C379.9-191.7,379.2-192.4,378.4-192.4z"/>
	<path class="st2" d="M380.5-137.9c0-0.8-0.7-1.5-1.5-1.5l0,0c-0.8,0-1.5,0.6-1.5,1.5c0,0,0,0,0,0c0,3,0,6,0,8.8
		c0,0.8,0.6,1.5,1.5,1.5c0,0,0,0,0,0l0,0c0.8,0,1.5-0.6,1.5-1.4c0,0,0,0,0,0C380.5-131.9,380.5-134.8,380.5-137.9z"/>
	<path class="st2" d="M376.4-56.9h0.1c0.8,0,1.4-0.6,1.5-1.3c0.2-2.8,0.4-5.7,0.6-8.8c0-0.8-0.6-1.5-1.4-1.6s-1.5,0.6-1.6,1.4l0,0
		c-0.2,3.1-0.4,6-0.6,8.8C375-57.6,375.6-57,376.4-56.9z"/>
	<path class="st2" d="M380-102.5c0-0.8-0.6-1.5-1.4-1.5c0,0,0,0,0,0c-0.8,0-1.5,0.6-1.5,1.4c0,0,0,0,0,0c-0.1,3.1-0.2,6-0.3,8.8
		c0,0.8,0.6,1.5,1.4,1.5c0,0,0,0,0,0l0,0c0.8,0,1.4-0.6,1.5-1.4C379.8-96.4,379.9-99.4,380-102.5z"/>
	<path class="st2" d="M378-86.3c-0.8,0-1.5,0.6-1.5,1.4c-0.1,3.1-0.3,6.1-0.4,8.8c0,0.8,0.6,1.5,1.4,1.5h0.1c0.8,0,1.4-0.6,1.5-1.4
		c0.1-2.8,0.3-5.7,0.4-8.9C379.5-85.6,378.8-86.3,378-86.3z"/>
	<path class="st2" d="M379-157L379-157c-0.8,0-1.5,0.7-1.5,1.5c0,0,0,0,0,0c0,2.9,0,5.9,0,8.8c0,0.8,0.7,1.5,1.5,1.5l0,0
		c0.8,0,1.5-0.7,1.5-1.5c0-3,0-5.9,0-8.9C380.5-156.4,379.8-157,379-157C379-157,379-157,379-157z"/>
	<path class="st2" d="M380.3-120.2c0-0.8-0.6-1.5-1.4-1.5c0,0,0,0,0,0l0,0c-0.8,0-1.5,0.6-1.5,1.5c0,3-0.1,6-0.1,8.8
		c0,0.8,0.6,1.5,1.4,1.5c0,0,0,0,0,0l0,0c0.8,0,1.5-0.6,1.5-1.5C380.2-114.2,380.3-117.1,380.3-120.2z"/>
	<path class="st2" d="M380.8-44.6l-4.1-0.4c0-0.1,0.2-1.5,0.5-4.4c0.1-0.8-0.5-1.5-1.3-1.6c-0.8-0.1-1.5,0.5-1.6,1.3
		c-0.3,2.9-0.5,4.3-0.5,4.4s0,0.1,0,0.1l-4.8-0.4c-0.9-0.1-1.7,0.6-1.8,1.5c0,0.3,0,0.6,0.1,0.8l5,10.8c0.4,0.8,1.3,1.2,2.2,0.8
		c0.3-0.1,0.5-0.3,0.6-0.5l6.8-9.8c0.5-0.7,0.3-1.7-0.4-2.2C381.4-44.5,381.1-44.6,380.8-44.6z"/>
	<path class="st2" d="M232.9-17.3l-8.6,0.1c-0.8,0-1.5,0.7-1.5,1.5s0.7,1.5,1.5,1.5l0,0l8.6-0.1c0.8,0,1.5-0.7,1.5-1.5c0,0,0,0,0,0
		C234.4-16.6,233.8-17.3,232.9-17.3z"/>
	<path class="st2" d="M250.2-17.6l-8.6,0.2c-0.8,0-1.5,0.7-1.5,1.5s0.7,1.5,1.5,1.5l0,0l8.6-0.2c0.8,0,1.5-0.7,1.4-1.5c0,0,0,0,0,0
		C251.7-16.9,251-17.6,250.2-17.6z"/>
	<path class="st2" d="M215.7-17.1L215.7-17.1L207-17c-0.8,0-1.5,0.7-1.5,1.5s0.7,1.5,1.5,1.5l0,0l8.6-0.1c0.8-0.1,1.4-0.8,1.4-1.6
		C217-16.4,216.4-17,215.7-17.1L215.7-17.1z"/>
	<path class="st2" d="M198.4-17L198.4-17h-8.6c-0.8,0-1.5,0.7-1.5,1.5c0,0.8,0.7,1.5,1.5,1.5l0,0h8.6c0.8-0.1,1.4-0.8,1.4-1.6
		C199.7-16.4,199.1-16.9,198.4-17L198.4-17z"/>
	<path class="st2" d="M319.3-19.5l-8.6,0.3c-0.8,0-1.5,0.7-1.5,1.5c0,0.8,0.7,1.5,1.5,1.5h0l8.6-0.3c0.8,0,1.4-0.7,1.4-1.5
		C320.8-18.8,320.1-19.5,319.3-19.5L319.3-19.5z"/>
	<path class="st2" d="M181.1-17h-8.6l0,0c-0.8,0.1-1.4,0.8-1.4,1.6c0.1,0.7,0.6,1.3,1.4,1.4h8.6l0,0c0.8,0,1.5-0.7,1.5-1.5
		C182.6-16.3,181.9-16.9,181.1-17L181.1-17z"/>
	<path class="st2" d="M284.8-18.4l-8.6,0.2c-0.8,0-1.5,0.7-1.5,1.5s0.7,1.5,1.5,1.5l0,0l0,0l8.6-0.2c0.8,0,1.5-0.7,1.4-1.5
		c0,0,0,0,0,0C286.2-17.7,285.6-18.4,284.8-18.4C284.8-18.4,284.8-18.4,284.8-18.4z"/>
	<path class="st2" d="M336.6-20.2l-8.6,0.3c-0.8,0-1.5,0.7-1.4,1.5s0.7,1.5,1.5,1.4l0,0h0.1l8.6-0.3c0.8,0,1.4-0.7,1.4-1.5
		c0,0,0,0,0,0C338.1-19.6,337.4-20.2,336.6-20.2C336.6-20.2,336.6-20.2,336.6-20.2z"/>
	<path class="st2" d="M302-18.9l-8.6,0.3c-0.8,0-1.5,0.7-1.5,1.5c0,0.8,0.7,1.5,1.5,1.5l0,0l8.6-0.3c0.8,0,1.5-0.7,1.4-1.5
		C303.5-18.3,302.8-19,302-18.9L302-18.9L302-18.9z"/>
	<path class="st2" d="M267.5-18l-8.6,0.2c-0.8,0-1.5,0.7-1.5,1.5c0,0.8,0.7,1.5,1.5,1.5l0,0l8.6-0.2c0.8,0,1.5-0.7,1.5-1.5
		C269-17.4,268.3-18,267.5-18L267.5-18L267.5-18z"/>
	<path class="st2" d="M94.7-18l-8.6-0.2c-0.8,0-1.5,0.6-1.5,1.4s0.6,1.5,1.4,1.5l8.6,0.2l0,0c0.8,0,1.5-0.7,1.5-1.5
		C96.1-17.3,95.5-18,94.7-18L94.7-18L94.7-18z"/>
	<path class="st2" d="M77.4-18.3l-8.6-0.2c-0.8,0-1.5,0.6-1.5,1.4c0,0,0,0,0,0c0,0.8,0.6,1.5,1.4,1.5c0,0,0,0,0,0l8.6,0.2l0,0
		c0.8,0,1.5-0.7,1.5-1.5S78.2-18.4,77.4-18.3L77.4-18.3z"/>
	<path class="st2" d="M163.8-17l-8.6-0.1l0,0c-0.8,0.1-1.4,0.8-1.4,1.6c0.1,0.7,0.6,1.3,1.4,1.4l8.6,0.1l0,0c0.8,0,1.5-0.7,1.5-1.5
		S164.7-17.1,163.8-17L163.8-17z"/>
	<path class="st2" d="M60.1-18.7l-8.6-0.2c-0.8,0-1.5,0.6-1.5,1.5c0,0.8,0.6,1.5,1.5,1.5l0,0l8.6,0.2l0,0c0.8,0,1.5-0.7,1.5-1.5
		S60.9-18.7,60.1-18.7L60.1-18.7z"/>
	<path class="st2" d="M112-17.6l-8.6-0.2c-0.8,0-1.5,0.6-1.5,1.4c0,0,0,0,0,0c0,0.8,0.6,1.5,1.5,1.5l8.6,0.2l0,0
		c0.8,0,1.5-0.7,1.5-1.5S112.8-17.7,112-17.6L112-17.6z"/>
	<path class="st2" d="M129.2-17.4l-8.6-0.1c-0.8,0-1.5,0.6-1.5,1.4c0,0,0,0,0,0c0,0.8,0.6,1.5,1.4,1.5c0,0,0,0,0,0l8.6,0.1l0,0
		c0.8-0.1,1.4-0.8,1.4-1.6C130.5-16.8,129.9-17.3,129.2-17.4L129.2-17.4z"/>
	<path class="st2" d="M146.6-17.2l-8.6-0.1c-0.8,0-1.5,0.7-1.5,1.5c0,0.8,0.7,1.5,1.5,1.5l8.6,0.1l0,0c0.8,0,1.5-0.7,1.5-1.5
		S147.4-17.3,146.6-17.2L146.6-17.2z"/>
	<path class="st2" d="M43-19.1l-4.4-0.1c-0.8,0-1.5,0.6-1.5,1.4c0,0,0,0,0,0c0,0.8,0.6,1.5,1.4,1.5l4.4,0.1l0,0
		c0.8,0,1.5-0.7,1.5-1.5C44.4-18.4,43.7-19.1,43-19.1L43-19.1L43-19.1z"/>
	<path class="st2" d="M362.3-21.2l-10.7-5.2c-0.8-0.4-1.8-0.1-2.2,0.7c-0.1,0.3-0.2,0.5-0.2,0.8l0.3,4.2l-4.4,0.2
		c-0.8,0-1.5,0.7-1.4,1.5s0.7,1.5,1.5,1.4h0.1l4.4-0.2l0,0l0.3,4.7c0.1,0.9,0.8,1.6,1.7,1.5c0.3,0,0.5-0.1,0.8-0.3l9.9-6.6
		c0.7-0.5,1-1.5,0.5-2.2C362.8-20.9,362.6-21.1,362.3-21.2z"/>
	<g class="st3">
		<path class="st5" d="M-15.6-118.8L-15.6-118.8c-0.8,0-1.5,0.7-1.5,1.5c0,0,0,0,0,0c0,1.5,0,3,0.1,4.4c0,0.8,0.7,1.5,1.5,1.5l0,0
			c0.8,0,1.5-0.7,1.4-1.5c0,0,0,0,0,0c0-1.5,0-2.9-0.1-4.4C-14.1-118.1-14.8-118.8-15.6-118.8z"/>
		<path class="st5" d="M-17.3-146.6v1c0,0.8,0.6,1.5,1.5,1.5c0,0,0,0,0,0l0,0c0.8,0,1.5-0.6,1.5-1.5c0,0,0,0,0,0v-1
			c0-2.9,0-5.7,0-8.4c0-0.8-0.6-1.5-1.5-1.5c0,0,0,0,0,0l0,0c-0.8,0-1.5,0.7-1.5,1.5l0,0C-17.3-152.3-17.3-149.5-17.3-146.6z"/>
		<path class="st5" d="M-15.1-194.2c-0.8,0-1.5,0.6-1.5,1.4c-0.1,3-0.2,6.1-0.3,9.4c0,0.8,0.6,1.5,1.4,1.5l0,0
			c0.8,0,1.5-0.6,1.5-1.4c0.1-3.3,0.1-6.4,0.3-9.4C-13.7-193.5-14.3-194.2-15.1-194.2z"/>
		<path class="st5" d="M-14.3-213c-0.8,0-1.5,0.6-1.6,1.4c-0.1,2.9-0.3,6.1-0.4,9.4c0,0.8,0.6,1.5,1.4,1.5c0,0,0,0,0,0h0.1
			c0.8,0,1.4-0.6,1.5-1.4c0.1-3.3,0.3-6.5,0.4-9.4C-12.8-212.3-13.5-213-14.3-213C-14.3-213-14.3-213-14.3-213z"/>
		<path class="st5" d="M-13.2-231.8c-0.8-0.1-1.5,0.5-1.6,1.4c-0.2,3-0.4,6.2-0.6,9.4c0,0.8,0.6,1.5,1.4,1.5h0.1
			c0.8,0,1.4-0.6,1.5-1.4c0.2-3.3,0.4-6.4,0.6-9.4C-11.8-231-12.4-231.7-13.2-231.8z"/>
		<path class="st5" d="M-15.7-163L-15.7-163c0.8,0,1.5-0.6,1.5-1.5c0-3.2,0-6.4,0.1-9.4c0.1-0.8-0.5-1.5-1.3-1.6s-1.5,0.5-1.6,1.3
			c0,0.1,0,0.2,0,0.2c-0.1,3-0.1,6.2-0.1,9.4C-17.2-163.6-16.5-163-15.7-163C-15.7-163-15.7-163-15.7-163z"/>
		<path class="st5" d="M-15.7-125.2L-15.7-125.2c0.8,0,1.5-0.7,1.5-1.5c0-3.1,0-6.2-0.1-9.4c0-0.8-0.7-1.5-1.5-1.5c0,0,0,0,0,0l0,0
			c-0.8,0-1.5,0.7-1.5,1.5c0,0,0,0,0,0c0,3.2,0,6.3,0.1,9.4C-17.2-125.9-16.5-125.2-15.7-125.2z"/>
		<path class="st5" d="M-4.2-245.9l-5-10.8c-0.4-0.8-1.3-1.2-2.2-0.8c-0.3,0.1-0.5,0.3-0.6,0.5l-6.8,9.8c-0.5,0.7-0.3,1.7,0.4,2.2
			c0.2,0.2,0.5,0.3,0.8,0.3l4.1,0.4c0,0.1-0.2,1.5-0.5,4.4c-0.1,0.8,0.5,1.5,1.3,1.6c0,0,0,0,0,0h0.1c0.8,0,1.4-0.6,1.5-1.3
			c0.3-2.9,0.5-4.3,0.5-4.4v-0.1l4.8,0.4c0.9,0.1,1.7-0.6,1.7-1.5C-4-245.4-4.1-245.7-4.2-245.9z"/>
	</g>
</g>
<g class="st0">
	<path class="st9" d="M405.8-218.7h120.1c1.9,0,3.4,1.5,3.4,3.4v2.5c0,1.9-1.5,3.4-3.4,3.4H405.8c-1.9,0-3.4-1.5-3.4-3.4v-2.5
		C402.4-217.2,403.9-218.7,405.8-218.7z"/>
	<path class="st9" d="M498.1-234.6v4.2c0.1,1.5,1.5,2.6,3,2.5c0,0,0,0,0,0h25.2c1.5,0.1,2.8-1,2.9-2.5v-4.2
		c-0.1-1.5-1.4-2.6-2.9-2.5h-25.3C499.6-237.2,498.3-236.1,498.1-234.6z"/>
	<path class="st9" d="M487.6-237.1h-82.2c-1.5-0.1-2.8,1-2.9,2.5v4.2c0.1,1.5,1.4,2.6,2.9,2.5h82.2c1.5,0.1,2.8-1,2.9-2.5v-4.2
		C490.4-236.1,489.1-237.2,487.6-237.1z"/>
	<path class="st9" d="M405.8-182h120.1c1.9,0,3.4,1.5,3.4,3.4v2.5c0,1.9-1.5,3.4-3.4,3.4H405.8c-1.9,0-3.4-1.5-3.4-3.4v-2.5
		C402.4-180.5,403.9-182,405.8-182z"/>
	<path class="st9" d="M425.6-157v-4.2c-0.1-1.5-1.4-2.6-3-2.5h-17.3c-1.5-0.1-2.8,1-2.9,2.5v4.2c0.1,1.5,1.4,2.6,2.9,2.5h17.3
		C424.2-154.3,425.5-155.5,425.6-157z"/>
	<path class="st9" d="M436.2-154.5h72.5c1.5,0.1,2.9-1,3-2.5c0,0,0,0,0,0v-4.2c-0.1-1.5-1.5-2.6-3-2.5c0,0,0,0,0,0h-72.5
		c-1.5-0.1-2.9,1-3,2.5c0,0,0,0,0,0v4.2C433.4-155.4,434.7-154.3,436.2-154.5C436.2-154.5,436.2-154.5,436.2-154.5z"/>
	<path class="st9" d="M444.9-200.4h-39.5c-1.5-0.1-2.8,1-2.9,2.5v4.2c0.1,1.5,1.4,2.6,2.9,2.5h39.5c1.5,0.1,2.9-1,3-2.5c0,0,0,0,0,0
		v-4.2C447.7-199.4,446.4-200.5,444.9-200.4C444.9-200.4,444.9-200.4,444.9-200.4z"/>
	<path class="st9" d="M455.5-197.9v4.2c0.1,1.5,1.4,2.6,3,2.5h29.2c1.5,0.1,2.8-1,2.9-2.5v-4.2c-0.1-1.5-1.4-2.6-2.9-2.5h-29.2
		C456.9-200.5,455.6-199.4,455.5-197.9z"/>
</g>
<g class="st0">
	<circle class="st9" cx="-39.3" cy="-311" r="33.9"/>
	<path class="st10" d="M-15-299.5c-1.8-9.1-8.3-10.5-16.9-9.7c-0.2,0-0.4-0.1-0.4-0.3c0-0.1,0-0.3,0.1-0.4c2.6-2.5,3.2-6.2,2.6-10.1
		c-1-6.2-3.9-10.9-12.8-9.4s-10.1,6.9-9,13.1c0.7,3.9,2.5,7.2,5.7,8.7c0.2,0.1,0.3,0.3,0.2,0.5c-0.1,0.1-0.1,0.2-0.3,0.2
		c-8.3,2-14,5.5-12.8,14.7c0.1,0.4,0.3,0.8,0.6,1c12.2,10.1,30.3,8.4,40.4-3.8c0.9-1.1,1.7-2.2,2.5-3.4
		C-15-298.7-14.9-299.1-15-299.5z"/>
	<path class="st2" d="M-27.4-358.8c-4.4-2.1-9-3.7-13.7-4.8c0.1-0.3,0.1-0.6,0.2-0.9c0.4-4.5-2.8-8.4-7.3-8.9c0,0,0,0,0,0
		c-4.6-0.4-9.2-0.4-13.8,0.1c-1.4-3.4-5.1-5.3-8.7-4.5c-8,1.8-15.6,5.1-22.3,9.9l-1.3,0.9c-0.4,0.3-0.8,0.7-1.3,1l-2.5,2.1
		c-1.6,1.5-3.1,3.1-4.6,4.8c-2.9,3.4-5.4,7.2-7.3,11.3c-2.6,5.7-4.2,11.8-4.7,18l0,0c-1,9.1-0.3,14.2-2.1,18.5
		c-1,1.7-2.1,3.4-3.5,4.9c-0.4,0.4-0.7,0.7-1,1.1c-1.9,1.9-4.2,3.5-6.7,4.6l-17.4,8.3c-2.4,1.1,0.6,12.4,6.7,25.1
		s14.1,24.8,16.4,23.7l17.3-8.6c6.3-3,12.2-7.5,29.3-5.3l0.9,0.2c0.7,0.1,1.4,0.2,2.1,0.3h0.1l0,0c1.3,0.1,2.5,0.2,3.7,0.3h2.9
		c0.5,0,1,0,1.4,0l1.4-0.1c7.3-0.7,14.3-3,20.6-6.6c4.1-2.4,5.5-7.6,3.1-11.7c-1.7-2.9-4.9-4.5-8.3-4.2h-0.4
		c-5.2,0.7-10.4,0.8-15.6,0.5l-0.9-0.1l-0.9-0.1l-1.7-0.2c-1.1-0.3-2.2-0.4-3.2-0.7s-2-0.6-3.1-1l-1.5-0.6c-0.5-0.2-0.9-0.5-1.4-0.7
		c-15.9-8.4-18.8-42,5.5-56.1c0.7-0.3,1.3-0.7,2-1l2-0.9c1.4-0.5,2.8-1.1,4.3-1.5c1.5-0.4,3-0.8,4.5-1.1l2.4-0.4l1.2-0.2l1.2-0.1
		c6.9-0.5,13.9-0.3,20.8,0.6h0.2c4.7,0.5,8.9-2.8,9.4-7.4C-22.2-353.8-24.2-357.3-27.4-358.8L-27.4-358.8z"/>
	
		<ellipse transform="matrix(0.9029 -0.4299 0.4299 0.9029 103.3797 -82.6502)" class="st11" cx="-131.2" cy="-270.1" rx="4.2" ry="21.2"/>
	<path class="st11" d="M-63.5-264.9c-0.2-0.8-0.4-1.6-0.6-2.4c-0.2-0.8-0.6-1.6-0.9-2.3l0,0c-0.1-0.2-0.3-0.3-0.5-0.4
		c-0.4-0.1-0.8,0.2-0.9,0.6c0,0,0,0,0,0c-0.2,0.9-0.2,1.7-0.2,2.6c0,0.8,0.2,1.7,0.3,2.5c0.2,0.8,0.4,1.6,0.7,2.4
		c0.3,0.8,0.7,1.6,1.1,2.3c0.1,0.2,0.3,0.3,0.6,0.4c0.4,0,0.8-0.3,0.9-0.7c0,0,0,0,0,0l0,0c0.1-0.8,0.1-1.7,0-2.5
		C-63.2-263.3-63.3-264.1-63.5-264.9z"/>
	<path class="st11" d="M-69.8-262.3l-0.4-1.6c-0.1-0.5-0.3-1.1-0.4-1.6c-0.1-0.6-0.3-1.2-0.6-1.7v-0.1c-0.1-0.2-0.2-0.3-0.4-0.4
		c-0.4-0.2-0.9-0.1-1.1,0.3c-0.6,1.3-0.8,2.7-0.4,4.1c0.2,0.7,0.4,1.4,0.8,2c0.4,0.6,0.9,1.2,1.5,1.6c0.1,0.1,0.3,0.1,0.5,0.1
		c0.4,0,0.8-0.4,0.7-0.8c0,0,0,0,0,0v-0.2C-69.6-261.1-69.7-261.7-69.8-262.3z"/>
	<path class="st11" d="M-50.1-268.1c-1.6-4.9,6.6-7.3,8.6-2.1C-40-266.1-47.9-261.2-50.1-268.1z"/>
	<path class="st11" d="M-27.4-358.8c2.4,4.2-4,5.9-8.2-3.2C-32.8-361.2-30-360.1-27.4-358.8z"/>
	<path class="st11" d="M-44.5-365c-2.6-0.6-5.3-1-8-1.3c-1.4-0.1-2.7-0.3-4.1-0.2l-4,0.1h-0.1c-1.8,0.2-3.7,0.3-5.7,0.7
		c-0.5,0.1-1,0.2-1.4,0.3l-1.4,0.3c-0.9,0.2-1.9,0.4-2.8,0.7c-3.7,1-7.3,2.5-10.7,4.4c-6.8,3.6-12.7,8.7-17.3,14.8
		c-0.3,0.3-0.2,0.8,0.1,1.1c0.3,0.3,0.8,0.2,1.1-0.1l0,0c1.3-1.3,2.6-2.6,4-3.9c1.4-1.2,2.8-2.4,4.3-3.5c2.9-2.2,6-4.2,9.3-5.9
		c3.2-1.7,6.6-3,10.1-4l0.8,1.6c0.4,0.7,0.7,1.5,1,2.2s0.6,1.5,0.9,2.3s0.6,1.6,1,2.4v0.1c0.1,0.2,0.3,0.4,0.6,0.4
		c0.4,0.1,0.8-0.2,0.9-0.6c0.3-1.9,0.1-3.9-0.8-5.7c-0.4-0.9-0.9-1.7-1.5-2.5c-0.2-0.3-0.4-0.5-0.7-0.7l0.5-0.1l1.4-0.3
		c0.4-0.1,0.9-0.2,1.3-0.3l1.7-0.3c0.1,0.3,0.2,0.6,0.4,1l0.6,1.5c0.2,0.5,0.5,1,0.7,1.5c0.3,0.6,0.5,1.1,0.9,1.6v0.1
		c0.1,0.2,0.3,0.3,0.4,0.3c0.4,0.1,0.9-0.1,1-0.5c0.4-1.4,0.3-2.8-0.4-4.1c-0.3-0.6-0.6-1.1-1-1.6l1.1-0.2l3.9-0.2
		c1.3-0.1,2.6-0.1,3.9,0c2.6,0,5.3,0.2,7.9,0.6c0.4,0.1,0.8-0.2,0.9-0.6s-0.2-0.8-0.6-0.9L-44.5-365z"/>
	<path class="st11" d="M-99-353.9L-99-353.9c1.2-1.1,2.4-2.3,3.6-3.4c1.2-1.1,2.5-2.1,3.8-3.1c2.6-2,5.3-3.8,8.1-5.5
		c2.8-1.6,5.7-3,8.8-4.2c0.8-0.3,1.5-0.6,2.3-0.9c0.8-0.3,1.5-0.5,2.3-0.8c1.6-0.5,3.2-0.9,4.8-1.4c0.4-0.1,0.6-0.6,0.5-0.9
		c-0.1-0.3-0.4-0.5-0.8-0.5c-1.7,0.2-3.3,0.4-5,0.7c-0.8,0.2-1.7,0.4-2.5,0.6c-0.8,0.2-1.6,0.5-2.4,0.7c-3.3,1-6.4,2.4-9.4,4.1
		c-1.5,0.9-2.9,1.8-4.3,2.8c-2.8,2-5.3,4.3-7.6,6.8c-1.1,1.3-2.2,2.6-3.2,4c-0.2,0.3-0.2,0.8,0.1,1.1
		C-99.7-353.6-99.2-353.6-99-353.9L-99-353.9z"/>
	<path class="st9" d="M-43.7-314.4c0.6,0.2,1.2,0.3,1.8,0.3c0.6,0,1.3,0,1.9-0.1c0.6-0.1,1.3-0.3,1.9-0.5c0.6-0.2,1.1-0.5,1.6-0.9
		l0.2-0.1c0.3-0.3,0.8-0.2,1.1,0.1c0,0,0,0,0,0c0.1,0.2,0.2,0.4,0.2,0.6c-0.2,1.1-0.8,2-1.7,2.6c-0.8,0.6-1.7,1-2.7,1.2
		c-1,0.2-2,0.1-3-0.2c-1-0.3-1.9-1-2.4-1.9c-0.2-0.4,0-0.8,0.4-1c0.2-0.1,0.4-0.1,0.6,0L-43.7-314.4z"/>
	<circle class="st9" cx="-36.1" cy="-320.6" r="1.5"/>
	<circle class="st9" cx="-45.8" cy="-319" r="1.5"/>
</g>
<ellipse transform="matrix(0.9029 -0.4299 0.4299 0.9029 103.3797 -82.6502)" class="st12" cx="-131.2" cy="-270.1" rx="1.7" ry="4.7"/>
<g class="st0">
	<path class="st1" d="M374.4-229.9c-4.8-2.3-4.8-9.9-4.5-13.2v-0.6c0-0.4,0.1-0.8,0.1-1.3c0.1-0.9,0.2-1.8,0.2-2.7
		c0.1-1.8,0.2-3.7,0.2-5.5c0-0.3,0-0.7,0-1.1c-0.2-6.3-5.4-11.3-11.7-11.1c-0.2,0-0.4,0-0.5,0c-2,0.1-4,0.2-6,0.3
		c-6.2,0.3-12.4,0.3-18.6,0.2c-6.2-0.1-12.4-0.4-18.6-0.9c-6.3-0.5-12.5-1.3-18.6-2.6c-3.6-0.8-6.4-3.8-6.8-7.5
		c-0.4-4.4,2.6-8.5,7-9.3c6.1-1.2,12.2-2.1,18.4-2.5c6.2-0.5,12.4-0.8,18.6-0.9h1.1c-1.2-1.2-2.1-2.8-2.5-4.5
		c-0.9-4.4,1.4-8.9,5.6-10.6c0.5-0.2,1-0.4,1.5-0.6c-2.3-1.6-3.8-4.1-4-6.9c-0.2-4.1,2.1-8,5.8-9.7c1-0.5,1.9-0.9,3-1.2
		c-2.3-1.6-3.8-4.2-4-7c-0.2-4.2,2.2-8.1,6-9.8c0.9-0.4,1.7-0.8,2.7-1.1c22.9-9.1,47-1.1,68.4,12.1h15.5c2.6,0,4.7,11.5,4.7,25.6
		c0,14.2-2.1,28.5-4.7,28.5l-15.5-0.3c-6.2,3.8-11.1,7.1-16.4,9.6c-3.5,1.7-5.9,5.2-6,9.1l0,0c-0.2,2.7-0.5,2.6-1,5.3
		c-0.5,2.7-1.3,5.3-2.3,7.9c-0.5,1.3-1,2.6-1.7,3.8c-0.3,0.6-0.7,1.3-1,1.9l-0.6,1l-0.8,1.2c-2.3,4.8-8,6.8-12.8,4.5
		C374.5-229.9,374.4-229.9,374.4-229.9z"/>
	<path class="st2" d="M304.5-276.5c0.1,6.1-10,5.3-10-0.3C294.5-282.9,304.4-283.8,304.5-276.5z"/>
	<path class="st2" d="M384-237.3c0.1,6.1-10,5.3-10-0.3C374-243.7,384-244.6,384-237.3z"/>
	
		<ellipse transform="matrix(1 -4.363309e-03 4.363309e-03 1 1.3163 1.871)" class="st2" cx="429.5" cy="-300.7" rx="4.2" ry="21.2"/>
	<ellipse class="st10" cx="428.3" cy="-298" rx="1.7" ry="4.7"/>
	<path class="st2" d="M325-282.2c0.1,0.9,0.1,1.8,0,2.7v2.6v2.7c0,0.9,0,1.7,0,2.7v0.1c0,0.4-0.4,0.8-0.8,0.7
		c-0.3,0-0.5-0.1-0.6-0.4c-0.6-0.8-1-1.8-1.2-2.8c-0.2-1-0.3-2-0.3-3c0-1,0.1-2,0.4-2.9c0.2-1,0.6-1.9,1.1-2.8
		c0.2-0.4,0.7-0.5,1.1-0.3C324.9-282.7,325.1-282.5,325-282.2L325-282.2z"/>
	<path class="st2" d="M384.6-250.6c-0.5,0.1-0.9,0.1-1.4,0.1c-0.4,0-0.8-0.1-1.2-0.2c-0.4-0.1-0.8-0.2-1.2-0.3
		c-0.4-0.1-0.8-0.3-1.2-0.5l-0.1-0.1c-0.4-0.2-0.5-0.8-0.3-1.2c0.1-0.1,0.1-0.2,0.2-0.3c0.5-0.3,1-0.5,1.6-0.6
		c0.5-0.1,1.1-0.1,1.6,0c0.5,0.1,1,0.3,1.5,0.5c0.5,0.3,0.9,0.6,1.2,1.1c0.3,0.4,0.2,0.9-0.2,1.2c-0.1,0.1-0.2,0.1-0.3,0.1
		L384.6-250.6z"/>
	<path class="st2" d="M317.8-279.3c0.2,0.4,0.3,0.8,0.4,1.3c0.1,0.4,0.1,0.8,0.1,1.2c0,0.4,0,0.8-0.1,1.2c-0.1,0.4-0.2,0.9-0.4,1.3
		v0.1c-0.2,0.4-0.7,0.6-1.1,0.4c0,0,0,0,0,0c-0.1,0-0.2-0.1-0.3-0.2c-0.4-0.4-0.7-0.8-0.8-1.4c-0.2-0.5-0.2-1-0.2-1.5
		c0-0.5,0.1-1,0.3-1.5c0.2-0.5,0.4-1,0.8-1.3c0.3-0.3,0.9-0.4,1.2-0.1c0,0,0,0,0,0c0.1,0.1,0.1,0.2,0.2,0.3L317.8-279.3z"/>
	<path class="st2" d="M344-315.8c0.2,0.4,0.3,0.8,0.4,1.3c0.1,0.4,0.1,0.8,0.1,1.2c0,0.4,0,0.8-0.1,1.2c-0.1,0.4-0.2,0.9-0.4,1.3
		v0.1c-0.2,0.4-0.7,0.6-1.2,0.4c-0.1,0-0.2-0.1-0.3-0.2c-0.4-0.4-0.7-0.8-0.8-1.4c-0.2-0.5-0.2-1-0.2-1.5c0-0.5,0.1-1,0.2-1.4
		c0.2-0.5,0.4-1,0.8-1.4c0.3-0.3,0.9-0.3,1.2,0C343.8-316.1,343.9-316,344-315.8L344-315.8z"/>
	<path class="st2" d="M340.2-298.7c0.2,0.6,0.3,1.1,0.4,1.7c0.1,0.6,0.1,1.1,0.1,1.7c0,0.6,0,1.1-0.1,1.6c-0.1,0.6-0.2,1.1-0.4,1.7
		l0,0c-0.2,0.4-0.6,0.6-1.1,0.5c0,0,0,0,0,0c-0.2-0.1-0.3-0.2-0.4-0.3c-0.4-0.5-0.6-1.1-0.7-1.8c-0.1-0.6-0.2-1.2-0.2-1.8
		c0-0.6,0.1-1.2,0.2-1.8c0.1-0.6,0.4-1.2,0.7-1.7c0.2-0.4,0.7-0.5,1.1-0.3C340-299.1,340.1-299,340.2-298.7L340.2-298.7z"/>
	<path class="st2" d="M349.4-334.1c0.2,0.5,0.3,1.1,0.4,1.7c0.1,0.6,0.1,1.1,0.1,1.7c0,0.5,0,1.1-0.1,1.6c-0.1,0.6-0.2,1.2-0.4,1.7
		l0,0c-0.2,0.4-0.6,0.6-1.1,0.5c0,0,0,0,0,0c-0.2-0.1-0.3-0.2-0.4-0.3c-0.4-0.5-0.6-1.1-0.7-1.8c-0.1-0.6-0.2-1.2-0.2-1.8
		c0-0.6,0.1-1.2,0.2-1.8c0.1-0.6,0.4-1.2,0.7-1.7c0.2-0.4,0.8-0.5,1.1-0.3c0,0,0,0,0,0c0.1,0.1,0.2,0.2,0.3,0.4L349.4-334.1z"/>
</g>
<g class="st0">
	<path class="st9" d="M29.2-22.4c-2.3-4.8-9.9-4.8-13.2-4.5h-0.6L14-26.8c-0.9,0.1-1.8,0.2-2.7,0.2c-1.8,0.1-3.7,0.2-5.5,0.2H4.7
		c-6.3-0.2-11.3-5.4-11.1-11.7c0-0.2,0-0.4,0-0.5c0.1-2,0.2-4,0.3-6c0.3-6.2,0.3-12.4,0.2-18.6c-0.1-6.2-0.4-12.4-0.9-18.6
		c-0.5-6.3-1.3-12.5-2.6-18.6c-0.8-3.6-3.8-6.4-7.5-6.8c-4.4-0.4-8.5,2.6-9.3,7c-1.2,6.1-2,12.2-2.5,18.4
		c-0.5,6.2-0.8,12.4-0.9,18.6c0,0.4,0,0.7,0,1.1c-1.2-1.2-2.8-2.1-4.5-2.5c-4.4-0.9-8.9,1.4-10.6,5.6c-0.2,0.5-0.4,1-0.6,1.5
		c-1.6-2.3-4.1-3.8-6.9-4c-4.1-0.2-8,2.1-9.7,5.8c-0.5,1-0.9,2-1.2,3c-1.6-2.3-4.2-3.8-7-4c-4.2-0.2-8.1,2.2-9.8,6
		c-0.4,0.9-0.8,1.7-1.1,2.6c-9.1,22.9-1.1,47,12.1,68.4v19.3c0,2.6,11.5,4.7,25.6,4.7s28.5-2.1,28.5-4.7l-0.3-19.3
		c3.8-6.2,7.1-11.1,9.6-16.4s11.8-6.4,14.4-7c2.7-0.5,5.3-1.3,7.9-2.3c1.3-0.5,2.6-1,3.8-1.7c0.6-0.3,1.3-0.6,1.9-1l1-0.6l1.2-0.7
		c4.8-2.3,6.8-8.1,4.5-12.8C29.2-22.3,29.2-22.4,29.2-22.4z"/>
	<path class="st11" d="M-17.4-92.6c6.1,0.1,5.3-10-0.3-10C-23.8-102.6-24.8-92.7-17.4-92.6z"/>
	<path class="st11" d="M21.7-13.1c6.1,0.1,5.3-10-0.3-10C15.3-23.1,14.4-13.1,21.7-13.1z"/>
	<path class="st11" d="M-23.5-73.5c0.9-0.5,1.8-0.9,2.8-1.1c1-0.2,1.9-0.4,2.9-0.4c1,0,2,0.1,3,0.3c1,0.2,1.9,0.6,2.8,1.2
		c0.4,0.2,0.4,0.7,0.2,1.1c0,0,0,0,0,0c-0.1,0.2-0.4,0.3-0.6,0.4h-0.1c-0.9,0-1.8,0-2.7,0h-2.6h-2.6c-0.9,0-1.8,0-2.7,0h-0.1
		c-0.4,0-0.7-0.4-0.7-0.8c0,0,0,0,0,0C-23.8-73.2-23.7-73.4-23.5-73.5z"/>
	<path class="st11" d="M2.5-10.7c-0.4-0.3-0.8-0.7-1.1-1.2c-0.5-0.9-0.7-2-0.6-3.1c0.1-0.6,0.3-1.1,0.6-1.5c0.3-0.4,0.8-0.5,1.2-0.2
		c0,0,0,0,0,0c0.1,0.1,0.2,0.2,0.2,0.3l0.1,0.1c0.2,0.4,0.4,0.8,0.5,1.2c0.1,0.4,0.2,0.8,0.3,1.2c0.1,0.4,0.1,0.8,0.2,1.2
		c0,0.5,0,0.9-0.1,1.4v0.2c-0.1,0.4-0.6,0.7-1,0.6C2.7-10.6,2.6-10.6,2.5-10.7z"/>
	<path class="st11" d="M8.8-10c-0.6-0.6-1.1-1.3-1.4-2c-0.3-0.7-0.6-1.5-0.8-2.3c-0.2-0.8-0.2-1.6-0.2-2.4c0-0.8,0.3-1.7,0.6-2.4
		c0.2-0.4,0.7-0.5,1.1-0.3c0.2,0.1,0.3,0.3,0.4,0.4v0.1c0.2,0.7,0.4,1.4,0.5,2.1l0.4,2c0.1,0.7,0.3,1.3,0.4,2
		c0.1,0.7,0.2,1.4,0.2,2.2v0.1c0,0.4-0.3,0.8-0.8,0.8c0,0,0,0,0,0C9.2-9.8,9-9.9,8.8-10z"/>
	<path class="st11" d="M-20.6-80.8c0.4-0.4,0.8-0.6,1.3-0.8c1-0.3,2-0.3,2.9,0c0.5,0.2,1,0.4,1.4,0.8c0.3,0.4,0.3,0.9,0,1.2
		c-0.1,0.1-0.2,0.1-0.2,0.2h-0.1c-0.4,0.2-0.8,0.3-1.3,0.4c-0.4,0.1-0.8,0.1-1.2,0.1c-0.4,0-0.8,0-1.2-0.1c-0.4-0.1-0.9-0.2-1.3-0.4
		l-0.1-0.1c-0.4-0.2-0.6-0.7-0.4-1.1C-20.7-80.6-20.7-80.7-20.6-80.8z"/>
	<path class="st11" d="M-57-54.6c0.4-0.4,0.8-0.6,1.3-0.8c0.5-0.2,1-0.2,1.4-0.2c0.5,0,1,0.1,1.5,0.2c0.5,0.2,1,0.4,1.4,0.8
		c0.3,0.3,0.3,0.9,0,1.2c0,0,0,0,0,0c-0.1,0.1-0.2,0.1-0.3,0.2h-0.1c-0.4,0.2-0.8,0.3-1.3,0.4c-0.4,0.1-0.8,0.1-1.2,0.1
		c-0.4,0-0.8,0-1.2-0.1c-0.4-0.1-0.9-0.2-1.3-0.4l-0.1-0.1c-0.4-0.2-0.6-0.7-0.4-1.1c0,0,0,0,0,0C-57.2-54.5-57.1-54.5-57-54.6z"/>
	<path class="st11" d="M-39.8-58.4c0.5-0.3,1.1-0.6,1.7-0.7c0.6-0.1,1.2-0.2,1.8-0.2c0.6,0,1.2,0.1,1.8,0.2c0.6,0.1,1.2,0.4,1.8,0.7
		c0.4,0.3,0.5,0.8,0.2,1.2c-0.1,0.1-0.2,0.2-0.4,0.3l0,0c-0.5,0.2-1.1,0.3-1.7,0.4c-0.5,0.1-1.1,0.1-1.6,0.1c-0.6,0-1.1,0-1.7-0.1
		c-0.6-0.1-1.2-0.2-1.7-0.4h-0.1c-0.4-0.2-0.6-0.7-0.4-1.1C-40-58.2-40-58.3-39.8-58.4z"/>
	<path class="st11" d="M-75.2-49.2c0.5-0.3,1.1-0.6,1.7-0.7c0.6-0.1,1.2-0.2,1.8-0.2c0.6,0,1.2,0.1,1.8,0.2c0.6,0.1,1.2,0.4,1.8,0.7
		c0.4,0.3,0.5,0.8,0.2,1.2c-0.1,0.1-0.2,0.2-0.4,0.3l0,0c-0.5,0.2-1.1,0.3-1.7,0.4c-0.5,0.1-1.1,0.1-1.6,0.1c-0.6,0-1.1,0-1.7-0.1
		c-0.6-0.1-1.2-0.2-1.7-0.4H-75c-0.4-0.2-0.6-0.7-0.4-1.1c0,0,0,0,0,0C-75.4-49-75.3-49.1-75.2-49.2z"/>
	<ellipse class="st11" cx="-44.7" cy="37.5" rx="21.2" ry="4.2"/>
	
		<ellipse transform="matrix(1 -4.363309e-03 4.363309e-03 1 -0.161 -0.1834)" class="st10" cx="-42.1" cy="36.8" rx="4.7" ry="1.7"/>
</g>
<g class="st0">
	<g id="_Groupe_" class="st3">
		<path class="st7" d="M226.9-342.4c0.5,2.9-1.4,5.7-4.3,6.2c-0.1,0-0.2,0-0.3,0c-17.2,2.2-34.5,4.4-51.8,6.5l-1.5-12.7
			c17.2-2.1,34.4-4.2,51.6-6.3c2.8-0.3,5.4,1.6,5.9,4.4C226.7-343.4,226.8-343,226.9-342.4z"/>
	</g>
	<path class="st11" d="M222.8-456.7c-13.3-4.9-24.8-6.9-25.7-4.5l-6.7,18.1c-0.9,2.5-2.3,4.9-4,7c-0.4,0.4-0.7,0.7-1,1.1
		c-1.4,1.4-2.9,2.8-4.6,3.9c-4.2,2.2-9.3,1.9-18.3,3.8l0,0c-6.2,1.1-12.1,3.2-17.5,6.3c-3.9,2.2-7.5,5-10.6,8.2
		c-1.5,1.6-3,3.2-4.4,5l-1.9,2.7c-0.3,0.5-0.6,0.9-0.9,1.3l-0.8,1.4c-4.1,7.1-6.8,15-7.8,23.1c-0.5,3.7,1.8,7.2,5.3,8.3
		c-0.1,4.6,0.2,9.2,1.1,13.8c0.8,4.4,5.1,7.3,9.5,6.5c0.3-0.1,0.6-0.2,0.9-0.3c1.3,3.9,3,7.8,5,11.4c0.1,0.3,0.2,0.5,0.4,0.8
		c4.5,8,15.5,4.6,16.3-2.1c0.1-1,0.1-2-0.1-2.9v-0.2c-1.6-6.8-2.4-13.7-2.5-20.7v-1.2l0.1-1.2l0.1-2.4c0.2-1.5,0.3-3.1,0.7-4.6
		c0.4-1.5,0.7-2.9,1.1-4.4l0.7-2.1c0.3-0.7,0.6-1.4,0.8-2.1c5.2-11.3,16.1-19.1,28.5-20.4c10.6-1,27.5,13.7,22.1,30.9
		c0,0,0,0.1,0,0.1l-0.8,2.1c-0.3,0.7-0.6,1.4-0.9,2.1c-0.1,0.3-0.3,0.7-0.4,1l-0.5,1l-0.5,1c-0.2,0.3-0.3,0.7-0.5,1
		c-1.3,2.5-2.8,4.9-4.4,7.3c-4.1,5.9-7.1,6.6-8.7,11.2v0l0,0l0,0c-0.8,2.2-0.6,4.6,0.6,6.6c1.7,2.9,5.4,3.9,8.9,3.2l0,0
		c1-0.2,2-0.5,2.9-0.9l0.9-0.4c0.5-0.3,1-0.5,1.5-0.8s0.8-0.5,1.2-0.8c16.2-9.3,33-33.4,29.8-50.4l0,0c-1-7.8-4.2-14.8-1.7-23.2
		c0.2-0.5,0.3-1.1,0.5-1.6c0.1-0.3,0.2-0.5,0.3-0.8c1.5-4.6,3.3-8.4,3.9-10.2l7-18C248.8-444.8,236.1-451.8,222.8-456.7z"/>
	<path class="st2" d="M148.3-411.2c-2.8,2.6-5.4,5.4-7.6,8.5c-2.2,3.1-4.1,6.5-5.6,10c-1.5,3.5-2.7,7.2-3.3,11
		c-0.2,1-0.3,1.9-0.5,2.9l-0.2,1.4c-0.1,0.5-0.1,1-0.1,1.5c-0.1,2-0.1,3.9-0.1,5.7v0.1l0.3,4c0.1,1.3,0.3,2.7,0.6,4
		c0.5,2.7,1.2,5.3,2,7.9c0.1,0.4,0.5,0.6,0.9,0.5c0.4-0.1,0.7-0.5,0.6-0.9c0,0,0,0,0,0c-0.5-2.6-1-5.2-1.3-7.8
		c-0.2-1.3-0.3-2.6-0.3-3.9l-0.1-3.9c0-0.4,0-0.8,0-1.1c0.5,0.4,1.1,0.7,1.7,0.9c1.3,0.5,2.8,0.5,4.2,0c0.4-0.2,0.6-0.7,0.4-1.1
		c-0.1-0.2-0.2-0.3-0.4-0.4h-0.1c-0.5-0.3-1.1-0.5-1.7-0.7c-0.5-0.2-1-0.4-1.6-0.5l-1.6-0.5c-0.3-0.1-0.6-0.2-1-0.3
		c0-0.6,0.1-1.1,0.1-1.7s0.1-0.9,0.2-1.3l0.2-1.4c0-0.2,0-0.3,0.1-0.5c0.3,0.2,0.5,0.4,0.8,0.6c0.8,0.6,1.7,1,2.6,1.3
		c1.8,0.7,3.8,0.7,5.7,0.2c0.4-0.1,0.6-0.6,0.5-1c-0.1-0.2-0.2-0.4-0.5-0.5h0c-0.9-0.3-1.7-0.5-2.5-0.8s-1.6-0.5-2.3-0.7
		s-1.5-0.5-2.3-0.8c-0.5-0.2-1.1-0.4-1.6-0.6c0.7-3.6,1.7-7,3.1-10.4c1.4-3.4,3-6.7,5-9.8c1-1.5,2-3.1,3.1-4.5s2.3-2.9,3.5-4.3l0,0
		c0.2-0.4,0-0.8-0.3-1C148.8-411.3,148.6-411.3,148.3-411.2z"/>
	<path class="st2" d="M137-405.4c1-1.3,2-2.6,3-3.9l0,0c0.2-0.3,0.1-0.8-0.2-1c-0.3-0.2-0.7-0.2-0.9,0c-1.3,1.1-2.5,2.3-3.7,3.5
		s-2.3,2.6-3.3,3.9c-1,1.4-2,2.8-2.8,4.3c-0.9,1.5-1.7,3-2.4,4.5c-1.4,3.1-2.5,6.4-3.3,9.7c-0.2,0.8-0.4,1.7-0.5,2.5
		s-0.3,1.7-0.4,2.5c-0.2,1.7-0.2,3.4-0.3,5c0,0.4,0.3,0.8,0.7,0.8c0.4,0,0.7-0.2,0.7-0.6c0.4-1.7,0.6-3.3,1-4.9
		c0.2-0.8,0.4-1.5,0.6-2.4s0.4-1.6,0.6-2.4c0.9-3.1,2-6.2,3.4-9.1c1.4-3,3-5.8,4.7-8.5C135.1-402.8,136-404.1,137-405.4z"/>
	<path class="st2" d="M221.9-361.2c-0.3-0.6-0.7-1.2-1.3-1.7c-1-1-2.3-1.7-3.7-1.8c-0.2,0-0.4,0-0.5,0.1c-0.4,0.3-0.5,0.8-0.2,1.1
		c0,0,0,0,0,0v0.1c0.4,0.5,0.7,0.9,1.2,1.4c0.4,0.4,0.8,0.8,1.2,1.2l1.2,1.2c0.4,0.4,0.9,0.8,1.3,1.1l0.2,0.1
		c0.1,0.1,0.3,0.1,0.5,0.1c0.4,0,0.8-0.4,0.8-0.8c0,0,0,0,0,0C222.4-359.8,222.3-360.5,221.9-361.2z"/>
	<path class="st2" d="M217.9-355.9c-0.5-0.7-1.1-1.3-1.7-1.9c-0.6-0.6-1.3-1.1-2-1.6c-0.7-0.5-1.5-0.9-2.3-1.2
		c-0.2-0.1-0.5-0.1-0.7,0.1c-0.4,0.2-0.5,0.7-0.3,1.1c0,0,0,0,0,0l0,0c0.4,0.7,0.9,1.4,1.5,2.1c0.5,0.6,1.1,1.2,1.7,1.8
		c0.6,0.6,1.2,1.1,1.9,1.6c0.7,0.5,1.4,1,2.1,1.4l0,0c0.2,0.1,0.5,0.1,0.7,0c0.4-0.2,0.6-0.6,0.4-1
		C218.9-354.5,218.4-355.2,217.9-355.9z"/>
	<path class="st2" d="M204.4-346c-3.3-3.9-9.7,1.8-6.3,6.2C200.8-336.3,209.1-340.4,204.4-346z"/>
	<path class="st2" d="M137.6-345.5c4.4,0,8.4,5.8,6.9,10.4C144.5-335.1,141.2-335.6,137.6-345.5z"/>
	<path class="st9" d="M87-331.5c-7.4,1-14.7,2.1-22.1,3.1c-2.9,0.4-5,3.1-4.5,6c0,0.1,0,0.2,0.1,0.4l0,0c0.6,2.7,3.1,4.5,5.8,4.2
		c7.4-0.8,14.8-1.6,22.2-2.4c2.9-0.3,5.1-3,4.7-5.9c0-0.2,0-0.3-0.1-0.5l-0.1-0.7C92.5-330,89.9-331.9,87-331.5z"/>
	<path class="st9" d="M288.8-350.3c0,0,0,0.1,0,0.1c0.6,2.8,3.2,4.7,6,4.3l3.5-0.5c2.9-0.4,5-3.1,4.5-6.1c0-0.1,0-0.2-0.1-0.3l0,0
		c-0.6-2.7-3.1-4.5-5.8-4.2l-3.5,0.4c-2.9,0.3-5.1,2.9-4.8,5.9C288.8-350.6,288.8-350.5,288.8-350.3z"/>
	<path class="st9" d="M272.1-354.4c-9.3,1-18.5,2-27.8,3.1c-2.9,0.3-5,3-4.7,5.9c0,0.1,0,0.3,0.1,0.4c0.1,0.5,0.2,0.8,0.3,1.4
		c0.5,2.8,3.1,4.8,6,4.4c9.2-1.2,18.4-2.5,27.6-3.8c2.9-0.4,5-3.1,4.6-6.1c0-0.1,0-0.2-0.1-0.3c0-0.2-0.1-0.4-0.1-0.7
		C277.4-352.8,274.9-354.7,272.1-354.4z"/>
	<g id="_Groupe_2" class="st3">
		<path class="st7" d="M169.1-342.3l1.5,12.7c-19.2,2.3-38.4,4.6-57.6,6.8c-2.8,0.3-5.4-1.6-5.9-4.4c-0.1-0.5-0.2-0.9-0.3-1.3
			c-0.6-2.9,1.3-5.7,4.2-6.3c0.1,0,0.2,0,0.3,0C130.6-337.4,149.8-339.9,169.1-342.3z"/>
	</g>
	
		<ellipse transform="matrix(0.3471 -0.9378 0.9378 0.3471 565.069 -86.3069)" class="st2" cx="220.5" cy="-449" rx="4.2" ry="21.2"/>
	
		<ellipse transform="matrix(0.3471 -0.9378 0.9378 0.3471 565.069 -86.3069)" class="st10" cx="220.5" cy="-449" rx="1.7" ry="4.7"/>
	<path class="st11" d="M205.4-336.6L205.4-336.6C205.4-336.6,208.1-337.9,205.4-336.6z"/>
</g>
<g>
	<path class="st8" d="M353.5,2.4C333.4,1.6,280.8,0,181.6,0S29.9,1.6,9.8,2.4C4.3,2.6,0,7.1,0,12.6V26c0,5.5,4.4,10.1,9.9,10.2
		C36.1,37,110,38.8,181.7,38.8s145.5-1.8,171.7-2.5c5.5-0.2,9.9-4.7,9.9-10.2V12.6C363.3,7.1,359,2.6,353.5,2.4z M353.8,26
		c0,0.4-0.3,0.8-0.8,0.8c-28.3,0.8-101.9,2.5-173.7,2.5c-15.1,0-30.3-0.1-45.1-0.2v0c-53.8-0.5-101.5-1.7-123.2-2.3
		c-0.4,0-0.8-0.4-0.8-0.8c-1.2-4.3-1.2-9,0-13.3v-0.2c0-0.4,0.3-0.8,0.8-0.8c15-0.6,52.9-1.8,123.2-2.3v0
		c13.8-0.1,28.9-0.1,45.1-0.1c101.9,0,155.5,1.7,173.7,2.4c0.4,0,0.8,0.4,0.8,0.8v0.2C355.1,17.1,355.1,21.7,353.8,26z"/>
	<g class="st0">
		<path class="st2" d="M134.3,9.6C64.1,10,26.1,11.2,11.1,11.8c-0.4,0-0.8,0.4-0.8,0.8v0.2c-1.2,4.3-1.2,9,0,13.3l0,0
			c0,0.4,0.3,0.8,0.8,0.8c21.7,0.6,69.4,1.8,123.2,2.3V9.6z"/>
		<path class="st9" d="M353.1,11.8c-18.2-0.7-71.8-2.4-173.7-2.4c-16.2,0-31.2,0-45.1,0.1v19.6c14.8,0.1,30,0.2,45.1,0.2
			c71.8,0,145.4-1.8,173.7-2.5c0.4,0,0.8-0.4,0.8-0.8l0,0c1.2-4.3,1.2-9,0-13.3v-0.2C353.8,12.2,353.5,11.8,353.1,11.8z"/>
	</g>
	<circle class="st12" cx="133.1" cy="20" r="14.2"/>
</g>
<g class="st0">
	<path class="st1" d="M245.4,140.6l-8.2-13.2c-4.1-7.3-0.9-14.1-7.2-34.2c0-0.1-0.1-0.2-0.1-0.3c-0.6-2-1.3-4-2-6l0,0
		c-0.2-0.5-0.4-1-0.6-1.4c-0.6-1.4-1.2-2.8-1.9-4.2c-1.8-3.8-4-7.3-6.6-10.7c-2.5-3.4-5.5-6.4-8.9-9c-3.7-2.8-8.9-2.2-11.9,1.2
		c-0.7-0.6-1.3-1.1-2-1.7c-2.1-1.6-4.9-2.2-7.5-1.5c-2.3,0.6-4.2,2.1-5.4,4.2c-0.5-0.5-1.1-0.9-1.7-1.4c-2.1-1.6-4.9-2.2-7.5-1.5
		c-1,0.3-2,0.7-2.9,1.4c-1.3-3.2-2.6-6.3-4.1-9.4l-1.1-2.2l-1.2-2.2c-0.8-1.5-1.6-2.9-2.4-4.3c-1.7-2.8-3.4-5.7-5.4-8.4
		c-3.8-5.5-8.1-10.6-12.9-15.2c-3.4-3.2-8.8-3.1-12,0.3c-2.3,2.5-3,6.1-1.7,9.2l0.2,0.4c2.4,5.6,5.1,10.9,7.5,16.3
		c1.3,2.7,2.5,5.4,3.7,8l1.8,4l0.9,2l0.9,2c2.4,5.4,4.7,10.8,6.9,16.3l1,2.4c-0.7,0.5-1.4,1-2,1.7c-3.3,3.7-5.9,7.9-7.7,12.5
		c-1,2.6-1.8,5.3-2.2,8c-0.5,3.3-0.4,6.6,0.1,9.9c0.7,3.9,2.5,7.6,5,10.7c2.5,3,5.6,5.4,9.2,6.9c0.6,0.3,1.2,0.5,1.8,0.7l0,0
		c30.1,11.2,29.3,15.3,33.5,22.5l7.9,13.4c1.3,2.2,12.3-1.8,24.5-9S246.7,142.8,245.4,140.6z"/>
	
		<ellipse transform="matrix(0.8718 -0.4898 0.4898 0.8718 -45.7716 127.2895)" class="st2" cx="220.3" cy="151.1" rx="21.2" ry="4.2"/>
	
		<ellipse transform="matrix(0.8718 -0.4898 0.4898 0.8718 -45.7716 127.2895)" class="st10" cx="220.3" cy="151.1" rx="4.7" ry="1.7"/>
	<path class="st2" d="M143.5,32.7c6.2-3.3,0.2-11.3-4.7-8.8C133.3,26.6,137.1,36.2,143.5,32.7z"/>
	<path class="st2" d="M153.8,83.4c1.1,1.6,2,3.3,2.9,5.1c0.9,1.7,1.7,3.5,2.4,5.3s1.4,3.6,2,5.5c0.6,1.9,1,3.8,1.3,5.8
		c0,0.4-0.2,0.8-0.7,0.8c-0.3,0-0.6-0.1-0.8-0.4l0,0c-0.8-1.8-1.6-3.5-2.3-5.3s-1.5-3.5-2.3-5.3s-1.4-3.6-2.1-5.4s-1.3-3.6-1.8-5.5
		l0,0c-0.1-0.4,0.1-0.8,0.6-0.9C153.3,83,153.6,83.2,153.8,83.4L153.8,83.4z"/>
	<path class="st2" d="M173.9,63.6c0.4,0.3,0.8,0.7,1.1,1.2c0.3,0.4,0.5,0.9,0.7,1.3c0.2,0.5,0.3,1,0.4,1.5c0.1,0.6,0.1,1.1,0,1.7
		c-0.1,0.4-0.6,0.7-1,0.6c-0.1,0-0.3-0.1-0.4-0.2h0c-0.4-0.3-0.7-0.7-1-1.2c-0.3-0.4-0.5-0.9-0.7-1.3c-0.2-0.5-0.3-0.9-0.4-1.4
		c-0.1-0.5-0.1-1.1-0.1-1.6l0,0c0.1-0.5,0.5-0.8,1-0.8c0,0,0,0,0,0C173.7,63.5,173.8,63.6,173.9,63.6z"/>
	<path class="st2" d="M151.9,52.1c0.6-0.6,1.2-1.2,1.9-1.7c0.7-0.5,1.4-0.9,2.1-1.3c0.7-0.4,1.5-0.7,2.3-1c0.8-0.3,1.7-0.4,2.6-0.5
		c0.4,0,0.8,0.3,0.8,0.8c0,0.2-0.1,0.5-0.3,0.6l0,0c-1.3,1-2.6,1.9-4.1,2.7c-0.7,0.4-1.5,0.7-2.2,1c-0.8,0.3-1.6,0.5-2.4,0.7l0,0
		c-0.4,0.1-0.8-0.2-0.9-0.7C151.7,52.5,151.8,52.3,151.9,52.1z"/>
	<path class="st2" d="M151,45.1c0.2-0.4,0.4-0.8,0.7-1c0.6-0.5,1.3-0.9,2.1-1c0.4-0.1,0.9-0.1,1.3,0.1c0.5,0.1,0.8,0.6,0.6,1.1
		c0,0,0,0,0,0c0,0.1,0,0.1-0.1,0.2l0,0.1c-0.2,0.4-0.4,0.7-0.7,0.9c-0.3,0.2-0.6,0.4-0.9,0.6c-0.3,0.2-0.7,0.3-1,0.4
		c-0.4,0.1-0.8,0.1-1.2,0l0,0c-0.5-0.1-0.8-0.6-0.8-1.1C151,45.3,151,45.2,151,45.1z"/>
	<path class="st2" d="M186.4,63.7c0.5,0.3,0.9,0.6,1.3,1c0.4,0.4,0.7,0.8,0.9,1.2c0.3,0.4,0.5,0.9,0.6,1.4c0.2,0.5,0.3,1.1,0.2,1.7
		c0,0.5-0.5,0.8-0.9,0.8c-0.1,0-0.3-0.1-0.4-0.1h-0.1c-0.4-0.3-0.8-0.6-1.2-1c-0.3-0.4-0.6-0.8-0.9-1.2c-0.3-0.4-0.5-0.9-0.6-1.3
		c-0.2-0.5-0.3-1-0.3-1.6l0,0c0-0.5,0.4-0.9,0.8-0.9C186.1,63.7,186.3,63.7,186.4,63.7z"/>
	<path class="st2" d="M144.7,112.1c0.3-0.5,0.6-0.9,1-1.3c0.8-0.7,1.7-1.2,2.7-1.5c0.5-0.2,1.1-0.2,1.7-0.2c0.5,0.1,0.8,0.5,0.8,1
		c0,0.1-0.1,0.3-0.1,0.4l0,0c-0.3,0.4-0.6,0.8-1,1.1c-0.4,0.3-0.8,0.6-1.2,0.8c-0.4,0.2-0.9,0.4-1.4,0.6c-0.5,0.2-1,0.3-1.6,0.3l0,0
		c-0.5,0-0.9-0.4-0.9-0.9C144.6,112.3,144.6,112.2,144.7,112.1z"/>
	<path class="st2" d="M200.5,63.1c0.5,0.2,1,0.5,1.4,0.8c0.4,0.3,0.8,0.7,1.1,1.1c0.3,0.4,0.6,0.9,0.8,1.3c0.2,0.5,0.4,1.1,0.4,1.6
		c0,0.5-0.3,0.9-0.8,0.9c-0.1,0-0.3,0-0.4-0.1H203c-0.5-0.2-0.9-0.5-1.3-0.9c-0.4-0.3-0.7-0.7-1-1.1c-0.3-0.4-0.6-0.8-0.8-1.3
		c-0.3-0.5-0.4-1-0.5-1.5l0,0c-0.1-0.5,0.2-0.9,0.7-1c0,0,0,0,0,0C200.2,63.1,200.4,63.1,200.5,63.1z"/>
</g>
<g class="st0">
	<path class="st2" d="M454.5-55.6c0.4-4,1.3-7.9,2.5-11.8l1-2.9c0.3-1,0.8-1.9,1.2-2.9s0.9-1.9,1.4-2.8c0.2-0.5,0.5-1,0.7-1.4
		l0.8-1.4c8.8-15.5,25.1-25.2,42.9-25.7c8.6-0.3,17.1,1.7,24.7,5.8c4.3,2.5,5.7,8,3.2,12.3c-2,3.4-6.1,5.1-10,4.2l-0.5-0.1
		c-5.3-1.5-10.8-2-16.3-1.5c-5.3,0.6-10.4,2.3-14.9,5.1c-4.5,2.8-8.4,6.6-11.5,11l-0.6,0.9c-0.2,0.3-0.4,0.6-0.5,0.9
		c-0.4,0.6-0.8,1.2-1.1,1.8s-0.7,1.2-1,1.9l-1,2c-1.3,2.7-2.3,5.5-3.4,8.4l-0.2,0.4c-1.7,4.7-6.9,7-11.6,5.3
		C456.5-47.6,454.1-51.5,454.5-55.6L454.5-55.6z"/>
	<path class="st2" d="M462.7-44.4c0.4-4,1.3-7.9,2.4-11.8l1-2.9c0.4-1,0.8-1.9,1.2-2.9s0.9-1.9,1.3-2.8c0.2-0.5,0.5-0.9,0.7-1.4
		l0.8-1.4c8.8-15.5,25.1-25.2,42.9-25.7c8.6-0.3,17.1,1.7,24.8,5.8c4.3,2.5,5.8,8,3.3,12.3c-2,3.5-6.1,5.2-10,4.2l-0.5-0.1
		c-5.3-1.5-10.8-2-16.3-1.5c-5.3,0.6-10.4,2.3-14.9,5c-4.5,2.8-8.5,6.6-11.5,11l-0.6,0.9c-0.2,0.3-0.4,0.6-0.6,0.9
		c-0.4,0.6-0.8,1.2-1.1,1.8s-0.7,1.2-1,1.9l-1,2c-1.3,2.6-2.3,5.5-3.4,8.4l-0.2,0.4c-1.7,4.7-6.9,7-11.6,5.3
		C464.6-36.4,462.2-40.3,462.7-44.4L462.7-44.4z"/>
	<path class="st2" d="M443.2-67.7c0.4-4,1.2-8,2.4-11.8l1-2.9c0.3-1,0.8-1.9,1.2-2.9s0.9-1.9,1.3-2.8c0.2-0.5,0.5-0.9,0.7-1.4
		l0.8-1.4c8.7-15.5,25-25.3,42.8-25.9c8.6-0.3,17.2,1.7,24.8,5.7c4.3,2.5,5.8,8,3.3,12.3c-2,3.5-6.1,5.2-10,4.2l-0.5-0.1
		c-5.3-1.5-10.8-2-16.3-1.4c-5.3,0.6-10.4,2.4-14.9,5.1c-4.5,2.8-8.4,6.6-11.4,11.1l-0.6,0.9c-0.2,0.3-0.4,0.6-0.5,0.9
		c-0.4,0.6-0.8,1.2-1.1,1.8s-0.7,1.2-1,1.9l-1,2c-1.3,2.7-2.3,5.5-3.4,8.4l-0.2,0.4c-1.7,4.7-6.9,7.1-11.5,5.4
		C445.2-59.7,442.8-63.6,443.2-67.7L443.2-67.7z"/>
	<path class="st11" d="M469.7-100.1c0,0-3.6,51.4,24.7,48.5s31.9-37.2,31.9-37.2s-20.1-30.3-38.8-23.6S469.7-100.1,469.7-100.1z"/>
	<path class="st2" d="M516.8,5.1c13.6-3.8,24.1-9,23.4-11.5L536-21.2c-4.5-17.7-6.3-25.9,1.9-42.1l0.3-0.5c0.5-0.8,0.9-1.7,1.3-2.6
		v-0.1c0.7-1.3,1.3-2.7,1.7-4.2c0.1-0.2,0.2-0.4,0.2-0.6c1.8-5.7,2.2-11.7,1.1-17.5c-1.1-5.5-3.4-10.6-6.7-15.2
		c-2.8-3.9-6.2-7.4-9.9-10.5c-3.4-2.8-7-5.4-10.7-7.7c-3.6-2.2-7.3-4.2-11.1-6c-7.3-3.5-15-6.4-22.8-8.7c-3.7-1.1-7.5,1-8.6,4.7
		c-0.8,2.8,0.2,5.9,2.6,7.6l0.1,0.1c3.2,2.3,6.4,4.4,9.5,6.5c1.6,1.1,3.1,2.2,4.7,3.2c1.5,1.1,3.1,2.1,4.6,3.3
		c5.8,4.1,11.2,8.7,16.2,13.7c2.1,2.2,3.9,4.5,5.5,7.1c1.2,1.9,2,4.1,2.4,6.3c0.2,1.9,0,3.8-0.6,5.6c-0.2,0.7-0.5,1.4-0.8,2.1
		c-6.8,14.6-30.7,27.1-36.9,5.1c-0.2-0.8-0.4-1.6-0.6-2.5c0-0.1,0-0.2,0-0.3c-0.2-1.1-0.5-2.3-0.8-3.4c0-0.2-0.1-0.4-0.1-0.6
		c-1-3.9-2-7.8-3.1-11.8c-1.2-4.2-2.6-8.4-4.3-12.4l-0.1-0.2c-1.7-3.7-6-5.3-9.7-3.6c-1.8,0.8-3.2,2.4-3.9,4.2
		c-1.5,4.6-2.4,9.3-2.5,14.2c-0.2,4.8,0.1,9.7,1,14.5c0.8,4.4,2.1,8.7,3.9,12.8c0.4,1.1,0.9,2.1,1.5,3.1l0.1,0.1
		c0.6,1.1,1.2,2.2,1.8,3.3c10.4,18.5,14.6,23,20.8,47.5l3.9,15C488.8,10.8,503.1,9,516.8,5.1z"/>
	<path class="st11" d="M463.4-91.8c7,0.5,6.3-9.4,0.8-10C458.1-102.5,456.1-92.4,463.4-91.8z"/>
	<path class="st11" d="M487.4-129.9c1-5.2-8.8-6.2-9.8-2.1C476.6-127.5,486.4-124.4,487.4-129.9z"/>
	<path class="st11" d="M515.5-119c0,0.4-0.1,0.8-0.2,1.1c-0.1,0.3-0.2,0.5-0.4,0.8c-0.1,0.2-0.3,0.4-0.6,0.5
		c-0.4,0.2-0.8,0.3-1.2,0.3h-0.1c-0.2,0-0.5-0.1-0.6-0.2c-0.3-0.4-0.5-0.9-0.4-1.4c0.1-0.4,0.3-0.8,0.5-1.1c0.3-0.3,0.6-0.5,1-0.6
		c0.4-0.2,0.9-0.2,1.3-0.1c0.3,0,0.5,0.3,0.5,0.6L515.5-119z"/>
	<path class="st11" d="M519.5-115.9c-0.4,0.7-0.8,1.5-1.3,2.1c-0.5,0.7-0.9,1.3-1.4,1.9c-0.5,0.6-1,1.2-1.5,1.8
		c-0.6,0.6-1.2,1.2-1.8,1.7l0,0c-0.2,0.1-0.4,0.1-0.6-0.1c0-0.1-0.1-0.1-0.1-0.2c-0.2-1-0.1-1.9,0.3-2.8c0.3-0.9,0.8-1.6,1.4-2.3
		c0.6-0.7,1.3-1.3,2-1.8c0.8-0.5,1.6-0.9,2.5-1.1c0.3-0.1,0.5,0.1,0.6,0.4c0,0,0,0,0,0C519.6-116.2,519.6-116.1,519.5-115.9
		L519.5-115.9z"/>
	<path class="st11" d="M522.5-111.2c-0.1,0.5-0.3,1-0.6,1.5c-0.2,0.4-0.5,0.8-0.8,1.2c-0.3,0.4-0.6,0.7-0.9,1
		c-0.4,0.3-0.9,0.6-1.4,0.8l0,0c-0.2,0.1-0.5,0-0.6-0.2c-0.3-0.6-0.3-1.3-0.1-2c0.2-0.6,0.5-1.1,0.9-1.5c0.4-0.4,0.8-0.8,1.3-1
		c0.5-0.3,1.1-0.5,1.7-0.5c0.3,0,0.5,0.2,0.6,0.5C522.6-111.4,522.6-111.3,522.5-111.2L522.5-111.2z"/>
	
		<ellipse transform="matrix(0.9627 -0.2707 0.2707 0.9627 18.8173 137.9366)" class="st11" cx="509.4" cy="0.8" rx="21.1" ry="4.2"/>
	<ellipse transform="matrix(0.9615 -0.2748 0.2748 0.9615 20.2554 140.929)" class="st10" cx="513.1" cy="-1.8" rx="4.7" ry="1.7"/>
	<path class="st11" d="M532.7-36c3.7,2.5,8.5-1.2,12.2-4.8c3.9-3.9,7.9-9.9,4.1-13.9C544.1-59.9,526.2-42.4,532.7-36z"/>
	<path class="st1" d="M548.9-54.6l-53.5-54.8l-17.1,17.9l53.5,54.8c0.3,0.3,0.6,0.5,0.9,0.8C526.2-42.4,544.1-59.9,548.9-54.6z"/>
	<path class="st9" d="M538-40.8c1.6,1.1,3.6-0.5,5.1-2s3.3-4.2,1.7-5.8C542.8-50.8,535.3-43.5,538-40.8z"/>
	<path class="st9" d="M449.1-148.1l-8.9-1.6c-0.9-0.3-2,0.2-2.3,1.2c-0.1,0.4-0.1,0.7,0,1.1l2.2,7.9
		C441.5-142.2,444.5-146.4,449.1-148.1z"/>
	<path class="st11" d="M458.7-146.3l-9.7-1.7c-4.6,1.7-7.5,5.9-9,8.5l3.2,11.5c3.5-7.6,9.6-13.6,17.2-17.1
		C460-145.7,459.4-146.1,458.7-146.3z"/>
	<path class="st11" d="M541.1-58.4c-1.3,0.9-2.5,1.8-3.6,2.9c-1.1,1-2.2,2.1-3.2,3.2c-1,1.1-2,2.3-2.9,3.4s-1.8,2.4-2.8,3.7l0,0
		c-0.1,0.2-0.4,0.2-0.5,0.1c-0.1-0.1-0.2-0.2-0.2-0.3c0-0.4,0-0.9,0.1-1.3c0.1-0.4,0.2-0.8,0.3-1.3c0.2-0.8,0.5-1.6,0.9-2.4
		c0.8-1.5,1.8-2.8,3-4c1.2-1.2,2.5-2.3,3.9-3.1c1.4-0.9,3.1-1.5,4.7-1.8c0.2,0,0.5,0.2,0.5,0.4C541.3-58.7,541.2-58.5,541.1-58.4
		L541.1-58.4z"/>
	<path class="st11" d="M456.1-94.2c-0.5,4.5-0.4,9.1,0,13.6c0.2,2.3,0.5,4.5,1,6.7s1.2,4.4,1.9,6.5c0.3,1.1,0.7,2.1,1.2,3.2
		s0.8,2,1.3,3.1c0.2,0.5,0.4,1,0.7,1.5l0.8,1.5c0.5,1,1,2,1.6,3c2.2,4,4.2,8.2,6,12.5c0.1,0.2,0,0.4-0.2,0.5c-0.2,0.1-0.3,0-0.4-0.1
		c-2.8-3.7-5.4-7.5-7.8-11.4c-0.6-1-1.2-2-1.8-3.1l-0.4-0.8l-0.4-0.8c-0.3-0.5-0.5-1.1-0.7-1.7c-0.4-1-0.9-2.1-1.3-3.3
		s-0.7-2.2-1-3.4c-0.6-2.3-1.1-4.6-1.4-6.9c-0.4-2.3-0.6-4.7-0.7-7c-0.3-4.6-0.1-9.3,0.7-13.8c0-0.2,0.3-0.4,0.5-0.4c0,0,0,0,0,0
		C456-94.6,456.1-94.4,456.1-94.2z"/>
	<path class="st11" d="M469.7-69c-0.5,0.3-1,0.6-1.5,0.8c-0.5,0.2-0.9,0.3-1.4,0.5c-0.5,0.1-0.9,0.2-1.4,0.2c-0.6,0-1.1-0.1-1.7-0.2
		h0c-0.3-0.1-0.4-0.3-0.4-0.6c0,0,0,0,0,0l0,0c0.2-0.7,0.6-1.2,1.2-1.6c0.5-0.3,1.1-0.6,1.7-0.6c0.6-0.1,1.2-0.1,1.8,0
		c0.6,0.1,1.2,0.3,1.7,0.7c0.2,0.2,0.3,0.5,0.1,0.7c0,0,0,0,0,0C469.8-69.2,469.8-69.1,469.7-69L469.7-69z"/>
	<path class="st11" d="M472.1-75.6c-1.1,0.3-2.1,0.5-3.2,0.6l-3,0.5c-1,0.2-2,0.3-3,0.5s-2,0.3-3.2,0.3l0,0c-0.2,0-0.4-0.2-0.4-0.4
		c0,0,0,0,0,0c0-0.1,0-0.2,0.1-0.3c0.7-0.9,1.7-1.7,2.8-2.1c1.1-0.5,2.2-0.7,3.3-0.9c1.1-0.1,2.3-0.1,3.4,0c1.1,0.1,2.2,0.4,3.3,0.9
		c0.2,0.1,0.3,0.4,0.2,0.6C472.4-75.8,472.3-75.7,472.1-75.6L472.1-75.6z"/>
	<path class="st11" d="M491.9-114.2c2.7,1.6,5.3,3.3,7.8,5.1c2.5,1.8,5,3.7,7.3,5.8c2.4,2,4.6,4.3,6.6,6.7c1,1.3,1.9,2.6,2.7,4
		c0.2,0.4,0.4,0.7,0.5,1.1c0.2,0.4,0.3,0.8,0.5,1.2c0.2,0.8,0.3,1.6,0.4,2.4c0,0.2-0.1,0.4-0.3,0.4c0,0,0,0,0,0
		c-0.1,0-0.3-0.1-0.3-0.2l0,0c-0.4-0.7-0.8-1.3-1.2-1.9c-0.2-0.3-0.4-0.6-0.6-0.8s-0.5-0.6-0.7-0.9c-0.9-1.2-1.9-2.3-2.9-3.4
		c-2-2.2-4.2-4.3-6.4-6.4s-4.5-4.1-6.9-6.1s-4.6-4.1-6.9-6.2c-0.2-0.2-0.2-0.5,0-0.6c0,0,0,0,0,0
		C491.5-114.2,491.8-114.3,491.9-114.2z"/>
	<path class="st11" d="M488.8-60.8c-3.2-1.5-5.8-3.8-7.7-6.8c-0.5-0.8-0.9-1.6-1.2-2.4c-0.3-0.8-0.6-1.7-0.9-2.5l-0.4-1.2
		c-0.1-0.2-0.1-0.4-0.2-0.6l-0.2-0.6c-0.2-0.8-0.4-1.5-0.7-2.3s-0.5-1.7-0.7-2.5l-0.6-2.4c-0.4-1.6-0.8-3.2-1.1-4.9
		c-0.5-3.3-1.4-6.5-2-9.8c0-0.2,0.1-0.4,0.3-0.4c0.2,0,0.3,0.1,0.4,0.2c0.7,1.5,1.3,3.1,2,4.6s1.3,3.1,1.8,4.7s1,3.2,1.5,4.8
		l0.6,2.4c0.2,0.8,0.4,1.6,0.6,2.4s0.4,1.7,0.6,2.5l0.1,0.6c0,0.2,0,0.4,0.1,0.6l0.2,1.2c0.1,0.8,0.3,1.6,0.5,2.3
		c0.2,0.7,0.6,1.5,0.9,2.2c1.5,2.8,3.8,5.2,6.5,7c0.2,0.1,0.3,0.4,0.1,0.6C489.2-60.8,489-60.7,488.8-60.8z"/>
	<path class="st1" d="M460.5-145.2c-12.6,5.2-17.2,17.1-17.2,17.1c0.2,0.6,0.5,1.1,1,1.6l78.1,80l17.1-17.9L460.5-145.2z"/>
</g>
</svg>
