<svg id="Ebene_1" data-name="Ebene 1" xmlns="http://www.w3.org/2000/svg" viewBox="0 0 128 128">
  <title>SQLServerIconplant</title>
  <g>
    <g>
      <path d="M26.28,114.41c-1.16-1.34-2.29-2.72-3.5-4a2.78,2.78,0,0,0-1.43-.62c-5-1-7.61-3.92-8.1-9a12.71,12.71,0,0,1,1.22-7.27A8.39,8.39,0,0,1,20.31,89a11.51,11.51,0,0,1,5.19-.08,8,8,0,0,1,6.16,5.35,13,13,0,0,1-.72,11,8,8,0,0,1-4.34,3.8c-.29.1-.57.23-1,.42L30,114.41Zm3.51-15c-.2-1.24-.29-2.47-.59-3.63a5.6,5.6,0,0,0-4.66-4.46,6.75,6.75,0,0,0-6.78,2.15c-2.34,2.72-2.25,8.64-.37,11.13a6.37,6.37,0,0,0,6.79,2.68,6.09,6.09,0,0,0,5-4.39A28.78,28.78,0,0,0,29.79,99.36Z"/>
      <path d="M0,93.2a5.67,5.67,0,0,1,3.49-4,10.21,10.21,0,0,1,6.62,0,.84.84,0,0,1,.49.57c0,.71,0,1.42-.09,2.28a8.34,8.34,0,0,0-1-.32,27.93,27.93,0,0,0-4-.52,2.71,2.71,0,0,0-2.61,1.94,2.41,2.41,0,0,0,.84,2.93c1,.8,2.06,1.51,3.09,2.26a27.61,27.61,0,0,1,2.9,2.2,5.17,5.17,0,0,1-2,8.81A10.44,10.44,0,0,1,0,108.78v-3a15.62,15.62,0,0,0,2.15.92,13,13,0,0,0,3.45.66c2.09,0,3.43-1.62,2.91-3.43a5,5,0,0,0-1.59-2.22c-1.1-.91-2.38-1.6-3.56-2.42a7.94,7.94,0,0,1-3.36-4Z"/>
      <path d="M128,96.58a1.81,1.81,0,0,1-.18.21,1.62,1.62,0,0,1-2.38.19,1.48,1.48,0,0,1,0-2.09,1.64,1.64,0,0,1,2.39.16,1.92,1.92,0,0,1,.18.22Zm-2.17-1.36h-.23v1.43h.23Z"/>
      <path d="M110.64,39.49c-1.92.36-3.66.59-5.35,1C99,42,92.79,43.58,86.55,45.15c-1.32.34-1.3.39-1.15,1.72A53.36,53.36,0,0,1,80.76,76.2c-.62,1.33-1.33,2.63-1.88,4a1.94,1.94,0,0,1-2.31,1.38c-4-.5-7.95-.87-11.89-1.48a36.85,36.85,0,0,1-11.8-3.9,15.74,15.74,0,0,1-5.84-5,5.8,5.8,0,0,1-.18-6.3,20.93,20.93,0,0,1,5.31-6c4.29-3.67,8.4-7.49,11.49-12.28A18.7,18.7,0,0,0,67,35.64a15.18,15.18,0,0,0-4.39-10.46c-1.51-1.55-3.09-3-4.63-4.52a7.4,7.4,0,0,1-.76-.83c-.68-.88-.72-1.44.15-2.1a21.14,21.14,0,0,1,3.94-2.5c3.22-1.44,6.52-2.71,9.81-4,1-.42,1.22-.32,1.54.77a61.35,61.35,0,0,0,4.44,10,2.32,2.32,0,0,0,1.94,1.36,77,77,0,0,1,17.68,4.48c5.46,2.24,10.09,5.51,13.29,10.57C110.21,38.71,110.36,39,110.64,39.49Zm-1.7-.77a.16.16,0,0,0,0-.1,35.51,35.51,0,0,0-8.43-6.81c-.53-.32-.77-.11-1,.37A27.66,27.66,0,0,1,92.91,41a4.5,4.5,0,0,0-.42.47Zm-25.78,25L70,69.92a4.23,4.23,0,0,0,.75.41c2.79.88,5.6,1.73,8.39,2.62.94.3,1.44,0,1.7-1,.66-2.41,1.4-4.79,2.09-7.19A11.26,11.26,0,0,0,83.16,63.67Zm7.56-21.76L98.57,31.8l-.29-.35a94.06,94.06,0,0,0-13,4.68Zm-42.51,24a5.32,5.32,0,0,0,.62-.05L58,63.18c.65-.18.64-.53.38-1a7.46,7.46,0,0,1-.83-5,1.61,1.61,0,0,0-.11-.55C53.26,58.56,49.65,61,48.21,65.87ZM63.49,78.34l.09.24,15.79-4.64,0-.3-.68-.15c-2.53-.56-5.08-1-7.58-1.7-2.25-.61-2.22-.71-3.59,1.14ZM89,42.46c-.08-.14-.11-.28-.2-.35-1.72-1.38-3.45-2.76-5.19-4.12-.49-.38-.74,0-1,.36a47.39,47.39,0,0,1-6.86,7.9,7.53,7.53,0,0,0-.51.58ZM65.83,69.78l.1-.27a1.44,1.44,0,0,1-.36-.15c-1.6-1.28-3.22-2.54-4.78-3.87-.57-.48-.84-.26-1.2.19-1.38,1.69-2.79,3.36-4.15,5.07-.79,1-1.5,2-2.25,3l.21.33Zm5-2.12.18.2c4-1.51,8.06-3,12-4.9l-8.68-3.44ZM97.45,30.42l.12-.26L87.45,26.72l-2.18,7.47ZM58.65,64.51c-.59.1-.88.13-1.16.2l-8,1.88c-1.27.29-1.41.48-1,1.72a11.79,11.79,0,0,0,3.19,4.44c.54.52.86.53,1.3-.12,1.38-2,2.82-4,4.23-6.07Zm3.15-.74a18.58,18.58,0,0,0,5.79,4.9c.14.09.68-.18.81-.41,1.24-2.31,2.43-4.64,3.63-7,.2-.39.33-.83.5-1.26ZM80.07,74.54l-.24-.28c-4.5,2.24-9.32,3.43-14.18,4.62,1.31.34,2.61.59,3.93.8,2.31.38,4.62.77,6.94,1.06.43.06,1.19-.16,1.32-.46C78.66,78.4,79.34,76.46,80.07,74.54ZM75.51,58.6A28.36,28.36,0,0,0,82.39,62c.82.27,1.19,0,1.27-.76.21-2.3.41-4.59.61-6.89a7.21,7.21,0,0,0-.09-1.06Zm-7.63-7.13-5,10.26,10-3.5A17.63,17.63,0,0,1,67.88,51.47Zm7.23,5.59c1.77-.26,7.75-3.46,8.76-4.63-.05-.07-.08-.17-.15-.21-2.15-1.21-4.29-2.43-6.45-3.61-.78-.43-1-.22-1.08.7-.19,1.89-.42,3.78-.66,5.66C75.44,55.64,75.27,56.29,75.11,57.06ZM54.32,74.6c.25.23.34.37.47.43,2.31,1,4.62,2,7,3,.23.09.76-.2.94-.46.73-1,1.37-2.16,2-3.24l2-3.14Zm8.77-59,.09.24,10,1.68c.06-.2.11-.3.09-.38-.38-1.64-.77-3.28-1.15-4.92-.13-.59-.48-.56-.91-.38-1.29.55-2.6,1.06-3.88,1.65C65.91,14.14,64.51,14.88,63.09,15.58ZM86.13,27l-.31-.25L77.43,32c1.87.93,3.44,1.74,5,2.47.18.08.72-.2.83-.44.88-1.83,1.71-3.68,2.51-5.54A7.48,7.48,0,0,0,86.13,27ZM75.35,24.42l1.21,6.23,8.21-4.49ZM73.56,57.13a18.11,18.11,0,0,0,1.24-8.2c-1.83.71-3.51,1.35-5.17,2a.82.82,0,0,0-.22.77A13.88,13.88,0,0,0,73.56,57.13Zm.56-32.93L68.51,29l.14.34c1.9.55,3.81,1.13,5.73,1.64.15,0,.6-.34.61-.55A16.55,16.55,0,0,0,74.12,24.2ZM65.52,53l-.3-.3c-1.76.85-3.53,1.69-5.27,2.58a1,1,0,0,0-.41.78,20.73,20.73,0,0,0,0,3.25,11.55,11.55,0,0,0,.71,2.23l.39,0ZM62.28,16.69c1.59,1.53,3.12,3,4.71,4.48a1.53,1.53,0,0,0,1.91.15c.58-.36,1.18-.69,1.78-1l2.84-1.55ZM73.65,47.36l6.78-8.64-.22-.23-2.36,1.25-4.91,2.73c-.42.23-.66.49-.46,1.06C72.89,44.7,73.21,45.9,73.65,47.36ZM72.86,24l-7.63-1.43,2,5.48Zm-4.6,13.81,5.45-5c-1.89-.56-3.49-1-5.1-1.49-.52-.15-.65.21-.63.64C68.07,33.91,68.16,35.8,68.26,37.85Zm9.83,9.91-.08.38,6,3.74.25-.2c-.15-1.66-.28-3.32-.48-5a.88.88,0,0,0-.7-.49C81.4,46.69,79.75,47.24,78.09,47.76ZM71.2,44.47,63.64,51.6c2.54-1,5.34-2.17,8.12-3.35.28-.12.63-.64.57-.86C72,46.4,71.59,45.45,71.2,44.47Zm9.65-8.23c-1.59-.78-2.92-1.45-4.27-2.07a.7.7,0,0,0-.65.24c-.67,1.86-1.3,3.74-1.93,5.61Zm-9.49,5.33a21.82,21.82,0,0,0,2.91-6.82l-.25-.2-5.64,4.82ZM61.3,16.64c-.63.56-1.2,1-1.69,1.5-1,1.06-.94,1.45.44,1.85.54.16,1.09.29,1.64.4.92.19,1.85.36,2.77.54l.09-.22Zm14.42,6.17.16-.26L74.2,19.22,70.43,22Zm-15-1.39,4.86,5.42c-.38-1.2-.75-2.48-1.19-3.75a1.38,1.38,0,0,0-.66-.82C62.76,21.92,61.73,21.69,60.73,21.42ZM60.88,52a31.64,31.64,0,0,0,7.38-6.47A19.9,19.9,0,0,0,60.88,52Zm8.74-9.1c-.67-.44-1.16-.81-1.7-1.09a.71.71,0,0,0-.66.19c-.6,1.28-1.15,2.58-1.77,4Z"/>
      <path d="M104.39,103a4.32,4.32,0,0,0,4.92,4.43c1.36-.26,2.67-.75,4-1.15.63,1.29.32,2.22-1,2.73-2.6,1-5.15,1.17-7.65-.38a5.83,5.83,0,0,1-2.81-4c-.52-2.75-.41-5.4,1.41-7.75,2.66-3.44,8.16-3.3,10.21.28a9,9,0,0,1,.86,5.19c0,.7-.61.6-1.06.6h-7.78C105.11,103,104.75,103,104.39,103Zm.24-2.38c2.14,0,4.29,0,6.44,0,.18,0,.53-.46.49-.65-.35-1.81-1.31-3.26-3.62-3.14A3.66,3.66,0,0,0,104.63,100.65Z"/>
      <path d="M67.25,103a4.38,4.38,0,0,0,5.22,4.48c1.26-.28,2.48-.76,3.73-1.15.63,1.41.29,2.27-1.12,2.78-2.66,1-5.23,1.11-7.72-.53a5.88,5.88,0,0,1-2.77-4.66,13.93,13.93,0,0,1,.18-4.18,6.72,6.72,0,0,1,8.4-5,5.78,5.78,0,0,1,4,5.35c0,.62,0,1.25,0,1.88.07.82-.28,1.1-1.09,1.09-2.59,0-5.19,0-7.78,0Zm7.25-2.32c-.14-2.29-1.34-3.68-3.16-3.84a3.81,3.81,0,0,0-3.82,3.07c-.11.46,0,.76.49.76Z"/>
      <path d="M52,106l2,.89a6.11,6.11,0,0,0,4.12.4,2.71,2.71,0,0,0,1.41-4.61,18.38,18.38,0,0,0-2.47-2c-1.31-1-2.73-1.88-3.94-3-3-2.73-1.14-7,1.47-8.18a9.56,9.56,0,0,1,7.13-.23,1,1,0,0,1,.57.72,17.57,17.57,0,0,1,0,2.21,10.17,10.17,0,0,0-1.16-.38,25.69,25.69,0,0,0-3.67-.58,2.8,2.8,0,0,0-2.86,1.88,2.55,2.55,0,0,0,.91,3.17c1.09.83,2.23,1.58,3.35,2.38.71.51,1.44,1,2.11,1.55a5.16,5.16,0,0,1,1.85,5.87c-.69,2.22-2.51,3.17-4.62,3.65a10.71,10.71,0,0,1-6-.64,1.11,1.11,0,0,1-.63-.7,21.64,21.64,0,0,1,0-2.28Z"/>
      <path d="M38.15,98c0,2.63,0,5.26,0,7.88,0,.79.26,1,1,1,2.06,0,4.13,0,6.19,0,1,0,1,.58,1,1.27s.06,1.32-1,1.31c-3,0-6,0-9,0-.74,0-1-.28-1-1q0-9.29,0-18.57c0-.69.26-1,.94-1a7.85,7.85,0,0,0,.84,0c.74,0,1,.31,1,1C38.13,92.58,38.15,95.27,38.15,98Z"/>
      <path d="M88,94.85a13.16,13.16,0,0,1,2.3,0c.31.07.63.54.76.9,1.15,3.17,2.26,6.36,3.38,9.54.06.17.13.34.3.74.68-1.78,1.3-3.36,1.89-4.94s1.31-3.32,1.83-5c.32-1,.85-1.44,1.9-1.28a12.1,12.1,0,0,0,1.21.09c-.14.47-.21.83-.34,1.16-1.62,4.1-3.3,8.17-4.86,12.29-.39,1-1,1-1.89,1a1.4,1.4,0,0,1-1.58-1.09c-1.51-4.17-3.08-8.32-4.63-12.47C88.18,95.6,88.13,95.33,88,94.85Z"/>
      <path d="M82.29,96.62a4.73,4.73,0,0,1,3.87-2.11c.8-.06,1.28.16,1.17,1.08,0,.31,0,.62,0,.94s-.21.63-.71.58a3.43,3.43,0,0,0-4.15,3.42c-.16,2.55-.15,5.11-.2,7.67,0,1.19,0,1.2-1.42,1.2s-1.31,0-1.31-1.21q0-6,0-12.1c0-1.22,0-1.24,1.27-1.25,1.43,0,1.43,0,1.46,1.24Z"/>
      <path d="M119.55,96.69a4.24,4.24,0,0,1,4-2.21c.64,0,.92.26.89.9,0,.34,0,.69,0,1,0,.55-.19.76-.81.67a3.35,3.35,0,0,0-4,2.92,19.7,19.7,0,0,0-.22,3.26c0,1.69-.05,3.38,0,5.06,0,.83-.3,1.16-1.1,1.07-.13,0-.25,0-.38,0-1.24,0-1.27,0-1.27-1.25,0-4,0-8,0-12,0-.42.17-1.15.37-1.19a3.89,3.89,0,0,1,2.09.08C119.44,95.15,119.41,96,119.55,96.69Z"/>
      <path d="M1.73,82c0,1.37,0,2.75,0,4.12,0,.3-.35.59-.54.88-.15-.29-.44-.58-.45-.88,0-1.84,0-3.69,0-5.53,0-.3.29-.59.44-.89.37.2.92.31,1.08.62C2.9,81.54,3.41,82.85,4,84.13c.12.27.26.53.5,1,.73-1.61,1.37-3,2-4.43.1-.23.15-.54.33-.66a1.66,1.66,0,0,1,1-.33c.17,0,.44.43.45.67q.06,3,0,5.91c0,.24-.36.47-.54.7-.2-.26-.55-.51-.56-.78-.06-1.36,0-2.72-.21-4.12-.59,1.32-1.16,2.66-1.78,4a4.67,4.67,0,0,1-.73.89,6.39,6.39,0,0,1-.64-.86c-.65-1.38-1.25-2.78-1.88-4.17Z"/>
      <path d="M32.43,87.06a2.5,2.5,0,0,1-2.61-2.67,2.66,2.66,0,0,1,2.7-2.86,2.51,2.51,0,0,1,2.59,2.71A2.54,2.54,0,0,1,32.43,87.06ZM34,84.38c0-1.26-.42-1.84-1.43-1.85S31,83.11,31,84.3s.56,1.89,1.56,1.89S34,85.54,34,84.38Z"/>
      <path d="M20,84.27a2.57,2.57,0,0,1,2.75-2.74,2.77,2.77,0,0,1-.31,5.53A2.42,2.42,0,0,1,20,84.27Zm1.07,0c0,1.1.61,1.86,1.52,1.88a1.65,1.65,0,0,0,1.57-1.83c0-1.16-.57-1.83-1.54-1.83S21.06,83.15,21.06,84.31Z"/>
      <path d="M38.07,79.08l.58.42c-.19.19-.37.38-.55.58s-.59.5-.7.81.06.77.61.84c.15,0,.28.25.43.39-.14.14-.27.38-.43.4-.61.07-.65.47-.65.94,0,.91,0,1.82,0,2.72,0,.28-.35.54-.53.81-.2-.26-.53-.5-.56-.78-.08-.78,0-1.56,0-2.34,0-.54.17-1.16-.56-1.45-.07,0-.07-.44,0-.62a10.35,10.35,0,0,0,.65-1.23A1.84,1.84,0,0,1,38.07,79.08Z"/>
      <path d="M26.07,85.89a7.08,7.08,0,0,0,1.34.27.77.77,0,0,0,.63-.42.85.85,0,0,0-.29-.69c-.39-.3-.89-.47-1.28-.77a1.41,1.41,0,0,1-.14-2.14,2,2,0,0,1,2.48-.32c.15.16.15.47.25.81a7.45,7.45,0,0,0-1.25-.08c-.24,0-.63.21-.65.36a1.1,1.1,0,0,0,.33.77,9.1,9.1,0,0,0,1,.56,1.39,1.39,0,0,1,.74,1.57A1.49,1.49,0,0,1,27.83,87a3,3,0,0,1-1.38-.09c-.29-.11-.45-.54-.66-.84Z"/>
      <path d="M16.06,82.62c-2.55-.12-3.14.28-3.09,1.88,0,1.41.68,1.74,3.11,1.44-.31.45-.44.83-.7,1a2.59,2.59,0,0,1-3-.71,3.19,3.19,0,0,1,.05-3.67,2.69,2.69,0,0,1,2.94-.83C15.66,81.82,15.78,82.2,16.06,82.62Z"/>
      <path d="M40.44,80.24c.2.72,0,1.64,1.14,1.54.07,0,.26.27.23.32s-.25.41-.39.41c-.84,0-.85.53-.83,1.13a8.5,8.5,0,0,0,.07,1.68c.09.33.49.58.77.85a4.7,4.7,0,0,0,.43.35c-.15.17-.27.43-.46.49a1.29,1.29,0,0,1-1.73-1.08,17.93,17.93,0,0,1-.1-2.32c0-.46.09-1-.57-1.13-.11,0-.14-.34-.21-.53.66-.24.77-.85,1-1.42C39.81,80.39,40.16,80.35,40.44,80.24Z"/>
      <path d="M16.87,84.33c0-.62,0-1.25,0-1.86,0-.25.18-.65.33-.68a12.7,12.7,0,0,1,2.14-.17c.13,0,.35.35.35.54s-.29.37-.47.39c-.88.07-1.17.61-1.2,1.38s0,1.44-.05,2.14c0,.33-.36.61-.55.92-.19-.3-.5-.57-.55-.89a13,13,0,0,1,0-1.77Z"/>
      <path d="M43.91,83.65a1.53,1.53,0,1,1,1.53-1.56A1.55,1.55,0,0,1,43.91,83.65Z"/>
      <path d="M84.14,79.56v2.2L83.58,81l-.49.65L82.52,81l-.5.76L81.72,80l-.25,0-.38,1.55-.19,0-.52-1.91c1.48-.37,1.89-.21,2.69,1.12l.74-1.22Z"/>
      <path d="M9.74,84.3a18.31,18.31,0,0,1,0-2c0-.21.34-.39.53-.59.15.2.42.4.42.6,0,1.34,0,2.69,0,4,0,.2-.28.39-.44.59-.18-.2-.49-.39-.52-.61-.06-.68,0-1.37,0-2.06Z"/>
      <path d="M10.32,79.09c.26.41.56.67.52.87a.9.9,0,0,1-.61.52c-.11,0-.47-.35-.46-.53S10.05,79.49,10.32,79.09Z"/>
    </g>
  </g>
</svg>