<svg version="1" xmlns="http://www.w3.org/2000/svg" width="1669.333" height="1669.333" viewBox="0 0 1252.000000 1252.000000"><path d="M490.7 324.5c-.1.2-3.6.5-7.7.9-10.9.9-14.2 1.5-26.5 4.6-32.9 8.2-61.4 25.1-85.4 50.4-3.6 3.8-88.6 89-188.9 189.3L0 752l66.8 66.8c61.6 61.5 73.8 73 87 81.5 17.7 11.4 41.7 21.3 60 24.7 3.2.5 6.8 1.2 8.2 1.5 8.8 1.9 33.2 2.5 46.5 1.2 35.5-3.4 72.7-19.9 98.9-43.7 2.7-2.5 33.7-33.2 68.8-68.3 35.1-35 64-63.7 64.2-63.7.2 0 29.7 29.4 65.7 65.3s68.8 68 72.9 71.3c52.8 42.9 125.4 51.6 187.5 22.5 10.1-4.7 25-14 34.1-21.3 3.8-3 93.2-91.8 198.8-197.3l191.8-191.8-67.2-67.1c-76.1-76.1-79.9-79.3-106-91.9-24.8-11.9-44.7-16.6-72.5-17.2-17.8-.4-25.8.3-41.3 3.5-28.9 6-59.1 21.3-80.1 40.5-2.4 2.2-33.5 33-69 68.5l-64.6 64.5-66.3-66.3c-36.6-36.5-69.5-68.7-73.2-71.7-25.9-20.7-58.8-34.4-91.5-38.1-5.6-.6-28.2-1.3-28.8-.9z"/></svg>