<?xml version="1.0" standalone="no"?>
<svg
  width="600"
  height="600"
  viewBox="0 0 1000 1000"
  xmlns="http://www.w3.org/2000/svg"
>
  <g transform="translate(800,800)">
    <path d="M157.6,-128.7C181.9,-95.4,163.6,-31.1,146,28.4C128.5,87.9,111.8,142.6,80,152.8C48.2,163.1,1.3,128.8,-52.1,104.5C-105.4,80.2,-165.3,65.8,-170.9,39.5C-176.5,13.3,-127.7,-24.8,-90.2,-61.2C-52.6,-97.6,-26.3,-132.3,20.2,-148.4C66.7,-164.5,133.4,-162.1,157.6,-128.7Z" fill="#0f3259" />
  </g>

  <g transform="translate(150,300)">
    <path d="M107.8,-152.2C139.2,-147.6,163.7,-116.8,171.7,-83.2C179.6,-49.5,171,-13.1,155.1,14.7C139.2,42.4,116.1,61.5,102.9,104.9C89.8,148.4,86.6,216.2,64.7,224.7C42.7,233.2,2.1,182.3,-24.6,146C-51.2,109.7,-63.8,87.9,-87.2,70.3C-110.6,52.7,-144.9,39.2,-148.8,20.6C-152.8,1.9,-126.4,-21.9,-119.4,-61.6C-112.3,-101.4,-124.5,-157.1,-107.9,-168.5C-91.2,-179.9,-45.6,-146.9,-3.7,-141.2C38.2,-135.4,76.4,-156.9,107.8,-152.2Z" fill="#0f3259"  />
  </g>
</svg>
    