<?xml version="1.0" encoding="UTF-8" standalone="no"?>

<svg
   xmlns:dc="http://purl.org/dc/elements/1.1/"
   xmlns:cc="http://creativecommons.org/ns#"
   xmlns:rdf="http://www.w3.org/1999/02/22-rdf-syntax-ns#"
   xmlns:svg="http://www.w3.org/2000/svg"
   xmlns="http://www.w3.org/2000/svg"
   xmlns:xlink="http://www.w3.org/1999/xlink"
   xmlns:sodipodi="http://sodipodi.sourceforge.net/DTD/sodipodi-0.dtd" 
   xmlns:inkscape="http://www.inkscape.org/namespaces/inkscape"
   width="200px"
   height="200px"
   viewBox="0 0 200 200"
   version="1.1"
   id="blog-shape">
   <g>
    <clipPath id="bigclip">
		<path d="m 132.83295,42.29214 c 0,0 11.49259,2.138156 18.97614,0.267269 7.48355,-1.870888 26.72695,7.216277 30.736,12.561667 4.00904,5.345391 17.63978,20.579755 14.16528,38.486813 -3.4745,17.907061 -1.33635,36.348651 3.4745,45.970361 4.81085,9.6217 4.81085,22.45064 -2.40542,34.2105 -7.21628,11.75985 -11.22532,10.95805 -11.22532,10.95805 0,0 -4.81085,2.93996 -5.34539,4.27631 -0.53454,1.33635 -16.30344,23.51972 -24.32153,26.99422 -8.01808,3.47451 -28.86511,5.87993 -40.62497,1.87089 -11.75985,-4.00905 -22.183366,0.26727 -27.796028,3.74177 -5.612659,3.4745 -41.694044,9.08716 -56.126599,-8.01809 -14.432555,-17.10524 -18.708867,-29.13237 -18.174328,-42.76312 0.534539,-13.63075 9.087163,-27.26149 10.156242,-29.39965 1.069078,-2.13815 4.009043,-9.88897 0.801808,-15.7689 C 21.916101,119.8003 19.243406,106.43683 24.588796,97.349661 29.934188,88.262499 48.375784,82.382568 52.919365,81.31349 57.462948,80.244412 62.273798,70.889978 63.342876,67.415475 64.411954,63.940972 73.499119,50.577495 83.120822,44.964834 92.742524,39.352175 110.11504,34.808593 132.83295,42.29214 Z" />
	</clipPath>
</g>
</svg>
